<?xml version="1.0" encoding="UTF-8" standalone="no"?>
<!-- Created with Inkscape (http://www.inkscape.org/) -->

<svg
   version="1.1"
   id="svg2"
   width="231.15799"
   height="162.35393"
   viewBox="0 0 231.15798 162.35393"
   xmlns="http://www.w3.org/2000/svg"
   xmlns:svg="http://www.w3.org/2000/svg">
  <defs
     id="defs6" />
  <g
     id="g8"
     transform="translate(-870.9476,-1045.3874)">
    <g
       id="g44343"
       transform="translate(113.28435,-123.94588)">
      <path
         style="fill:#fbcc88;stroke-width:1.33333"
         d="m 890.00002,1329.183 c -39.10124,-6.903 -75.83074,-24.7621 -99.3635,-48.3138 -19.03499,-19.0502 -31.89692,-46.9369 -32.00165,-69.3845 -0.0175,-3.7499 0.43427,-10.3576 -0.253,-13.291 -1.60759,-6.8613 -0.39478,-12.7658 4.34105,-17.8945 8.12612,-8.8001 31.77308,-13.2528 43.64857,-8.2909 2.63268,1.1 7.76909,2.1897 10.01466,2.1897 6.07529,0 14.24882,4.2651 17.33232,9.2544 1.49432,2.4178 3.61488,6.3269 3.61488,8.9317 0,4.0656 1.04932,5.6712 7.41357,11.3435 4.27295,3.8085 13.73408,9.7943 22.33334,14.1298 13.3669,6.7393 19.40732,8.6955 58.03594,18.7955 49.75186,13.0082 54.48367,15.2233 61.57049,28.8228 2.24765,4.3132 2.32777,5.4818 0.77704,11.3333 -2.81512,10.6227 -8.2957,19.9429 -17.40596,29.6002 -12.8909,13.6651 -26.39413,20.0438 -50.05775,23.6466 -14.85299,2.2613 -11.73327,2.3521 -30,-0.8728 z m -104.5415,-119.2477 c 8.55455,-4.4238 11.82872,-16.9547 6.64939,-25.4486 -1.64428,-2.6965 -4.71817,-5.0084 -8.66168,-6.5145 -5.7781,-2.2066 -6.65275,-2.9056 -12.27392,-0.7585 -8.84888,1.2618 -11.1745,9.4772 -11.16731,16.944 0.0133,13.1746 13.8732,21.7663 25.45352,15.7779 z m -7.70595,-11.7511 c -2.63009,-1.1447 -3.96758,0.507 -4.88952,-2.1376 -1.65806,-4.7564 -2.42065,2.4471 1.43643,-1.8379 3.0356,-3.3724 2.19285,-3.7621 0.99498,-0.6405 -0.40012,1.0427 0.34629,-0.082 1.2013,1.5152 1.19725,2.2371 1.48662,5.8983 4.52106,5.4529 4.86456,-0.714 3.14496,-7.8562 1.34679,-2.698 -0.87679,2.5152 -1.73766,-0.9937 -4.49948,0.3169 -5.21385,2.4741 5.08243,2.2897 -0.11156,0.029 z m 47.4677,11.4804 c 14.26823,-7.3048 11.27023,-29.8328 -4.51796,-33.3936 -12.93421,-2.9171 -24.29936,9.8534 -20.70424,22.3889 3.27185,11.4083 14.69699,16.3932 25.2222,11.0047 z m -11.20137,-9.0232 c -4.57369,-2.3144 -6.56039,-2.7582 -5.44982,-7.1831 1.93952,-7.7276 6.32554,-12.4713 6.32554,-5.7052 0,4.1364 4.26214,8.0863 8.44826,7.2861 2.91597,-0.5575 1.5363,-2.1415 1.5363,1.0849 0,2.4909 -0.67818,0.5082 -3.44254,2.8343 -4.56633,3.8423 -2.56555,4.1382 -7.41774,1.683 z"
         id="path44353" />
      <path
         style="fill:#f39d2a;stroke-width:1.33333"
         d="m 889.21772,1328.5244 c -40.68228,-7.1797 -74.07217,-23.6922 -99.22966,-49.0727 -20.12707,-20.3054 -29.44064,-40.1303 -31.44901,-72.025 -1.19436,-18.9675 -0.29941,-18.6457 1.8349,-23.5962 1.71082,-3.9682 4.95078,-6.4801 11.49089,-9.4494 11.25596,-5.1104 21.84616,-5.3966 34.02366,-2.4986 4.98047,1.1853 11.08763,2.7193 13.81605,3.1278 8.8375,1.3234 17.6288,9.6354 17.6288,18.3248 0,5.2408 5.9632,10.9854 20.75988,19.9992 16.06243,9.7848 20.255,11.2656 66.08951,23.3428 23.2005,6.1133 44.50051,12.3068 47.33333,13.7635 5.77338,2.9687 10.90256,8.0348 14.8895,14.7063 2.61066,4.3685 2.61969,4.6885 0.362,12.8305 -7.97147,28.7476 -34.89017,48.6514 -70.88318,52.4113 -8.03347,0.8392 -13.52243,0.4555 -26.66667,-1.8643 z m 46.09851,-21.2108 c 21.53837,-4.5622 36.78943,-12.0655 40.55843,-19.9541 2.94709,-6.1683 3.54497,-22.0359 1.01467,-26.929 -3.33923,-6.4573 -11.71064,-8.6548 -19.76886,-5.1893 -1.55123,0.6671 -2.46663,0.1521 -3.06156,-1.7223 -1.41836,-4.4689 -11.24732,-8.3109 -20.54769,-8.0318 -6.80488,0.2042 -8.94512,-0.3188 -13.15264,-3.2138 -7.89903,-5.435 -12.03992,-6.4573 -27.16595,-6.7067 l -14.14072,-0.2333 -8.58127,-8 c -5.23916,-4.8842 -12.71404,-10.0424 -19.19261,-13.244 -5.83624,-2.8842 -11.61725,-6.4712 -12.84668,-7.9711 -2.23091,-2.7216 -2.24105,-2.7197 -5.11773,0.9374 -1.58532,2.0154 -4.77942,4.6397 -7.098,5.8318 -4.23562,2.1777 -15.54894,13.3612 -15.54894,15.3705 0,2.9067 4.34658,0.4346 8.80744,-5.0093 2.74228,-3.3466 6.65266,-6.9466 8.68972,-8 9.84135,-5.0892 24.01055,-0.1385 38.83618,13.5692 6.58206,6.0858 6.6437,10.8984 0.27646,21.5872 -4.8299,8.1079 -6.9362,15.7506 -5.42569,19.6869 1.38255,3.6028 4.18116,0.1263 6.79521,-8.4412 3.69572,-12.1127 7.8786,-18.3547 14.4228,-21.5226 9.90034,-4.7927 26.43078,-3.2979 33.82027,3.0583 3.68864,3.1728 4.55076,8.3385 2.58357,15.4802 -0.85813,3.1154 -0.80552,3.1597 0.8046,0.6775 0.94754,-1.4608 3.7155,-4.6108 6.15104,-7 3.88436,-3.8105 5.30478,-4.3441 11.56438,-4.3441 5.7319,0 7.94332,0.6792 11.23838,3.4518 4.84528,4.0771 5.19998,7.8361 1.43564,15.2148 -3.0285,5.9364 -3.45958,9.8179 -1,9.0043 1.92602,-0.6372 3.9091,-4.4066 7.01676,-13.3376 2.09309,-6.0151 2.45129,-6.3333 7.13018,-6.3333 2.70951,0 6.24268,0.922 7.85148,2.0488 5.741,4.0212 6.89979,18.3209 2.22515,27.459 -3.52356,6.888 -15.39302,14.7359 -25.01799,16.5416 -4.8877,0.9169 -4.98339,0.8577 -4.12678,-2.5554 1.04696,-4.1714 -1.10389,-4.67 -3.76377,-0.8725 -3.47239,4.9575 -9.01493,6.6949 -21.38515,6.7036 -13.01238,0.01 -29.20418,-3.1092 -31.6886,-6.1027 -2.70082,-3.2543 -0.60874,-15.765 4.00264,-23.936 2.24918,-3.9853 4.08942,-8.1551 4.08942,-9.2662 0,-3.7648 -2.7923,-2.0459 -4.84034,2.9798 -5.62474,13.8024 -10.02933,21.1725 -14.43134,24.1475 -9.54127,6.4483 -31.8969,1.732 -43.06166,-9.0845 -6.45761,-6.2562 -6.05165,-12.5167 1.66667,-25.7019 3.3,-5.6374 6,-10.6103 6,-11.0508 0,-2.0193 -2.75571,1.2932 -6.39719,7.6897 -2.19177,3.85 -5.88926,8.8 -8.21666,11 -3.51856,3.3259 -5.28382,3.9813 -10.47556,3.8894 -6.38008,-0.1131 -15.64447,-3.954 -18.84827,-7.8143 -2.53157,-3.0504 -2.16471,-11.6951 0.70228,-16.5485 3.77123,-6.3842 0.92807,-7.9137 -5.38484,-2.8968 -2.79388,2.2203 -6.41636,4.0368 -8.04996,4.0368 -6.62904,0 -13.07754,-9.2311 -11.65324,-16.6817 0.28197,-1.4751 2.5701,-4.0307 5.08473,-5.679 2.51463,-1.6484 4.57204,-3.8705 4.57204,-4.9379 0,-2.6552 -4.27296,-4.729 -7.82828,-3.7993 -1.82393,0.477 -3.91707,-0.1316 -5.55707,-1.6158 -1.44705,-1.3096 -2.95652,-2.0555 -3.35438,-1.6576 -1.25815,1.2581 0.88352,7.4215 3.35656,9.6596 1.84869,1.673 2.22573,3.493 1.69644,8.1889 -0.55187,4.8962 -0.0943,6.8398 2.42069,10.2803 17.16231,23.4785 40.77371,41.6069 68.87555,52.8814 7.29797,2.9279 23.12137,7.6888 35.16311,10.5797 24.8133,5.9569 41.32294,6.9349 57.87693,3.4284 z M 789.41695,1207.2532 c 14.22967,-13.6329 -0.0941,-36.6857 -18.453,-29.6983 -10.7032,4.0736 -14.71135,19.1203 -7.40602,27.8022 4.62402,5.4953 7.71071,6.7204 15.50442,6.1539 4.82189,-0.3505 7.36984,-1.3982 10.3546,-4.2578 z m -16.87258,-7.4519 c -3.97521,-4.2314 -6.79018,-8.3434 -2.60496,-12.5286 4.21203,-4.212 7.39394,-4.2562 7.39394,-0.1026 0,4.1364 3.13954,6.6386 7.32567,5.8383 2.8953,-0.5534 -3.07482,0.3623 -3.07482,3.4671 0,8.4067 -3.06036,9.6906 -9.03983,3.3258 z m 57.06446,7.2053 c 3.17805,-3.1781 4.23608,-5.59 4.73645,-10.7975 1.86466,-19.4057 -21.72898,-27.3627 -32.65202,-11.0119 -3.59374,5.3795 -3.8419,10.6816 -0.79996,17.092 3.31804,6.9923 8.91477,9.9721 17.5317,9.3344 5.74902,-0.4255 7.86643,-1.2996 11.18383,-4.617 z m -16.23827,-5.421 c -2.87069,-1.155 -4.99622,-4.2716 -4.08892,-7.8865 0.89208,-3.5544 2.68961,-7.9038 5.61873,-7.9038 0.98364,0 -0.48008,1.1744 -0.24331,3.6301 0.38996,4.0444 2.36876,6.3741 7.03619,6.3741 4.32678,0 3.1235,-1.3444 3.12276,1.3037 -10e-4,4.6587 -2.53613,8.2499 -7.75539,8.1249 -2.41667,-0.058 -2.75796,-3.2674 -3.69006,-3.6425 z m -12.03721,-21.4301 c 0,-1.2968 -3.58192,-2.7945 -7.64665,-2.823 -4.98924,-0.035 0.0585,3.2966 5.97998,3.8462 0.91667,0.085 1.66667,-0.3754 1.66667,-1.0232 z"
         id="path44351" />
      <path
         style="fill:#d20185;stroke-width:1.33333"
         d="m 889.21772,1328.5244 c -40.68228,-7.1797 -74.07217,-23.6922 -99.22966,-49.0727 -20.12707,-20.3054 -28.80373,-40.1768 -31.44901,-72.025 -1.57708,-18.9874 -0.82841,-18.7772 2.20228,-23.681 2.27183,-3.6759 5.08023,-5.4817 11.62034,-8.451 11.25596,-5.1104 20.80506,-6.2836 32.98256,-3.3856 4.98047,1.1853 11.59973,2.9118 14.32815,3.3203 8.8375,1.3234 17.66097,9.4163 17.66097,18.1057 0,5.2408 4.54712,11.2257 19.3438,20.2395 16.06243,9.7848 20.99617,11.6644 66.83068,23.7416 23.2005,6.1133 44.09105,12.4083 46.92387,13.865 5.77338,2.9687 10.88897,6.9871 14.87591,13.6586 2.61066,4.3685 2.28031,4.6543 0.70916,12.7963 -5.65245,29.292 -34.13937,48.9927 -70.13238,52.7526 -8.03347,0.8392 -13.52243,0.4555 -26.66667,-1.8643 z m 47.44896,-21.187 c 14.28408,-2.9836 27.81646,-8.3539 33.66433,-13.3594 4.0785,-3.4911 5.78332,-6.3045 7.47614,-12.3376 2.77676,-9.8963 2.72408,-13.0085 -0.33414,-19.742 -3.5796,-7.8815 -11.48963,-10.4688 -20.35254,-6.6572 -1.50933,0.6491 -2.47379,0.1791 -3.03352,-1.4781 -1.6834,-4.9842 -7.20135,-7.3489 -19.53221,-8.3703 -7.94612,-0.6582 -12.6841,-1.6999 -14.27336,-3.1382 -5.31788,-4.8126 -12.66471,-6.662 -27.12594,-6.8283 l -14.17789,-0.1631 -8.6832,-8.1227 c -5.41591,-5.0663 -12.62365,-10.0501 -19.15543,-13.2449 -5.75973,-2.8172 -11.47814,-6.3332 -12.70757,-7.8133 -2.22157,-2.6745 -2.25309,-2.6685 -5.11773,0.9733 -6.22371,7.9121 -18.90286,10.1425 -27.48956,4.8356 -2.46988,-1.5264 -4.50979,-3.1764 -4.53311,-3.6666 -0.0233,-0.4902 -0.88591,-2.0048 -1.91684,-3.3657 -1.77927,-2.3488 -2.08144,-2.2387 -5.95147,2.169 -2.24236,2.5539 -5.85472,5.3798 -8.02745,6.2798 -4.05238,1.6786 -13.41839,1.3476 -17.92808,-0.6335 -2.26318,-0.9942 -2.42959,-0.6989 -1.56279,2.7732 0.53357,2.1373 1.93692,4.9586 3.11855,6.2697 1.46602,1.6266 2.04217,4.3857 1.8139,8.6865 -0.40953,7.7161 3.08978,13.0379 19.07466,29.009 23.42185,23.4018 47.66619,35.358 94.08859,46.4005 16.5912,3.9465 38.09161,4.5688 52.66666,1.5243 z M 789.41695,1207.2532 c 14.22967,-13.6329 -0.0941,-36.6857 -18.453,-29.6983 -10.7032,4.0736 -14.71135,19.1203 -7.40602,27.8022 4.62402,5.4953 7.71071,6.7204 15.50442,6.1539 4.82189,-0.3505 7.36984,-1.3982 10.3546,-4.2578 z m -14.15448,-7.8924 c -3.97521,-4.2314 -9.50828,-7.9029 -5.32306,-12.0881 4.21203,-4.212 7.39394,-4.2562 7.39394,-0.1026 0,4.1364 3.13954,6.6386 7.32567,5.8383 2.8953,-0.5534 -3.10618,0.4676 -3.10618,3.5724 0,8.4067 -0.3109,9.1448 -6.29037,2.78 z m 54.34636,7.6458 c 3.17805,-3.1781 4.23608,-5.59 4.73645,-10.7975 1.86466,-19.4057 -21.72898,-27.3627 -32.65202,-11.0119 -3.59374,5.3795 -3.8419,10.6816 -0.79996,17.092 3.31804,6.9923 8.91477,9.9721 17.5317,9.3344 5.74902,-0.4255 7.86643,-1.2996 11.18383,-4.617 z m -17.22479,-5.492 c -2.87069,-1.155 -4.33846,-4.3208 -3.43116,-7.9357 0.89208,-3.5544 3.54668,-9.5789 6.4758,-9.5789 0.98364,0 -0.85335,2.7112 -0.61658,5.1669 0.38996,4.0444 3.50767,5.2945 8.1751,5.2945 4.32678,0 1.82824,-0.7067 1.8275,1.9414 -10e-4,4.6587 -2.53482,8.9503 -7.75408,8.8253 -2.41667,-0.058 -3.74448,-3.3384 -4.67658,-3.7135 z m -12.85352,-18.2951 c 1.92278,-2.9345 1.97691,-3.6254 0.36407,-4.6462 -1.04201,-0.6595 -3.51695,-1.2083 -5.49985,-1.2196 l -4.89479,0.2712 4.22812,4.319 c 2.10356,2.1488 3.07479,4.6357 3.24121,4.6667 0.16643,0.031 1.31899,-1.4947 2.56124,-3.3907 z"
         id="path44349" />
      <path
         style="fill:#b31561;stroke-width:1.33333"
         d="m 889.21772,1328.5244 c -40.68228,-7.1797 -74.07217,-23.6922 -99.22966,-49.0727 -20.12707,-20.3054 -29.53316,-40.1246 -31.44901,-72.025 -1.13921,-18.9688 -0.85175,-20.1497 2.4064,-24.3215 2.65709,-3.4021 4.51375,-5.6787 10.91939,-8.7241 11.16424,-5.3078 21.49942,-5.5213 33.67692,-2.6233 4.98047,1.1853 11.74106,2.3607 14.46948,2.7692 8.8375,1.3234 17.32211,10.1187 17.32211,18.8081 0,5.2408 5.9632,10.9854 20.75988,19.9992 16.06243,9.7848 19.25396,12.7166 65.08847,24.7938 23.2005,6.1133 44.50051,12.3068 47.33333,13.7635 5.77338,2.9687 8.27752,3.9886 12.26446,10.6601 2.61066,4.3685 6.24577,7.2837 3.98808,15.4257 -7.97147,28.7476 -34.89017,48.6514 -70.88318,52.4113 -8.03347,0.8392 -13.52243,0.4555 -26.66667,-1.8643 z m 41.84235,-2.6259 c 16.97351,-4.3983 32.18319,-12.6116 39.34387,-23.3334 l 11.99896,-14.9755 -18.7653,12.9703 c -7.90699,5.4651 -56.94502,15.6107 -80.97092,8.1184 -3.3,-1.0291 -9.94249,-3.8618 -14.70915,-4.7637 -4.76667,-0.902 -13.62385,-3.8859 -20.95718,-6.7263 -7.33334,-2.8405 -12.80232,-5.2714 -13.53565,-5.4463 -0.73333,-0.1749 -3.92857,-1.246 -5.76191,-2.3695 -9.48793,-5.8146 -15.61204,-10.1727 -16.11675,-10.1727 -2.076,0 -34.21203,-31.5349 -39.91255,-38.187 l -6.69161,-7.8086 1.554,5.72 c 10.73567,39.5158 49.77405,65.0118 90.52766,78.7188 31.43367,10.5724 54.49652,13.3084 73.99653,8.2555 z m 5.60661,-18.5611 c 14.28408,-2.9836 27.81646,-8.3539 33.66433,-13.3594 4.0785,-3.4911 5.78332,-6.3045 7.47614,-12.3376 2.77676,-9.8963 2.72408,-13.0085 -0.33414,-19.742 -3.5796,-7.8815 -11.48963,-10.4688 -20.35254,-6.6572 -1.50933,0.6491 -2.47379,0.1791 -3.03352,-1.4781 -1.6834,-4.9842 -7.20135,-7.3489 -19.53221,-8.3703 -7.94612,-0.6582 -12.6841,-1.6999 -14.27336,-3.1382 -5.31788,-4.8126 -12.66471,-6.662 -27.12594,-6.8283 l -14.17789,-0.1631 -8.6832,-8.1227 c -5.41591,-5.0663 -12.62365,-10.0501 -19.15543,-13.2449 -5.75973,-2.8172 -11.47814,-6.3332 -12.70757,-7.8133 -2.22157,-2.6745 -2.25309,-2.6685 -5.11773,0.9733 -6.22371,7.9121 -18.90286,10.1425 -27.48956,4.8356 -2.46988,-1.5264 -4.50979,-3.1764 -4.53311,-3.6666 -0.0233,-0.4902 -0.88591,-2.0048 -1.91684,-3.3657 -1.77927,-2.3488 -2.08144,-2.2387 -5.95147,2.169 -2.24236,2.5539 -5.85472,5.3798 -8.02745,6.2798 -4.05238,1.6786 -13.41839,1.3476 -17.92808,-0.6335 -2.26318,-0.9942 -2.42959,-0.6989 -1.56279,2.7732 0.53357,2.1373 1.93692,4.9586 3.11855,6.2697 1.46602,1.6266 2.04217,4.3857 1.8139,8.6865 -0.40953,7.7161 3.08978,13.0379 19.07466,29.009 23.42185,23.4018 47.66619,35.358 94.08859,46.4005 16.5912,3.9465 38.09161,4.5688 52.66666,1.5243 z M 789.41695,1207.2532 c 14.22967,-13.6329 -0.0941,-36.6857 -18.453,-29.6983 -10.7032,4.0736 -14.71135,19.1203 -7.40602,27.8022 4.62402,5.4953 7.71071,6.7204 15.50442,6.1539 4.82189,-0.3505 7.36984,-1.3982 10.3546,-4.2578 z m -14.10675,-8.1674 c -3.97521,-4.2314 -9.55601,-7.6279 -5.37079,-11.8131 4.21203,-4.212 7.39394,-4.2562 7.39394,-0.1026 0,4.1364 3.13954,6.6386 7.32567,5.8383 2.8953,-0.5534 -1.2601,0.3642 -1.2601,3.469 0,8.4067 -2.10925,8.9732 -8.08872,2.6084 z m 54.29863,7.9208 c 3.17805,-3.1781 4.23608,-5.59 4.73645,-10.7975 1.86466,-19.4057 -21.72898,-27.3627 -32.65202,-11.0119 -3.59374,5.3795 -3.8419,10.6816 -0.79996,17.092 3.31804,6.9923 8.91477,9.9721 17.5317,9.3344 5.74902,-0.4255 7.86643,-1.2996 11.18383,-4.617 z m -16.32047,-5.817 c -2.87069,-1.155 -5.56851,-4.226 -4.66121,-7.8409 0.89208,-3.5544 3.87241,-9.3487 6.80153,-9.3487 0.98364,0 -0.66954,2.2249 -0.43277,4.6806 0.38996,4.0444 2.78191,5.6966 7.44934,5.6966 4.32678,0 3.70248,-1.3759 3.70174,1.2722 -10e-4,4.6587 -3.86711,9.7037 -9.08637,9.5787 -2.41667,-0.058 -2.84016,-3.6634 -3.77226,-4.0385 z m -13.75784,-17.9701 c 1.92278,-2.9345 1.97691,-3.6254 0.36407,-4.6462 -1.04201,-0.6595 -3.51695,-1.2083 -5.49985,-1.2196 -3.10398,0.084 -4.89479,0.2712 -4.89479,0.2712 1.38273,2.6702 7.48758,10.8586 7.654,10.8896 0.16643,0.031 1.13432,-3.3986 2.37657,-5.2946 z"
         id="path44347" />
      <path
         style="fill:#1d0f16;stroke-width:1.33333"
         d="m 885.18673,1329.0074 c -57.74294,-12.3254 -101.96154,-42.1182 -118.93842,-82.3719 -7.11267,-16.8648 -8.74204,-25.326 -8.57358,-53.1958 0.0358,-5.9193 0.7633,-8.9901 4.28569,-12.8262 0.32687,-0.356 0.97518,-0.9484 1.34927,-1.3217 5.68983,-5.6774 20.38376,-9.9585 29.95202,-9.9585 3.65481,0 9.44464,0.9505 12.86629,2.1122 3.42164,1.1616 8.48261,2.3318 11.25446,2.4706 11.2208,0.562 20.82611,10.0356 20.60815,19.5443 -0.0716,3.1243 2.34002,4.9139 9.5627,10.829 9.05278,7.4139 22.55074,15.2127 33.62689,19.0235 4.0672,1.3993 25.63142,8.051 47.34352,13.7231 43.75131,11.4298 49.92545,14.2005 56.74487,24.8448 5.04684,7.8776 4.9842,13.5066 -1.91956,27.6469 -15.78358,32.328 -54.84362,48.7263 -98.1623,39.4797 z m 50.14662,-5.0388 c 5.13333,-1.6164 12.32965,-4.4549 15.99183,-6.3077 6.88122,-3.4814 22.90101,-18.4599 26.01881,-24.3276 1.61647,-3.0422 1.34075,-2.9555 -3.1568,0.9918 -6.5973,5.7903 -13.02974,8.9294 -27.09071,13.2206 -10.51278,3.2083 -13.97664,5.0742 -32.44656,5.1625 -17.46731,-0.2537 -21.91358,-1.696 -37.8836,-5.7537 -24.04317,-6.109 -35.32885,-10.0957 -50.04232,-17.678 -23.16632,-11.9381 -43.32288,-29.4541 -56.83476,-49.3891 -6.11931,-9.0283 -4.92344,-4.5805 3.23344,12.0262 16.95231,34.5133 58.59468,61.6886 112.43344,73.3726 16.1386,3.5023 36.15264,2.9726 49.77723,-1.3176 z m -3.96124,-16.0658 c 9.52549,-0.6127 28.89434,-7.4908 36.34554,-12.4139 6.74454,-4.4562 13.8054,-13.3297 16.22925,-21.0739 1.8824,-6.0144 -0.0736,-10.5754 -7.23009,-16.8588 -7.26971,-6.3829 -10.14319,-7.482 -38.76435,-14.8273 -57.15759,-14.6688 -61.19656,-15.8646 -71.87587,-21.2795 -5.93535,-3.0095 -15.0118,-8.6871 -20.16989,-12.617 l -9.04895,-6.3221 -2.55643,3.9875 c -4.19191,6.5386 -12.01627,8.921 -20.91367,8.1832 -6.74157,-0.5591 -9.8314,-3.3146 -14.58046,-9.0377 l -1.74895,-2.1077 -4.04359,4.6045 c -6.50646,7.409 -18.55291,10.1082 -27.17644,4.0588 l -2.80182,-1.9654 -0.36971,3.0606 c -0.63968,5.2956 5.58971,20.3418 9.88483,26.5397 6.7081,9.6798 22.89634,25.2707 33.46895,33.1146 18.87395,14.0029 37.31092,22.1257 67.99926,29.4636 28.84109,6.8963 36.08789,6.8584 57.35239,5.4908 z M 829.5447,1205.9443 c 3.62504,-3.9464 4.64269,-6.3425 4.63852,-11.657 -0.007,-7.9004 -2.94407,-13.0791 -9.2273,-16.0607 -6.19221,-2.9384 -11.41647,-2.0004 -16.72671,1.2373 -8.5121,5.1898 -10.34987,12.6408 -6.63698,21.5232 2.1878,5.2339 3.35818,7.1339 9.68933,9.3104 6.90252,2.373 12.9855,1.3924 18.26314,-4.3532 z m -19.97894,-3.6969 c -4.22833,-4.5009 -3.96111,-12.1832 0.58762,-15.7613 4.53997,-3.5711 7.64076,-3.3717 6.53496,0.1124 -1.25046,3.9397 3.74216,8.3456 8.19162,7.2288 3.31079,-0.8309 3.45498,-0.665 2.58951,2.9797 -1.97993,8.3381 -12.24975,11.4587 -17.90371,5.4404 z m -20.44774,4.0447 c 6.45917,-6.4592 6.559,-12.6684 3.11067,-19.6338 -4.29625,-8.6782 -11.01745,-10.9639 -18.24863,-9.4689 -6.46653,1.3369 -13.07719,7.0807 -13.69518,16.9501 -0.37485,5.9864 2.4893,10.0656 6.15639,13.1537 3.03072,2.5523 6.10278,3.7382 11.13147,3.7656 5.75905,0.032 7.05009,-0.2715 11.54528,-4.7667 z m -19.17861,-4.2315 c -2.06298,-2.063 -3.27273,-4.7961 -3.27273,-7.3939 0,-2.5979 1.20975,-5.331 3.27273,-7.394 4.21203,-4.212 7.39394,-4.2562 7.39394,-0.1026 0,4.1364 3.13954,6.6386 7.32567,5.8383 2.81724,-0.5385 3.341,-0.1356 3.341,2.5704 0,4.5847 -5.6533,9.7545 -10.66667,9.7545 -2.59783,0 -5.33096,-1.2097 -7.39394,-3.2727 z m 28.72727,-16.9032 c 0.48959,-0.634 2.08575,-3.4763 4.635,-5.8806 l 4.63502,-4.3714 -4.16731,-1.4527 c -4.50173,-1.5693 -18.78409,-1.9936 -20.17827,-0.5994 -0.46935,0.4694 1.08066,1.876 3.44444,3.1259 2.36379,1.2499 5.49779,4.1427 6.96446,6.4286 2.74252,4.2744 3.04175,4.8537 4.66666,2.7496 z"
         id="path44345" />
      <ellipse
         style="fill:#d37901;fill-opacity:1;stroke-width:9.44882;stroke-linecap:round;paint-order:fill markers stroke"
         id="path59598"
         cx="812.05261"
         cy="1249.2655"
         rx="2.9695041"
         ry="2.9423497" />
      <ellipse
         style="fill:#d37901;fill-opacity:1;stroke-width:8.10463;stroke-linecap:round;paint-order:fill markers stroke"
         id="path59600"
         cx="864.47479"
         cy="1238.3481"
         rx="3.777848"
         ry="2.3696899" />
      <ellipse
         style="fill:#d37901;fill-opacity:1;stroke-width:7.75085;stroke-linecap:round;paint-order:fill markers stroke"
         id="path59602"
         cx="862.92999"
         cy="1286.9097"
         rx="2.9002924"
         ry="2.1690996" />
      <ellipse
         style="fill:#d37901;fill-opacity:1;stroke-width:9.44882;stroke-linecap:round;paint-order:fill markers stroke"
         id="path59604"
         cx="910.45172"
         cy="1247.386"
         rx="2.197006"
         ry="2.3670373" />
      <ellipse
         style="fill:#d37901;fill-opacity:1;stroke-width:8.70489;stroke-linecap:round;paint-order:fill markers stroke"
         id="path59606"
         cx="912.82568"
         cy="1284.2214"
         rx="4.4576688"
         ry="3.7807288" />
      <ellipse
         style="fill:#d37901;fill-opacity:1;stroke-width:9.44882;stroke-linecap:round;paint-order:fill markers stroke"
         id="path59608"
         cx="965.03021"
         cy="1267.6571"
         rx="2.1588671"
         ry="2.0696516" />
      <path
         style="fill:#f6fbfe;fill-opacity:1;stroke-width:5.21978;stroke-linecap:round;paint-order:fill markers stroke"
         d="m 885.71155,1086.524 c -2.12881,-0.4812 -4.88586,-1.9053 -6.8886,-3.7539 -2.57487,-2.3767 -4.21421,-5.4662 -4.96013,-8.2729 -1.27918,-4.8132 0.36066,-11.7775 4.06413,-15.8673 3.31168,-3.6572 7.77477,-5.798 13.1846,-5.8264 3.59349,-0.019 4.59246,0.2984 7.13803,1.7203 3.40791,1.9037 5.75178,4.6026 7.81098,9.1277 2.15265,4.7305 2.513,9.1141 0.66949,12.8484 -0.4974,1.0076 -1.28361,2.2976 -2.27007,3.5659 -0.77182,0.9924 -1.69487,1.9617 -2.50829,2.8372 -0.8905,0.9585 -1.84811,1.7969 -2.76183,2.4068 -0.56349,0.3761 -1.33812,0.7931 -1.57071,0.9227 -0.95673,0.5329 -3.60038,1.0745 -6.1018,0.9138 -2.03108,-0.1304 -4.05003,-0.2255 -5.17317,-0.4794 z m 9.10253,-6.2313 c 0.98172,-0.471 1.87826,-1.1212 2.69498,-1.8141 2.36595,-2.0072 3.91115,-4.7321 3.73243,-7.3189 -0.006,-1.2104 -0.21438,-1.7044 -0.55272,-1.9825 -0.26034,-0.2139 -0.51963,-0.3475 -1.29942,-0.2891 -0.64446,0.051 -1.33699,0.2038 -1.98974,0.2816 -0.56213,0.067 -1.10091,0.063 -1.48235,0.062 -1.46783,-0.01 -2.34887,-0.2094 -3.52682,-1.3958 -0.43543,-0.4386 -1.16726,-1.4431 -1.5511,-2.5687 -0.35644,-1.0453 -0.20639,-2.2632 -0.33555,-3.0567 -0.15354,-0.9433 -0.49161,-1.4108 -0.85177,-1.6798 -0.43872,-0.3277 -0.86381,-0.3523 -1.27352,-0.3306 -0.74625,0.039 -1.16423,0.07 -3.12695,1.4338 -1.34889,0.9374 -2.22197,1.8902 -3.13691,3.0134 -0.56278,0.6908 -0.9508,1.4672 -1.30144,2.28 -0.57579,1.3348 -0.92139,2.8031 -0.81735,4.4129 0.13659,2.1132 0.96382,3.8901 2.09676,5.4081 1.3848,1.8554 3.19435,3.2868 5.24425,4.0128 2.35644,0.8346 4.55203,0.9352 7.15527,-0.3139 z"
         id="path62652"
         transform="translate(-113.28435,123.94588)" />
      <path
         style="fill:#f6fbfe;fill-opacity:1;stroke-width:5.21978;stroke-linecap:round;paint-order:fill markers stroke"
         d="m 926.52608,1087.33 c -6.80073,-1.8324 -8.95545,-4.0768 -11.40941,-9.292 -2.41513,-5.1325 -2.50497,-10.2757 -1.33749,-14.2121 1.79081,-6.0379 10.6664,-12.0032 17.36995,-11.4463 6.10677,0.05 11.85892,3.3614 14.48353,8.7735 1.32835,2.7392 2.04971,4.1856 2.03906,8.4999 -0.014,5.6622 -0.94303,8.6196 -4.49264,12.6234 -4.00304,4.5152 -11.16421,6.5324 -16.653,5.0536 z m 8.59796,-7.2244 c 1.98176,-0.9928 3.93767,-3.4416 4.98585,-5.5927 0.76377,-1.5675 0.87687,-2.9347 0.93581,-3.2354 0.0944,-0.4816 0.29321,-1.0809 -0.0312,-1.517 -0.3244,-0.4362 -1.49264,-0.1612 -1.95845,-0.073 -0.46581,0.088 -1.70798,0.5546 -3.19239,0.3731 -1.26141,-0.1542 -2.38307,-0.6189 -3.81113,-1.7831 -1.44287,-1.1763 -2.55571,-3.2097 -2.22624,-5.0213 0.11932,-0.6561 0.27691,-0.9514 0.32208,-1.4396 0.046,-0.4976 -0.0276,-0.7134 -0.1,-0.9336 -0.17965,-0.5464 -0.55075,-0.8413 -1.33539,-0.8441 -2.20442,-0.01 -6.75414,3.3112 -7.87159,5.8145 -0.86744,1.9432 -1.01942,3.9068 -0.92407,5.7362 0.16093,3.0878 2.01377,6.634 5.30005,8.4583 4.09866,2.2754 9.50139,0.2594 9.90666,0.058 z"
         id="path62691"
         transform="translate(-113.28435,123.94588)" />
    </g>
  </g>
</svg>
