<?xml version="1.0" encoding="UTF-8" standalone="no"?>
<!-- Created with Inkscape (http://www.inkscape.org/) -->

<svg
   version="1.1"
   id="svg2792"
   width="162.34224"
   height="208.2545"
   viewBox="0 0 162.34223 208.25451"
   xmlns="http://www.w3.org/2000/svg"
   xmlns:svg="http://www.w3.org/2000/svg">
  <defs
     id="defs2796" />
  <g
     id="g2798"
     transform="translate(-968.59665,-1059.0558)">
    <g
       id="g3217"
       transform="translate(174.38073,-85.829135)">
      <path
         style="fill:#cac854;stroke-width:1.33333"
         d="m 834.00002,1351.3517 c -4.97904,-2.3367 -8.18462,-5.198 -13.46435,-12.0184 -4.32433,-5.5863 -8.53565,-16.2566 -8.53565,-21.6271 0,-7.2656 4.44386,-23.7773 8.66065,-32.1795 5.15103,-10.2638 19.34619,-25.7383 32.25972,-35.1671 l 8.25371,-6.0264 -4.92038,-2.1207 c -2.7062,-1.1664 -8.22037,-3.0993 -12.2537,-4.2954 -18.11403,-5.3716 -31.40695,-12.2808 -38.77018,-20.1515 -6.85722,-7.3298 -9.39086,-14.9059 -10.17734,-30.4323 -0.51444,-10.1558 -0.13478,-15.2398 1.59312,-21.3333 1.24768,-4.4 2.58902,-9.7052 2.98077,-11.7893 0.44189,-2.3508 2.29295,-4.753 4.87628,-6.3283 4.74811,-2.8953 11.87307,-3.3503 13.81691,-0.8824 2.31237,2.9358 2.99208,8.4291 1.6225,13.113 -2.03856,6.9719 -4.00484,22.172 -3.15473,24.3873 0.62609,1.6316 2.5698,1.199 11.18897,-2.4902 5.7372,-2.4556 15.13956,-5.7538 20.89415,-7.3294 5.75459,-1.5756 16.31383,-4.6617 23.46499,-6.8581 l 13.00209,-3.9934 -0.87161,-5.4508 c -0.70475,-4.4072 -0.40107,-5.7949 1.58606,-7.248 1.35174,-0.9884 4.32124,-1.7971 6.59892,-1.7971 6.36484,0 13.26651,7.9388 18.06071,20.7748 5.39771,14.4518 7.14775,24.358 6.17579,34.9585 -0.62382,6.8035 -2.17831,11.6355 -6.51992,20.2667 -3.13546,6.2334 -5.86423,11.6736 -6.06396,12.0895 -0.19975,0.4159 2.50025,2.6528 6,4.9711 7.87264,5.2148 19.94802,16.5099 25.23696,23.6061 5.7535,7.7195 12.04224,19.4525 15.92921,29.7194 2.38748,6.3061 3.60448,12.697 4.1228,21.6501 0.72113,12.4561 0.66275,12.7892 -3.00487,17.1479 -3.49241,4.1506 -4.13744,4.3907 -9.73317,3.6236 -9.03473,-1.2382 -10.84944,-3.5756 -10.88127,-14.0143 -0.0276,-9.0611 -1.95645,-25.2211 -3.15318,-26.4178 -0.80366,-0.8037 -9.3256,1.0466 -30.15334,6.5468 -27.3543,7.2238 -33.78448,9.2009 -47.60616,14.6373 l -13.60616,5.3517 3.44255,5.5443 c 1.8934,3.0494 4.21941,6.4443 5.16895,7.5443 0.94952,1.1 2.13061,3.6199 2.62465,5.5996 0.7016,2.8116 0.15384,4.344 -2.50219,7 -3.83257,3.8325 -6.40657,4.1321 -12.1883,1.4188 z m 19.33333,-49.0545 c 4.76667,-1.874 17.96667,-5.5968 29.33333,-8.2729 24.9888,-5.8832 38.68198,-9.8118 38.62231,-11.0808 -0.0244,-0.5189 -1.19512,-2.3238 -2.60161,-4.0109 l -2.55727,-3.0674 -10.39837,2.1167 c -5.71912,1.1642 -20.89839,5.1709 -33.73172,8.9038 -12.83334,3.7329 -25.33122,7.3521 -27.77307,8.0427 -3.39484,0.9602 -5.03541,2.5677 -6.97072,6.8303 -3.80188,8.3738 -3.42553,9.3815 2.41045,6.454 2.75,-1.3795 8.9,-4.0415 13.66667,-5.9155 z m 29.81553,-30.468 c 22.30451,-5.4143 22.46162,-5.478 19.8773,-8.0623 -2.58431,-2.5843 -2.6777,-2.5826 -11.81554,0.2154 -26.80242,8.2072 -31.61024,9.9321 -34.28877,12.3019 l -2.92185,2.585 3.33333,-0.7912 c 1.83333,-0.4352 13.45032,-3.2472 25.81553,-6.2488 z m 5.53993,-17.187 c 0,-0.7333 -2.87277,-2.6129 -3.19615,-2.6129 -0.32339,0 -6.62331,3.3147 -7.07654,4.048 -0.45323,0.7334 2.41955,2.613 3.19616,2.613 0.77662,0 7.07653,-3.3147 7.07653,-4.0481 z m -36.67523,-28.3089 c 7.37233,-5.0175 9.98644,-9.6421 9.98644,-17.6666 0,-5.1539 -0.77528,-8.1842 -2.78927,-10.9023 -4.39259,-5.9283 -10.98649,-9.7644 -16.78407,-9.7644 -7.58229,0 -13.70029,3.0725 -17.6283,8.8531 -4.22315,6.2149 -4.62318,15.012 -0.9929,21.8344 1.35968,2.5552 4.80968,5.986 7.66667,7.6239 6.84024,3.9215 14.7992,3.93 20.54143,0.022 z m -14.09543,-10.1751 c -4.11623,-1.9888 -6.6681,-7.2753 -5.64591,-12.3862 1.08508,-5.4254 3.29253,-7.2036 8.67745,-7.2036 3.23895,0 -2.84372,4.8188 -4.08816,6.0633 -0.88,0.88 2.38798,-0.4054 2.38798,1.1346 0,1.54 0.36009,3.5067 1.24009,4.3867 1.94079,1.9407 3.17775,4.3602 4.3168,2.5172 1.53295,-2.4804 5.45697,-4.618 5.45697,-1.1775 0,7.6155 -5.07443,6.7599 -12.34522,6.6655 -2.56667,-0.033 1.61147,0.7785 0,0 z m 44.74853,9.1383 c 0,-0.6671 -2.85635,-0.783 -3.95213,-0.3625 -1.09579,0.4205 -1.04301,2.1104 -0.62989,2.7788 0.86408,1.3981 4.58202,-0.6089 4.58202,-2.4163 z m 18.68747,-6.432 c 2.55523,-1.3578 5.99587,-4.4466 7.64587,-6.8638 2.24684,-3.2917 3,-6.3045 3,-12.0007 0,-5.6962 -0.75316,-8.7091 -3,-12.0007 -1.65,-2.4173 -5.1,-5.5429 -7.66667,-6.9459 -6.60689,-3.6114 -16.91157,-2.7086 -23.11812,2.0254 -5.73669,4.3756 -9.55884,13.5613 -8.34193,20.048 1.93608,10.3201 11.23177,18.2065 21.46005,18.2065 2.95621,0 7.46557,-1.111 10.0208,-2.4688 z m -9.6137,-8.4496 c -6.47796,-3.5904 -8.82097,-13.3464 -4.63917,-19.3168 2.68208,-3.8292 -2.6626,2.8654 1.13202,3.8577 2.48388,0.6495 2.59082,0.9779 0.87676,2.692 -3.89598,3.896 -4.20181,8.4572 1.30966,8.4572 1.54,0 3.52,-0.72 4.4,-1.6 1.24444,-1.2445 -4.93305,-13.1863 -4.95611,-9.6085 -0.0644,10.001 10.69736,20.4073 1.87684,15.5184 z m -23.69858,-19.8493 c 0.93429,-2.2556 3.55709,-5.9708 5.82843,-8.2561 2.98038,-2.9986 3.38756,-3.8518 1.46305,-3.0657 -1.46667,0.5991 -6.44135,2.4437 -11.05485,4.0991 -4.61351,1.6554 -8.49402,3.2304 -8.62335,3.5001 -0.55444,1.1561 6.53836,7.5546 8.51644,7.6829 1.24257,0.08 2.89828,-1.6137 3.87028,-3.9603 z"
         id="path3227" />
      <path
         style="fill:#72b434;stroke-width:1.33333"
         d="m 835.11642,1351.8717 c -5.06488,-1.4665 -15.89828,-13.0475 -19.21262,-20.5384 -3.74704,-8.4689 -4.17437,-13.9255 -1.97929,-25.2736 3.02229,-15.6246 9.80813,-28.1034 21.99561,-40.4488 5.58036,-5.6527 13.56282,-12.6147 17.73879,-15.4711 4.17597,-2.8564 7.31465,-5.6433 6.97484,-6.1931 -0.3398,-0.5498 -7.6714,-3.2446 -16.29245,-5.9885 -8.62104,-2.7438 -17.8754,-6.094 -20.56527,-7.4448 -7.76115,-3.8976 -16.65293,-10.2527 -20.13496,-14.3909 -1.76347,-2.0957 -4.57613,-8.0706 -6.25036,-13.2775 -2.54617,-7.9185 -2.9442,-11.4879 -2.43349,-21.8227 0.37056,-7.4989 1.79944,-16.1708 3.63508,-22.0614 2.42317,-7.776 3.77845,-10.0956 6.81657,-11.6666 4.66812,-2.414 9.33144,-2.5094 12.41584,-0.254 2.71825,1.9876 3.24112,10.2172 1.08876,17.1366 -2.24176,7.2068 -3.32835,20.7426 -1.74375,21.722 0.76834,0.4748 4.26948,-0.5668 7.78031,-2.3148 7.52097,-3.7446 12.98847,-5.5929 39.71665,-13.4268 l 20,-5.8618 -0.40909,-4.9591 c -0.50373,-6.1063 2.61296,-10.0031 8.00071,-10.0031 2.60705,0 5.56029,1.6098 9.17269,5 4.33776,4.071 6.23941,7.6014 10.23424,19 4.3618,12.4457 4.89953,15.4063 4.84343,26.6667 -0.0575,11.5228 -0.46371,13.5095 -4.49918,22 -2.43984,5.1333 -5.64245,10.681 -7.11692,12.3281 -1.47445,1.6471 -2.42848,3.159 -2.12002,3.3598 11.6346,7.5731 17.74977,12.5791 25.73394,21.0663 5.36743,5.7056 10.8336,12.67 12.14706,15.4765 1.31345,2.8064 3.40406,6.6026 4.6458,8.4359 1.24173,1.8334 3.92204,7.8334 5.95622,13.3334 2.55008,6.8948 3.91755,13.6089 4.4039,21.6223 0.57652,9.4992 0.29382,12.2504 -1.54755,15.0607 -3.36528,5.136 -7.31627,6.4802 -13.86488,4.7168 -3.04424,-0.8197 -6.06295,-2.52 -6.70823,-3.7785 -0.64526,-1.2584 -1.55201,-8.888 -2.01497,-16.9547 -0.46296,-8.0666 -1.19304,-15.9319 -1.6224,-17.4784 -0.76791,-2.7658 -1.24119,-2.6934 -29.00769,4.4381 -30.5982,7.8587 -39.13566,10.4886 -53.79868,16.5722 l -9.57164,3.9712 2.82597,4.9151 c 1.55427,2.7034 3.91151,6.3461 5.23829,8.095 3.42504,4.5147 3.15226,11.484 -0.55101,14.0779 -3.30341,2.3139 -3.91859,2.3519 -9.92025,0.614 z m 13.75499,-35.1227 c 13.86345,-5.5539 44.42285,-15.0055 68.21187,-20.388 5.31666,-1.2029 10.61561,-3.3308 10.60438,-3.8221 -0.0107,-0.4912 -0.27402,-2.6405 -0.87961,-3.5953 -0.87096,-1.3731 -8.3645,-0.9995 -32.52661,4.8772 -18.86237,4.5877 -37.39806,9.8321 -45.43573,13.2042 -13.62952,5.7181 -19.8677,12.1573 -18.58944,14.2255 0.41693,0.6747 2.11835,0.083 2.38384,0.083 0.26549,0 7.9234,-1.256 16.2313,-4.5843 z m 40.01581,-24.0923 c 16.46185,-4.0015 30.74376,-7.7363 31.73756,-8.2994 1.43312,-0.8122 1.17181,-1.8182 -1.26315,-4.8631 l -3.07005,-3.839 -11.81246,2.3393 c -6.49684,1.2866 -15.41244,3.4944 -19.81244,4.9062 -4.4,1.4117 -12.5,3.7724 -18,5.2459 -5.5,1.4735 -13.9,3.8569 -18.66666,5.2963 -8.09275,2.4439 -8.82119,2.9914 -11,8.2678 -1.28334,3.1079 -2.33334,6.3495 -2.33334,7.2036 0,0.9098 5.0296,-0.6286 12.14494,-3.7147 7.68497,-3.3331 23.13632,-7.9392 42.0756,-12.5429 z m -14.34258,-18.701 c 7.76712,-1.8056 17.88872,-4.2779 22.49246,-5.4939 l 8.37041,-2.211 -2.85692,-3.0411 c -2.11308,-2.2492 -3.42455,-2.7142 -5.03708,-1.7859 -1.19908,0.6902 -9.08016,3.3095 -17.51349,5.8204 -19.94346,5.9381 -21.51386,6.5768 -24.60286,10.0056 l -2.60285,2.8891 3.81415,-1.4501 c 2.09778,-0.7976 10.16906,-2.9275 17.93618,-4.7331 z m -0.9214,-9.3951 c 9.32612,-2.8005 16.76602,-5.2825 16.53312,-5.5154 -0.54868,-0.5487 -22.10318,4.4893 -31.15634,7.2822 -3.85,1.1878 -7,2.6904 -7,3.3393 0,1.394 -0.10454,1.4187 21.62322,-5.1061 z m 15.63505,-9.1185 c 0.45322,-0.7333 -3.01399,-2.6158 -3.74733,-2.6158 -0.73333,0 -8.19027,4.3065 -8.6435,5.0398 -0.45323,0.7334 -0.22404,1.3334 0.50929,1.3334 0.73334,0 11.42831,-3.024 11.88154,-3.7574 z m -37.74763,-28.2823 c 5.86838,-2.7847 11.16342,-11.6352 11.13409,-18.6103 -0.0288,-6.8558 -4.80351,-14.9802 -10.62393,-18.0774 -6.14048,-3.2674 -15.50348,-3.184 -21.03299,0.1874 -6.34159,3.8665 -9.64359,10.075 -9.64949,18.1433 -0.004,4.8697 0.84753,8.0518 2.99501,11.1979 5.89747,8.6398 17.57468,11.7159 27.17731,7.1591 z m -13.47612,-14.1775 c -1.85894,-1.4623 0.46585,-1.4216 -0.22095,-3.4427 -2.77648,-8.1705 -4.49447,-0.7836 3.87343,-0.7836 3.17866,0 3.73129,0.3555 2.48685,1.6 -0.88,0.88 -6.82376,-9.7905 -6.82376,-8.2505 0,1.54 2.44162,3.4225 3.32162,4.3025 1.94079,1.9407 1.53697,6.1155 2.67602,4.2725 0.45323,-0.7333 3.82833,1.7747 4.51838,1.7747 2.03404,0 -2.792,-2.729 -5.19366,1.3367 -4.04409,6.8461 1.42834,3.9621 -4.63793,-0.8096 z m 44.32689,12.6001 c 0.32477,-0.9743 -0.10915,-1.2619 -1.49497,-1.1435 -1.609,0.1374 -4.11397,1.5266 -2.88117,3.0911 1.08465,1.3765 3.71177,0.045 4.37614,-1.9476 z m 20.36932,-7.2536 c 6.17905,-4.1641 9.56004,-10.5112 9.67548,-18.1637 0.18481,-12.2507 -8.70639,-21.4984 -20.6696,-21.4984 -3.59464,0 -8.23444,0.8784 -10.31067,1.9521 -5.92826,3.0656 -10.50689,9.4544 -11.49424,16.0385 -0.72141,4.8107 -0.2816,7.2172 2.25259,12.325 4.21175,8.4891 10.19924,12.351 19.14904,12.351 4.99116,0 8.19048,-0.8434 11.3974,-3.0045 z m -19.03291,-15.6263 c -4.28294,-4.2829 -3.87694,1.9648 -3.1897,-3.1589 0.96349,-7.1834 5.77972,-11.6315 12.59402,-11.6315 3.77922,0 -3.21457,6.591 -4.45901,7.8355 -0.88,0.88 0.30279,2.6138 0.30279,4.1538 0,1.54 0.18897,0.4194 1.06897,1.2994 0.88,0.88 0.42722,4.0416 1.96722,4.0416 1.54,0 3.52,-0.72 4.4,-1.6 1.24444,-1.2445 4.01784,-4.78 4.01784,-1.3577 0,3.2261 4.39233,-2.7355 1.06843,0.5884 -6.21003,6.21 -11.44018,6.1598 -17.77056,-0.1706 z m -16.43675,18.1262 c 1.44183,-0.528 5.48953,-1.4326 6.03423,-3.7847 0.37153,-1.6043 -2.42096,-4.9042 -2.77825,-5.2615 -1.64049,-1.6404 -4.56569,0.076 -6.29514,2.1963 -2.05526,2.5202 -2.06194,8.7179 3.03916,6.8499 z m 1.54491,-14.2559 c -0.36988,-0.9167 -3.27401,0.9418 -3.27401,2.7751 0,1.8334 4.90722,3.9526 5.2771,3.0359 0.36988,-0.9167 -1.63321,-4.8944 -2.00309,-5.811 z m -46.86258,-13.1473 c 0.42192,-0.6827 0.15732,-1.6181 -0.58797,-2.0787 -0.7453,-0.4607 -1.35508,0.098 -1.35508,1.2412 0,2.342 0.80008,2.6868 1.94305,0.8375 z M 868.11479,1191 c 0.76017,-2.0167 3.29532,-5.7068 5.63367,-8.2004 3.21624,-3.4297 3.60218,-4.2946 1.58489,-3.5518 -6.91243,2.5452 -17.52009,6.3518 -19.19084,6.8868 -1.35388,0.4336 -0.81163,1.6608 2,4.5264 2.12163,2.1624 4.92236,3.9482 6.22384,3.9686 1.37699,0.022 2.94419,-1.496 3.74844,-3.6296 z m -23.26448,-7.9275 c -1.44108,-1.4411 -4.85029,-1.6434 -4.85029,-0.2879 0,0.6685 1.3,1.2154 2.88889,1.2154 1.58888,0 2.47152,-0.4174 1.9614,-0.9275 z m 7.75595,-3.1703 c -0.55375,-0.896 -7.27291,-0.027 -7.27291,0.9411 0,0.2928 1.75849,0.3984 3.90775,0.2346 2.14926,-0.1638 3.66358,-0.6928 3.36516,-1.1757 z m 12.98802,-2.3854 c 0.51019,-0.4676 -0.98981,-0.9114 -3.33333,-0.9863 -2.34351,-0.075 -3.44304,0.1477 -2.4434,0.4947 1.53449,0.5327 1.53449,0.827 0,1.8902 -1.24007,0.8592 -0.75847,0.9721 1.5158,0.3554 1.83333,-0.4971 3.75076,-1.2864 4.26093,-1.754 z m 7.73907,-2.8501 c 0,-0.7334 -0.26459,-1.3334 -0.58797,-1.3334 -0.32339,0 -0.9588,0.6 -1.41203,1.3334 -0.45323,0.7333 -0.18864,1.3333 0.58797,1.3333 0.77662,0 1.41203,-0.6 1.41203,-1.3333 z M 878.00002,1172 c 0.45322,-0.7333 0.18864,-1.3333 -0.58798,-1.3333 -0.77661,0 -1.41202,0.6 -1.41202,1.3333 0,0.7333 0.26458,1.3333 0.58797,1.3333 0.32339,0 0.9588,-0.6 1.41203,-1.3333 z m 8.66666,-3.4272 c 0,-0.3666 -1.2,-0.024 -2.66666,0.7605 -1.46667,0.785 -2.66667,1.7272 -2.66667,2.0938 0,0.3667 1.2,0.024 2.66667,-0.7604 1.46666,-0.785 2.66666,-1.7272 2.66666,-2.0939 z"
         id="path3225" />
      <path
         style="fill:#03448e;stroke-width:1.33333"
         d="m 836.15356,1352.3524 c -3.23428,-0.5951 -13.98345,-10.4642 -17.8759,-16.4124 -1.17811,-1.8004 -3.01815,-6.6407 -4.089,-10.7563 -1.69427,-6.5116 -1.70131,-8.8987 -0.0543,-18.3899 2.82151,-16.2589 9.75352,-28.9946 22.72956,-41.7595 5.75815,-5.6644 13.60739,-12.4911 17.44275,-15.1704 3.83534,-2.6792 6.70378,-5.3076 6.37428,-5.8407 -0.62672,-1.0141 -9.90975,-4.4209 -24.81628,-9.1075 -10.2324,-3.217 -23.96962,-10.8193 -30.25319,-16.7424 -3.22739,-3.0422 -5.29875,-7.0562 -7.82897,-15.1715 -2.94823,-9.456 -3.34443,-12.7018 -2.76902,-22.685 0.37219,-6.4573 1.99542,-15.8692 3.64168,-21.1156 2.27298,-7.2435 3.84494,-9.9822 6.69655,-11.6667 4.76051,-2.8121 9.85029,-2.8086 12.66752,0.01 2.42691,2.4269 2.33621,5.5905 -0.7484,26.1055 -0.96329,6.4067 -1.35099,12.0491 -0.86151,12.5386 0.48947,0.4894 4.9476,-0.9692 9.90695,-3.2416 4.95935,-2.2723 16.817,-6.3123 26.35033,-8.9779 9.53334,-2.6655 21.01771,-6.0296 25.52084,-7.4756 l 8.18751,-2.6291 -1.462,-4.7636 c -1.32032,-4.3021 -1.16268,-5.006 1.62688,-7.2648 1.69888,-1.3757 4.5312,-2.5013 6.29407,-2.5013 5.3195,0 12.16877,7.6839 16.63925,18.6667 9.02525,22.1728 9.37704,41.0695 1.05493,56.6667 -2.34769,4.4 -5.22694,9.1376 -6.39834,10.5281 -1.69135,2.0077 -1.76595,2.6551 -0.36236,3.1447 3.46128,1.2075 21.60749,16.6107 27.58086,23.4117 7.04832,8.0249 15.08635,22.091 20.06658,35.1154 3.93798,10.2986 5.74577,28.1782 3.44414,34.0637 -0.77366,1.9783 -2.78345,4.4852 -4.46618,5.5708 -2.30167,1.485 -4.52612,1.7002 -8.9805,0.8689 -3.25653,-0.6077 -6.61698,-2.0568 -7.46766,-3.2201 -0.85068,-1.1634 -1.91519,-8.8731 -2.36555,-17.1326 -0.45037,-8.2595 -1.18559,-16.2743 -1.63381,-17.8107 l -0.81496,-2.7934 -14.89851,3.621 c -34.33644,8.3453 -56.93728,15.1556 -70.62031,21.28 l -6.38845,2.8594 2.96777,4.9132 c 1.63227,2.7023 4.05708,6.3441 5.38846,8.0931 2.77942,3.651 3.21161,11.1941 0.75401,13.1604 -2.35455,1.8837 -6.46312,2.6957 -10.17979,2.0121 z m 12.85568,-36.9451 c 11.79462,-4.8307 40.86864,-13.2176 72.65744,-20.9591 5.0148,-1.2213 6.79275,-4.5106 3.18612,-5.8946 -2.90298,-1.114 -61.7021,13.9424 -74.6415,19.1131 -11.19108,4.472 -19.54462,9.794 -19.54462,12.4518 0,2.2273 3.75888,1.2619 18.34256,-4.7112 z m 38.55754,-22.1631 c 15.12269,-3.7023 29.20836,-7.4468 31.30148,-8.3212 l 3.80568,-1.5897 -3.09124,-3.8503 -3.09124,-3.8504 -12.50447,2.298 c -6.87747,1.2639 -14.63804,3.1342 -17.24572,4.1562 -2.60769,1.022 -10.14125,3.2973 -16.74125,5.0563 -6.6,1.7589 -16.30246,4.5153 -21.56102,6.1253 -8.9259,2.7327 -9.70089,3.2767 -11.66666,8.1897 -1.15811,2.8944 -2.10566,6.0888 -2.10566,7.0988 0,1.3235 3.54712,0.3817 12.70215,-3.3724 6.98619,-2.8648 25.07527,-8.2379 40.19795,-11.9403 z m -27.04354,-7.3162 c 11.81223,-3.3396 23.57678,-6.867 26.14344,-7.8386 2.56667,-0.9716 9.0803,-2.5042 14.47474,-3.4057 8.0638,-1.3475 9.48652,-1.9431 8,-3.349 -1.47739,-1.3972 -5.22207,-0.8791 -20.47474,2.8333 -23.66472,5.7596 -45.3229,12.2204 -51.33333,15.313 -4.16401,2.1425 -4.32308,2.4075 -1.47677,2.46 1.75444,0.032 12.85444,-2.6734 24.66666,-6.013 z m 20.77783,-13.3571 25.26123,-6.1643 -3.97458,-3.3443 c -2.90068,-2.4408 -4.43018,-2.9663 -5.66085,-1.9449 -0.92747,0.7697 -8.18228,3.2765 -16.12181,5.5706 -7.93954,2.2942 -16.01867,4.8545 -17.95362,5.6897 -4.09482,1.7674 -12.66337,8.5268 -9.16485,7.2298 1.29429,-0.4799 13.7208,-3.6463 27.61448,-7.0366 z m -7.41419,-8.0489 c 8.00444,-2.4871 15.38984,-4.522 16.41202,-4.522 1.02217,0 1.48668,-0.6016 1.03222,-1.337 -0.50768,-0.8214 -1.69476,-0.8792 -3.07869,-0.15 -1.23883,0.6529 -7.05241,2.2205 -12.91908,3.4836 -14.00971,3.0165 -23.33333,6.0196 -23.33333,7.5156 0,1.5097 3.63405,0.6812 21.88686,-4.9902 z m 13.26239,-7.8047 c 0.67335,0 0.0209,-2.6908 0.0209,-3.4242 0,-1.9305 -3.56328,0.108 -6.52718,2.523 -2.36837,1.9297 -2.88426,3.4164 -0.6493,2.7068 1.3433,-0.4265 6.48218,-1.8056 7.15554,-1.8056 z m -35.89732,-29.4347 c 6.43699,-3.0546 10.48908,-9.3572 11.07695,-17.2292 0.60436,-8.0926 -2.46631,-14.5971 -8.99487,-19.0534 -6.06388,-4.1391 -16.58573,-4.1371 -22.73141,0 -6.02438,4.0598 -9.71371,10.768 -9.71371,17.6621 0,11.23 9.18104,20.6667 20.10677,20.6667 3.26407,0 7.87938,-0.9228 10.25627,-2.0507 z m -16.3001,-13.0019 c -3.05667,-3.0567 -2.73856,-1.9995 -2.73856,-6.3432 0,-4.3437 -3.95379,-0.08 -0.89712,-3.1366 2.27134,-2.2714 5.31704,-3.8974 7.3,-3.8974 3.06888,0 -1.40064,0.7412 -2.12159,4.3459 -0.47442,2.3722 -0.1236,4.811 0.86326,6 1.93949,2.337 0.24001,0.387 2.32695,-1.7 2.16529,-2.1652 3.45274,0.7346 2.41793,5.446 -1.21129,5.515 2.78099,-0.9798 -3.00545,-0.9798 -3.3804,0 -1.32238,3.0881 -4.14542,0.2651 z m 47.3743,11.4075 c 0.30009,-0.9002 -0.57395,-1.1994 -2.235,-0.765 -1.50029,0.3923 -2.37957,1.2767 -1.95395,1.9654 0.9525,1.5412 3.52039,0.8053 4.18895,-1.2004 z m 20.35409,-7.3549 c 7.5715,-5.1531 9.942,-9.5244 9.942,-18.3333 0,-8.809 -2.3705,-13.1802 -9.942,-18.3333 -3.17685,-2.1622 -6.34585,-3 -11.34689,-3 -5.00104,0 -8.17004,0.8378 -11.34689,3 -7.57108,5.1528 -9.98644,9.587 -9.98644,18.3333 0,8.7463 2.41536,13.1805 9.98644,18.3333 3.17685,2.1622 6.34585,3 11.34689,3 5.00104,0 8.17004,-0.8378 11.34689,-3 z m -12.5174,-14.4216 c -4.01068,-1.6923 -0.47898,2.385 -0.47898,-1.4214 0,-7.2563 -7.99898,-11.5651 -1.06394,-11.6124 3.89526,-0.027 2.50568,-0.6854 1.12524,1.525 -2.06514,3.3068 -1.38513,13.3996 1.83282,14.2411 1.42724,0.3733 3.83381,-0.1891 5.34792,-1.2496 2.60087,-1.8217 2.3487,-7.4578 2.3487,-3.6272 0,8.1371 -1.6652,5.2867 -9.11176,2.1445 z m -20.33593,14.656 c 4.89935,-2.1455 3.3521,-7.2971 -1.81328,-6.4762 -2.03099,0.3228 -2.67067,1.3511 -3.87517,2.6667 -1.53746,1.6793 -1.3293,5.3908 -0.16255,5.2219 0.24769,-0.036 4.00757,-0.6051 5.851,-1.4124 z m -1.80941,-12.6081 c -1.83577,-2.3118 -1.35082,0.233 -1.35082,3.4524 0,1.51 1.34569,3.5138 2.047,3.0804 0.70131,-0.4334 1.98935,-3.1508 1.27225,-4.0539 z M 866.66668,1202 c 0,-1.8333 -0.5168,-3.3333 -1.14844,-3.3333 -0.63164,0 -0.86169,1.5 -0.51122,3.3333 0.35046,1.8333 0.86725,3.3333 1.14844,3.3333 0.28117,0 0.51122,-1.5 0.51122,-3.3333 z m 1.33334,-10.6902 c 0,-1.0613 2.63461,-4.6793 5.8547,-8.04 3.2201,-3.3606 4.8701,-5.7176 3.66667,-5.2376 -3.05825,1.2197 -20.49539,7.4591 -22.53976,8.0653 -1.01608,0.3012 0.29932,2.3181 3.31333,5.0802 3.88739,3.5626 5.52147,4.3008 7.35172,3.3213 1.29434,-0.6927 2.35334,-2.1279 2.35334,-3.1892 z m -46.05695,2.1157 c 0.42192,-0.6827 0.15732,-1.6181 -0.58797,-2.0787 -0.7453,-0.4607 -1.35508,0.098 -1.35508,1.2412 0,2.342 0.80008,2.6868 1.94305,0.8375 z m 22.90724,-10.353 c -1.44108,-1.4411 -4.85029,-1.6434 -4.85029,-0.2879 0,0.6685 1.3,1.2154 2.88889,1.2154 1.58888,0 2.47152,-0.4174 1.9614,-0.9275 z m 20.74397,-5.5557 c 0.51019,-0.4676 -0.98981,-0.9114 -3.33333,-0.9863 -2.34351,-0.075 -3.44304,0.1477 -2.4434,0.4947 1.53449,0.5327 1.53449,0.827 0,1.8902 -1.24007,0.8592 -0.75847,0.9721 1.5158,0.3554 1.83333,-0.4971 3.75076,-1.2864 4.26093,-1.754 z m 7.73907,-2.8501 c 0,-0.7334 -0.26459,-1.3334 -0.58797,-1.3334 -0.32339,0 -0.9588,0.6 -1.41203,1.3334 -0.45323,0.7333 -0.18864,1.3333 0.58797,1.3333 0.77662,0 1.41203,-0.6 1.41203,-1.3333 z m 16,0 c 1.1,-0.7109 1.4,-1.2925 0.66667,-1.2925 -0.73334,0 -2.23334,0.5816 -3.33334,1.2925 -1.1,0.7108 -1.4,1.2924 -0.66666,1.2924 0.73333,0 2.23333,-0.5816 3.33333,-1.2924 z M 878.00002,1172 c 0.45322,-0.7333 0.18864,-1.3333 -0.58798,-1.3333 -0.77661,0 -1.41202,0.6 -1.41202,1.3333 0,0.7333 0.26458,1.3333 0.58797,1.3333 0.32339,0 0.9588,-0.6 1.41203,-1.3333 z m 8.08245,-3.6953 c -0.44693,-0.447 -1.84832,0.2717 -3.1142,1.5971 -2.20029,2.3036 -2.16453,2.3394 0.81261,0.8126 1.7128,-0.8784 2.74852,-1.9628 2.30159,-2.4097 z"
         id="path3223" />
      <path
         style="fill:#951107;stroke-width:1.33333"
         d="m 836.89406,1352.2832 c -5.51959,-0.7034 -18.72743,-14.5734 -21.42966,-22.504 -4.2025,-12.3336 -2.16484,-28.3949 5.55398,-43.7775 5.37073,-10.7032 19.10441,-25.7034 31.98164,-34.9309 4.58333,-3.2844 8.33333,-6.448 8.33333,-7.0304 0,-0.5823 -5.25,-2.6875 -11.66667,-4.678 -6.41666,-1.9906 -14.36666,-4.567 -17.66666,-5.7255 -7.39415,-2.5955 -23.66954,-12.3556 -27.583,-16.5409 -1.59218,-1.7028 -4.50308,-7.896 -6.46868,-13.7627 -3.06632,-9.152 -3.49088,-12.276 -2.98988,-22 0.33096,-6.4235 1.9272,-15.7379 3.68461,-21.5004 2.41197,-7.9088 3.91524,-10.6482 6.76788,-12.3333 4.64143,-2.7418 9.7938,-2.7711 12.49383,-0.071 2.34648,2.3465 2.77885,10.5998 0.82457,15.7399 -0.69885,1.8382 -1.69012,7.9711 -2.2028,13.6287 -1.07405,11.8526 -2.27276,11.4356 13.66836,4.7546 5.24052,-2.1963 13.34052,-4.9656 18,-6.154 4.65947,-1.1884 15.15859,-4.2619 23.33135,-6.8301 l 14.85957,-4.6695 -1.46739,-4.7812 c -1.32668,-4.3227 -1.17117,-5.0211 1.62147,-7.2824 1.69888,-1.3757 4.47636,-2.5012 6.17219,-2.5012 3.74317,0 10.66432,5.5931 13.35161,10.7898 3.649,7.0564 8.46505,21.8234 9.70157,29.747 0.69594,4.4594 0.75316,11.9711 0.13214,17.3333 -0.79638,6.8755 -2.4099,11.9147 -5.9006,18.4281 -2.64248,4.9307 -5.37276,9.3161 -6.0673,9.7454 -2.39412,1.4796 -1.2439,3.0474 4.86036,6.6247 3.36774,1.9736 11.01774,8.4806 17,14.46 7.72606,7.7224 12.66868,14.1547 17.06235,22.205 3.40201,6.2333 7.51149,15.2333 9.13219,20 3.41194,10.035 4.92554,27.0211 2.87496,32.2636 -0.77382,1.9783 -2.78372,4.4852 -4.46646,5.5708 -2.30166,1.4851 -4.52612,1.7003 -8.98049,0.8689 -3.25653,-0.6077 -6.61795,-2.0581 -7.46981,-3.223 -0.85186,-1.1651 -1.88548,-9.1747 -2.29695,-17.7993 -0.41145,-8.6245 -1.13205,-16.6472 -1.60133,-17.828 -0.77775,-1.9571 -1.80916,-1.9245 -11.658,0.3688 -24.65438,5.7408 -55.82014,14.6536 -67.05292,19.1759 -6.6,2.6571 -12.49656,5.3062 -13.10348,5.8869 -0.60691,0.5806 1.3423,4.5791 4.3316,8.8855 6.73241,9.6988 7.30169,15.5391 1.77188,18.1776 -2.01667,0.9623 -5.36435,1.5332 -7.4393,1.2688 z m 113.75552,-20.9293 c 2.21286,-2.6663 1.87958,-16.7278 -0.63251,-26.6873 -1.10983,-4.4 -4.86768,-13.6044 -8.35079,-20.4543 -7.59605,-14.9384 -21.3789,-30.5308 -34.71961,-39.2778 -4.92065,-3.2263 -14.64665,-8.0822 -21.61332,-10.7908 -6.96667,-2.7086 -14.63703,-5.799 -17.04524,-6.8675 -5.59179,-2.4812 -8.86468,-2.4613 -10.96271,0.067 -0.91729,1.1053 -4.37861,2.8 -7.69182,3.7661 l -6.02404,1.7566 12.52857,4.3596 c 13.44684,4.6792 27.20155,10.3697 37.76219,15.6229 13.8363,6.8826 29.64976,22.5817 36.751,36.4852 2.9307,5.7381 5.34872,20.7217 5.34872,33.1443 0,6.1926 0.5569,9.5249 1.66666,9.9727 3.61063,1.4569 11.41052,0.7983 12.9829,-1.0963 z m -101.64034,-15.9466 c 11.79462,-4.8307 40.86864,-13.2176 72.65744,-20.9591 5.0148,-1.2213 6.79275,-4.5106 3.18612,-5.8946 -2.90298,-1.114 -61.7021,13.9424 -74.6415,19.1131 -11.19108,4.472 -19.54462,9.794 -19.54462,12.4518 0,2.2273 3.75888,1.2619 18.34256,-4.7112 z m -10.94256,-5.9599 c 3.24487,-3.1233 27.73248,-11.0352 51.93334,-16.7797 14.66666,-3.4813 28.07582,-7.0535 29.79813,-7.9382 l 3.13147,-1.6085 -3.30104,-3.8377 -3.30104,-3.8376 -9.16376,1.7204 c -8.83146,1.658 -37.83222,9.5855 -54.5911,14.9228 -4.45169,1.4178 -9.13102,2.5777 -10.39852,2.5777 -1.41884,0 -3.29308,2.1779 -4.87672,5.6667 -3.66482,8.0738 -3.25046,12.9833 0.76924,9.1141 z m 22.45656,-23.5194 c 11.81223,-3.3396 23.57678,-6.867 26.14344,-7.8386 2.56667,-0.9716 9.0803,-2.5042 14.47474,-3.4057 8.0638,-1.3475 9.48652,-1.9431 8,-3.349 -1.47739,-1.3972 -5.22207,-0.8791 -20.47474,2.8333 -23.66472,5.7596 -45.3229,12.2204 -51.33333,15.313 -4.16401,2.1425 -4.32308,2.4075 -1.47677,2.46 1.75444,0.032 12.85444,-2.6734 24.66666,-6.013 z m 21.42362,-13.3835 c 13.17076,-3.2965 24.11337,-6.1603 24.31693,-6.3638 0.20355,-0.2036 -1.45789,-1.7216 -3.69211,-3.3735 -2.79921,-2.0695 -4.55594,-2.5936 -5.65026,-1.6857 -0.87344,0.7247 -7.17403,2.888 -14.00132,4.8075 -16.45522,4.6262 -22.77218,7.1892 -27.58675,11.1929 -3.84709,3.1991 -3.87257,3.2898 -0.66667,2.3713 1.83334,-0.5252 14.10942,-3.6521 27.28018,-6.9487 z m -8.05998,-8.0225 c 8.00444,-2.4871 15.38984,-4.522 16.41202,-4.522 1.02217,0 1.48668,-0.6016 1.03222,-1.337 -0.50768,-0.8214 -1.69476,-0.8792 -3.07869,-0.15 -1.23883,0.6529 -7.05241,2.2205 -12.91908,3.4836 -14.00971,3.0165 -23.33333,6.0196 -23.33333,7.5156 0,1.5097 3.63405,0.6812 21.88686,-4.9902 z M 885.4424,1256 c 0.67335,0 1.22428,-0.6 1.22428,-1.3334 0,-2.1264 -3.50269,-1.5432 -5.50341,0.9164 -1.61085,1.9803 -1.53755,2.1399 0.61247,1.3333 1.3433,-0.504 2.9933,-0.9163 3.66666,-0.9163 z m -33.20689,-29.0379 c 1.96285,-1.2946 4.96285,-4.1259 6.66667,-6.292 2.46294,-3.1311 3.09784,-5.5845 3.09784,-11.9708 0,-6.2756 -0.67922,-8.9849 -3.10512,-12.3861 -4.01578,-5.6302 -9.76632,-8.5354 -16.89488,-8.5354 -10.08835,0 -17.95407,6.1484 -20.64359,16.1365 -2.2544,8.3722 1.85371,18.0171 9.71603,22.811 5.502,3.3548 16.2529,3.4751 21.16305,0.2368 z m -20.33805,-9.5262 c -3.01539,-3.0154 -3.89744,-5.1109 -3.89744,-9.259 0,-6.5145 4.14338,-11.8241 10.12062,-12.9691 3.97722,-0.7619 4.0995,-0.6454 3.51355,3.3469 -0.88616,6.0378 1.76087,8.5442 8.12236,7.691 l 1.3021,1.6281 -3.09768,1.4485 c -2.1436,1.0023 3.56805,6.3277 1.35466,8.3444 -5.58816,5.0914 -12.18329,5.0041 -17.41817,-0.2308 z m 50.42869,8.2523 c 0.30009,-0.9002 -0.57395,-1.1994 -2.235,-0.765 -1.50029,0.3923 -2.37957,1.2767 -1.95395,1.9654 0.9525,1.5412 3.52039,0.8053 4.18895,-1.2004 z m -61.91676,-6.4433 c -2.72451,-4.8747 -3.26648,-7.2989 -2.71856,-12.16 0.49381,-4.381 -0.0721,-7.7818 -2.03261,-12.2137 -3.30459,-7.4706 -3.45072,-21.0746 -0.35152,-32.7227 1.14897,-4.3183 1.73457,-8.9683 1.30133,-10.3333 -1.02209,-3.2204 -7.46891,-3.314 -10.23007,-0.1485 -1.11944,1.2833 -3.16242,5.6333 -4.53997,9.6666 -1.86819,5.4699 -2.49475,11.0603 -2.46569,22 0.0328,12.3598 0.5199,15.743 3.09676,21.5099 1.6818,3.7638 4.66426,8.3768 6.62772,10.251 3.92356,3.7454 12.37877,9.9447 13.80937,10.1249 0.49839,0.063 -0.62516,-2.6256 -2.49676,-5.9742 z m 86.48405,-4.4414 c 3.56654,-3.7451 5.14008,-6.7832 5.80307,-11.2043 0.52855,-3.5247 0.28099,-7.9707 -0.59092,-10.6126 -1.56752,-4.7497 -6.57379,-10.1948 -11.8922,-12.9348 -4.3454,-2.2387 -13.81116,-2.0064 -18.57257,0.4559 -12.39971,6.4121 -16.06507,22.5708 -7.44394,32.8164 5.91736,7.0324 13.43707,9.6201 22.4698,7.7324 3.55196,-0.7423 6.96778,-2.8308 10.22676,-6.253 z m -18.89342,-2.3623 c -3.83175,-1.4955 -7.86755,-6.1362 -8.72279,-10.0301 -1.78281,-8.117 4.80081,-15.7444 13.58991,-15.7444 2.85149,0 3.31065,0.3555 2.06621,1.6 -0.88,0.88 -1.6,3.2928 -1.6,5.3619 0,4.7588 4.81776,7.4547 9.16468,5.1283 2.5428,-1.3609 2.83532,-1.1708 2.83532,1.8418 0,1.8476 -1.65,5.1702 -3.66667,7.3836 -3.61874,3.9717 -9.7715,5.9791 -13.66666,4.4589 z m -18.00739,7.0504 c 4.5576,-1.7873 3.13529,-7.7667 -1.88982,-7.279 -2.04686,0.1986 -2.76184,1.2731 -3.87517,2.6667 -1.33584,1.6722 -2.26571,5.0187 -0.65295,4.7247 0.24621,-0.045 4.54442,0.6223 6.41794,-0.1124 z M 869.31294,1211 c -0.0107,-0.55 -0.60204,-1.9 -1.31292,-3 -1.04516,-1.6173 -1.2964,-1.4259 -1.31292,1 -0.0107,1.65 0.57958,3 1.31292,3 0.73333,0 1.32414,-0.45 1.31292,-1 z m -2.64626,-9 c 0,-1.8333 -0.5168,-3.3333 -1.14844,-3.3333 -0.63164,0 -0.86169,1.5 -0.51122,3.3333 0.35046,1.8333 0.86725,3.3333 1.14844,3.3333 0.28117,0 0.51122,-1.5 0.51122,-3.3333 z m 2.48622,-12.0031 c 0.89118,-2.4645 3.84636,-6.4404 6.56705,-8.8355 2.77187,-2.44 3.77432,-3.8934 2.28007,-3.3056 -3.63544,1.4301 -20.93208,7.6231 -23.01839,8.2417 -2.53252,0.7508 7.74713,9.6366 10.35833,8.9538 1.20595,-0.3154 2.92176,-2.5898 3.81294,-5.0544 z m 22.18045,-15.3302 c 1.04916,-1.6976 -2.03984,-1.6976 -4.66667,0 -1.62597,1.0507 -1.45366,1.2963 0.92131,1.3129 1.60672,0.011 3.29213,-0.5796 3.74536,-1.3129 z"
         id="path3221" />
      <path
         style="fill:#140e11;stroke-width:1.33333"
         d="m 814.05823,1330.3035 c -4.2025,-12.3336 -2.00715,-29.3951 5.71167,-44.7777 5.37073,-10.7032 18.59048,-25.7074 31.46771,-34.9349 4.58333,-3.2844 7.44584,-5.6678 7.47004,-6.2497 0.0625,-1.5027 -3.15437,-1.9125 -9.57104,-3.903 -6.41666,-1.9906 -14.25162,-5.2625 -17.55162,-6.421 -7.39415,-2.5955 -19.672,-8.3948 -26.47279,-15.0066 -4.00117,-3.89 -6.22199,-8.6177 -8.18759,-14.4844 -3.06632,-9.152 -2.93446,-14.9944 -2.43346,-24.7184 0.33096,-6.4235 1.61076,-14.3623 3.36817,-20.1248 2.41197,-7.9088 2.90215,-10.075 7.45463,-12.8149 4.61879,-2.7797 11.05624,-2.5518 13.75627,0.1483 2.34648,2.3465 1.79107,10.664 0.57562,16.0271 -0.54397,2.4002 -0.98818,7.0305 -1.50086,12.6881 -1.07405,11.8526 -3.31078,11.2488 12.63034,4.5678 5.24052,-2.1963 13.12879,-4.6837 17.78827,-5.8721 4.65947,-1.1884 14.15986,-4.8177 22.48749,-6.8277 0,0 11.93553,-2.9682 12.66275,-4.4357 0.72722,-1.4675 0.19779,-4.1479 0.0974,-5.3912 -0.10042,-1.2432 -0.58039,-4.7512 2.21225,-7.0125 1.69888,-1.3757 5.42392,-1.6551 7.11975,-1.6551 3.74317,0 10.44611,5.6238 13.1334,10.8205 3.649,7.0564 9.12904,21.7963 10.36556,29.7199 0.69594,4.4594 1.14285,12.4337 0.52183,17.7959 -0.79638,6.8755 -2.94097,11.9246 -6.43167,18.438 -2.64248,4.9307 -4.18518,8.5075 -4.55672,9.2346 -0.48022,0.9397 -1.85801,3.0393 4.24625,6.6166 3.36774,1.9736 10.41748,7.6942 16.39974,13.6736 7.72606,7.7224 12.68698,14.8464 17.08065,22.8967 3.40201,6.2333 7.51149,15.2333 9.13219,20 3.41194,10.035 4.55342,27.9181 2.50284,33.1606 -0.77382,1.9783 -3.34585,4.9765 -5.02859,6.0621 -2.30166,1.4851 -5.03073,1.6348 -9.4851,0.8034 -3.25653,-0.6077 -7.14058,-2.5576 -7.99244,-3.7225 -0.85186,-1.1651 -1.23779,-9.5717 -1.64926,-18.1963 -0.41145,-8.6245 -1.63006,-15.2793 -2.09934,-16.4601 -0.77775,-1.9571 -0.86761,-2.5161 -10.71645,-0.2228 -24.65438,5.7408 -53.96687,14.228 -65.19965,18.7503 -6.6,2.6571 -13.64318,5.3729 -14.2501,5.9536 -0.60691,0.5806 1.29852,3.9189 4.28782,8.2253 6.73241,9.6988 8.05287,16.6709 2.52306,19.3094 -2.01667,0.9623 -8.60507,2.0357 -11.9272,-0.6122 -7.44918,-3.3214 -17.23956,-13.1176 -19.94179,-21.0482 z m 29.94179,14.3766 c 0,-4.3575 -10.79816,-20.6291 -13.70851,-20.6572 -3.33307,-0.032 -4.28227,-3.4876 -1.94003,-7.0623 1.08791,-1.6604 2.42356,-5.7058 2.96811,-8.9897 0.54456,-3.284 1.57219,-7.0782 2.28361,-8.4315 1.00064,-1.9035 0.6637,-2.9017 -1.48817,-4.4089 -1.52992,-1.0716 -2.78168,-2.8043 -2.78168,-3.8503 0,-1.0461 3.15,-3.4913 7,-5.4338 3.85,-1.9426 8.97945,-5.2602 11.39879,-7.3726 3.4796,-3.0381 3.96718,-4.0062 2.33333,-4.6332 -3.06893,-1.1777 -2.55069,-6.8204 0.79061,-8.6086 1.57083,-0.8407 6.63808,-2.6101 11.26054,-3.932 8.07508,-2.3093 18.35509,-8.7915 17.11762,-10.7937 -0.32732,-0.5296 -3.22006,-1.9654 -6.42832,-3.1907 l -5.83318,-2.2277 -9.8197,7.2686 c -5.40082,3.9977 -13.9128,11.403 -18.9155,16.4561 -9.69244,9.79 -15.82012,20.2583 -19.00506,32.4675 -2.62586,10.066 -2.37812,22.2051 0.58612,28.7199 2.903,6.3801 13.98635,17.6644 17.99295,18.3189 4.40883,0.7204 6.18847,-0.326 6.18847,-3.6388 z m 106.64956,-13.3262 c 2.21286,-2.6663 1.87958,-16.7278 -0.63251,-26.6873 -1.10983,-4.4 -4.86768,-13.6044 -8.35079,-20.4543 -7.59605,-14.9384 -21.3789,-30.5308 -34.71961,-39.2778 -4.92065,-3.2263 -14.64665,-8.0822 -21.61332,-10.7908 -6.96667,-2.7086 -14.63703,-5.799 -17.04524,-6.8675 -5.59179,-2.4812 -8.86468,-2.4613 -10.96271,0.067 -0.91729,1.1053 -4.37861,2.8 -7.69182,3.7661 l -6.02404,1.7566 12.52857,4.3596 c 13.44684,4.6792 27.20155,10.3697 37.76219,15.6229 13.8363,6.8826 29.64976,22.5817 36.751,36.4852 2.9307,5.7381 5.34872,20.7217 5.34872,33.1443 0,6.1926 0.5569,9.5249 1.66666,9.9727 3.61063,1.4569 11.41052,0.7983 12.9829,-1.0963 z m -103.58955,-15.1727 c 15.21147,-6.3309 40.80107,-14.0796 74.97985,-22.0833 3.82806,-0.8964 5.94519,-4.3424 2.81292,-5.5443 -2.90298,-1.114 -61.7021,13.9424 -74.6415,19.1131 -11.19108,4.472 -19.54462,9.794 -19.54462,12.4518 0,2.2051 3.86498,1.2768 16.39335,-3.9373 z m -6.05239,-10.2745 c 3.37244,-1.4721 24.44387,-7.8451 48.64473,-13.5896 14.66666,-3.4813 27.02633,-7.1861 28.74864,-8.0708 0,0 2.29372,-0.5338 2.35899,-1.5061 0.0653,-0.9723 -0.94224,-2.1829 -1.68109,-3.136 -0.93083,-1.2007 -1.64073,-1.3322 -3.20699,-1.7687 -2.75147,-0.7669 -8.48155,0.5263 -8.48155,0.5263 -6.82006,1.2073 -37.86082,8.9294 -54.6197,14.2667 -4.45169,1.4178 -8.40735,2.5539 -9.62403,3.3069 -1.20649,0.7466 -2.73461,1.2017 -4.31825,4.6905 -3.66482,8.0738 -2.93413,7.5129 2.17925,5.2808 z m 19.5156,-19.9787 c 11.81223,-3.3396 23.57678,-6.867 26.14344,-7.8386 2.56667,-0.9716 9.0803,-2.5042 14.47474,-3.4057 8.0638,-1.3475 9.48652,-1.9431 8,-3.349 -1.47739,-1.3972 -5.22207,-0.8791 -20.47474,2.8333 -23.66472,5.7596 -45.3229,12.2204 -51.33333,15.313 -4.16401,2.1425 -4.32308,2.4075 -1.47677,2.46 1.75444,0.032 12.85444,-2.6734 24.66666,-6.013 z m 21.23808,-13.98 c 13.17076,-3.2965 21.40575,-5.8502 21.60931,-6.0537 0.20355,-0.2036 0.94927,-0.6129 -1.28495,-2.2648 -2.79921,-2.0695 -4.10405,-1.1375 -5.48822,-0.8001 -1.10265,0.2688 -7.79739,2.74 -14.62468,4.6595 -16.45522,4.6262 -19.50502,4.9314 -24.31959,8.9351 -3.84709,3.1991 -2.92007,2.2173 0.28583,1.2988 1.83334,-0.5252 10.65154,-2.4782 23.8223,-5.7748 z m -7.9657,-6.7805 c 9.64576,-3.0245 17.78773,-5.7245 18.09329,-6 2.58311,-2.3289 -7.13945,-0.4576 -29.88889,5.7526 -4.4,1.2011 -8.87858,2.9855 -9.95239,3.9652 -1.68301,1.5356 -1.52725,1.7813 1.12895,1.7813 1.69472,0 10.97329,-2.4746 20.61904,-5.4991 z M 885.4424,1256 c 0.67335,0 1.22428,-0.6 1.22428,-1.3334 0,-2.1264 -3.50269,-1.5432 -5.50341,0.9164 -1.61085,1.9803 -1.53755,2.1399 0.61247,1.3333 1.3433,-0.504 2.9933,-0.9163 3.66666,-0.9163 z m 16.19896,-23.6667 c 1.13007,-1.2833 3.69516,-5.6333 5.70024,-9.6666 3.59484,-7.2313 3.6016,-7.2929 0.48534,-4.4222 -4.02359,3.7065 -9.43499,5.7555 -15.20015,5.7555 -3.23039,0 -4.96061,0.7991 -6.02123,2.7809 -0.81854,1.5294 -1.28965,2.8988 -1.0469,3.0431 3.05389,1.815 10.24898,4.6911 11.90137,4.7574 1.16968,0.047 3.05128,-0.9647 4.18133,-2.2481 z m -50.93682,-6.072 c 1.96285,-1.2946 5.53843,-3.5909 7.24225,-5.757 2.46294,-3.1311 3.64599,-5.1212 3.64599,-11.5075 0,-6.2756 -1.00963,-8.2548 -3.43553,-11.656 -4.01578,-5.6302 -9.20984,-8.9219 -16.3384,-8.9219 -10.08835,0 -16.4937,5.6619 -19.18322,15.65 -2.2544,8.3722 1.37979,16.897 9.24211,21.6909 5.502,3.3548 13.91665,3.7398 18.8268,0.5015 z m -18.80708,-8.8254 c -3.01539,-3.0154 -3.89744,-5.1109 -3.89744,-9.259 0,-6.5145 4.14338,-11.8241 10.12062,-12.9691 3.97722,-0.7619 4.0995,-0.6454 3.51355,3.3469 -0.88616,6.0378 4.94162,8.1176 8.12236,7.691 3.18075,-0.4266 4.62063,-3.4447 4.68592,-1.2288 0.0653,2.2159 -0.29396,4.7572 -0.29396,4.7572 -0.44469,2.3242 -2.61949,5.8759 -4.83288,7.8926 -5.58816,5.0914 -12.18329,5.0041 -17.41817,-0.2308 z m 50.22912,8.3589 c 0.286,-0.8682 -0.32393,-1.0963 -1.93964,-0.765 -1.51913,0.3115 -2.39406,1.0302 -1.96844,1.7189 0.9525,1.5412 3.24656,1.0541 3.90808,-0.9539 z m -61.71719,-6.5499 c -2.72451,-4.8747 -3.26648,-7.2989 -2.71856,-12.16 0.49381,-4.381 -0.0721,-7.7818 -2.03261,-12.2137 -3.30459,-7.4706 -3.45072,-21.0746 -0.35152,-32.7227 1.14897,-4.3183 1.73457,-8.9683 1.30133,-10.3333 -1.02209,-3.2204 -7.46891,-3.314 -10.23007,-0.1485 -1.11944,1.2833 -3.16242,5.6333 -4.53997,9.6666 -1.86819,5.4699 -2.49475,11.0603 -2.46569,22 0.0328,12.3598 0.5199,15.743 3.09676,21.5099 1.6818,3.7638 4.66426,8.3768 6.62772,10.251 3.92356,3.7454 12.37877,9.9447 13.80937,10.1249 0.49839,0.063 -0.62516,-2.6256 -2.49676,-5.9742 z m 85.70412,-5.0396 c 3.56654,-3.7451 4.33548,-5.9691 4.99847,-10.3902 0.52855,-3.5247 -0.18687,-7.8738 -1.05878,-10.5157 -1.56752,-4.7497 -5.64212,-9.5732 -10.96053,-12.3132 -4.3454,-2.2387 -11.89787,-1.7659 -16.65928,0.6964 -12.39971,6.4121 -15.71581,20.9169 -7.09468,31.1625 5.91736,7.0324 11.67738,9.1201 20.71011,7.2324 3.55196,-0.7423 6.80571,-2.45 10.06469,-5.8722 z m -18.11349,-1.7641 c -3.83175,-1.4955 -7.86755,-6.1362 -8.72279,-10.0301 -1.78281,-8.117 4.80081,-15.7444 13.58991,-15.7444 2.85149,0 3.31065,0.3555 2.06621,1.6 -0.88,0.88 -1.6,3.2928 -1.6,5.3619 0,4.7588 4.81776,7.4547 9.16468,5.1283 2.5428,-1.3609 2.83532,-1.1708 2.83532,1.8418 0,1.8476 -1.65,5.1702 -3.66667,7.3836 -3.61874,3.9717 -9.7715,5.9791 -13.66666,4.4589 z m -19.42014,4.9251 c 4.50829,-1.7234 5.17875,-4.3732 0.41518,-3.8594 -1.55221,0.1674 -2.32562,0.4927 -3.08061,1.0142 -0.75499,0.5215 -1.73752,1.1264 -2.18265,2.2864 -0.94631,2.4661 0.26775,2.3003 4.84808,0.5588 z M 866.66668,1202 c 0,-1.8333 -0.5168,-3.3333 -1.14844,-3.3333 -0.63164,0 -0.86169,1.5 -0.51122,3.3333 0.35046,1.8333 0.86725,3.3333 1.14844,3.3333 0.28117,0 0.51122,-1.5 0.51122,-3.3333 z m -32.86166,-16.6069 c 2.09276,-0.7878 6.59276,-1.3507 10,-1.251 4.50473,0.1319 12.01566,-1.9093 27.52833,-7.4812 11.73333,-4.2143 21.90333,-8.1871 22.6,-8.8284 2.43663,-2.2427 -5.30917,-1.1626 -15.94949,2.2242 -5.85778,1.8645 -18.04294,5.4772 -27.07812,8.0284 -17.56186,4.9586 -32.23906,11.5046 -32.23906,14.3785 0,3.7293 2.01128,3.4165 6.58268,-1.0238 2.61286,-2.5379 6.46291,-5.2589 8.55566,-6.0467 z m 34.43763,4.0147 c 0.89118,-2.4645 2.73797,-5.314 5.45866,-7.7091 2.77187,-2.44 1.82656,-2.4251 0.33231,-1.8373 -3.63544,1.4301 -14.70789,6.3753 -16.7942,6.9939 -2.53252,0.7508 5.05349,7.1948 7.66469,6.512 1.20595,-0.3154 2.44736,-1.4949 3.33854,-3.9595 z m 42.42403,-7.9363 c 0,-3.3871 -8.34554,-21.0196 -11.51396,-24.3267 -4.08564,-4.2645 -11.1527,-5.3568 -11.1527,-1.7238 0,3.5159 2.63225,7.2457 5.11357,7.2457 2.37897,0 5.55309,2.3843 5.55309,4.1714 0,0.5343 -0.89828,1.8697 -1.99617,2.9676 -1.09789,1.0979 -1.68968,2.7907 -1.31508,3.7619 0.3746,0.9711 3.37288,2.8751 6.66284,4.2311 3.28996,1.356 5.0023,3.0842 5.53504,3.475 1.10858,0.8132 1.04671,1.393 1.78004,1.393 0.73333,0 1.33333,-0.5379 1.33333,-1.1952 z"
         id="path3219" />
      <path
         style="fill:#ed941c;fill-opacity:1;stroke:#140e11;stroke-width:0.233414;stroke-linecap:round;stroke-linejoin:round;stroke-opacity:1;paint-order:fill markers stroke"
         d="m 1025.2915,1184.4649 c -0.1816,-0.2639 -0.7976,-2.3622 2.1683,-3.631 2.9659,-1.2689 16.4935,-4.0697 21.8224,-5.2984 5.329,-1.2287 2.8856,-0.6324 5.4946,-1.2358 2.6091,-0.6035 9.9679,-1.9235 10.6026,-1.9609 0.4274,-0.025 2.9162,0.1263 1.237,0.8755 -3.3847,1.2951 -20.6819,6.838 -29.915,9.5596 -9.233,2.7216 -7.7229,2.1329 -8.9642,2.2117 -0.1656,0.011 -1.0333,0.043 -1.4935,-0.165 -0.4601,-0.2084 -0.7706,-0.092 -0.9522,-0.3557 z"
         id="path7730"
         transform="translate(-174.38073,85.829135)" />
    </g>
    <path
       style="fill:#ed941c;fill-opacity:1;stroke:#140e11;stroke-width:0.222154;stroke-linecap:round;stroke-linejoin:round;stroke-opacity:1;paint-order:fill markers stroke"
       d="m 993.72068,1108.919 c -0.14523,-0.1222 -0.32844,-0.4106 -0.40713,-0.6408 -0.20101,-0.5881 -0.27387,-1.5976 -0.14376,-1.9918 0.64966,-1.9685 7.81151,-5.7316 17.93531,-9.4238 4.5859,-1.6725 8.9923,-3.0723 15.8806,-5.0447 8.7494,-2.5053 18.7405,-5.4694 24.4477,-7.2531 7.8946,-2.4673 12.976,-3.6462 15.7713,-3.6589 0.8757,0 1.1068,0.023 1.3037,0.1519 0.2902,0.1901 0.2924,0.2236 0.039,0.6036 -0.141,0.2117 -0.4347,0.4182 -0.9944,0.6992 -2.2341,1.1219 -11.4434,4.6789 -21.2119,8.1928 -13.4425,4.8355 -20.8637,7.0333 -25.5885,7.5782 -0.7092,0.082 -1.9462,0.138 -3.0494,0.1386 -3.3466,0 -6.7511,0.4102 -8.9272,1.0707 -2.2978,0.6974 -5.8504,3.1118 -9.14818,6.2172 -3.30693,3.114 -5.03344,4.0962 -5.90734,3.3609 z"
       id="path16702" />
    <path
       style="fill:#fefefe;fill-opacity:1;stroke:#140e11;stroke-width:0.355852;stroke-linecap:round;stroke-linejoin:round;stroke-miterlimit:4;stroke-dasharray:none;stroke-opacity:1;paint-order:fill markers stroke"
       d="m 1014.6098,1142.4974 c -0.243,-0.042 -0.9987,-0.1652 -1.6793,-0.2743 -3.903,-0.6255 -7.6533,-2.5958 -10.7028,-5.623 -2.84571,-2.8249 -4.73614,-6.3312 -5.48811,-10.179 -0.2985,-1.5274 -0.30148,-5.1152 -0.005,-6.5407 1.81089,-8.72 6.80931,-14.6607 13.89721,-16.5173 2.2982,-0.6019 5.0644,-0.8179 7.3814,-0.5762 2.2669,0.2364 3.4358,0.5113 5.4077,1.2717 4.9727,1.9177 10.4985,8.0285 11.9092,13.1701 0.3503,1.2765 0.6243,1.7229 0.6309,5.712 0.01,4.9535 -0.3624,5.9573 -1.4818,8.2534 -1.2934,2.6529 -3.35,4.8745 -6.8298,7.3778 -3.9906,2.8707 -6.458,3.8043 -10.3875,3.9305 -1.2153,0.039 -2.4086,0.037 -2.6517,-0.01 z m 3.8007,-7.3956 c 3.6077,-1.1518 6.9101,-4.1051 8.9798,-8.0306 1.1089,-2.1032 1.3538,-3.1706 1.4063,-6.1313 0.052,-2.9321 0.019,-2.9689 -1.6941,-1.887 -1.4543,0.9184 -2.5306,1.2694 -3.8931,1.2694 -2.8483,0 -5.715,-1.6144 -6.7736,-3.8919 -0.5153,-1.1086 -0.4541,-2.5534 -0.1608,-5.1603 0.1293,-1.1496 0.1072,-1.4327 -0.1413,-1.812 -0.2566,-0.3916 -0.4202,-0.4495 -1.2702,-0.4495 -0.5366,0 -1.5888,0.126 -2.3382,0.28 -6.7379,1.3848 -10.887,7.4746 -10.1272,14.8639 0.3129,3.0426 1.1045,4.6751 3.4455,7.1051 3.8201,3.9653 8.0931,5.2724 12.5669,3.8442 z"
       id="path31285" />
    <path
       style="fill:#fefefe;fill-opacity:1;stroke:#140e11;stroke-width:0.355852;stroke-linecap:round;stroke-linejoin:round;stroke-miterlimit:4;stroke-dasharray:none;stroke-opacity:1;paint-order:fill markers stroke"
       d="m 1061.9504,1134.6394 c -2.4352,-0.3868 -4.7822,-1.3467 -6.9873,-2.8574 -1.6133,-1.1054 -4.5314,-3.9612 -5.8281,-5.7038 -4.0999,-5.5095 -5.1887,-11.9749 -3.0419,-18.0633 1.0381,-2.9443 2.4056,-5.14 4.653,-7.471 3.1569,-3.2743 6.7004,-5.3015 10.8959,-6.2331 2.6526,-0.589 7.0029,-0.5904 9.1776,0 4.8125,1.3 9.984,5.8122 12.546,10.9465 2.6933,5.3974 2.8546,13.6688 0.3627,18.6035 -1.5678,3.1047 -5.3917,6.8757 -8.7104,8.5897 -1.9689,1.0169 -3.0589,1.39 -5.4071,1.8505 -2.1168,0.4151 -6.0834,0.5919 -7.6604,0.3414 z m 7.1105,-8.0524 c 4.3775,-1.3803 7.5765,-4.0988 9.615,-8.1708 0.9127,-1.8233 1.2333,-3.2039 1.0934,-4.7091 -0.1844,-1.9838 -0.4249,-2.0642 -2.8295,-0.9456 -1.3836,0.6437 -1.8038,0.9377 -3.0214,0.992 -2.4916,0.1112 -4.2432,-1.0436 -5.4041,-3.1847 -0.5838,-1.0768 -0.6466,-1.0533 -0.6373,-2.8407 0.012,-2.2219 0.4497,-3.6822 1.587,-5.2958 0.6981,-0.9905 0.723,-1.0669 0.4208,-1.2882 -0.7363,-0.5392 -3.6618,-0.5345 -6.0852,0.01 -4.5065,1.0117 -8.3543,4.4473 -9.8864,8.8272 -0.4499,1.2862 -0.6148,1.7287 -0.6176,3.9797 0,1.9611 0.4685,3.2311 0.7306,4.0015 0.769,2.2579 2.3059,4.1905 4.0375,5.8094 1.6896,1.5797 3.5601,2.868 5.4249,3.2759 1.2649,0.2767 3.9339,0.056 5.5723,-0.4604 z"
       id="path31324" />
  </g>
</svg>
