<?xml version="1.0" encoding="UTF-8" standalone="no"?>
<!-- Created with Inkscape (http://www.inkscape.org/) -->

<svg
   version="1.1"
   id="svg31531"
   width="170.66664"
   height="167.99864"
   viewBox="0 0 170.66664 167.99865"
   xmlns="http://www.w3.org/2000/svg"
   xmlns:svg="http://www.w3.org/2000/svg">
  <defs
     id="defs31535" />
  <g
     id="g31537"
     transform="translate(-979.51106,-1178.397)">
    <path
       style="fill:#000000;stroke-width:1.33417;stroke-miterlimit:4;stroke-dasharray:none"
       d="m 1085.29,1340.7135 c -1.9735,-3.1167 -6.4484,-10.417 -9.9444,-16.2229 -7.2154,-11.9832 -7.4016,-10.4348 3.0097,-25.0257 3.5691,-5.0019 6.4893,-9.8908 6.4893,-10.8643 0,-0.9734 -1.5648,-2.6073 -3.4773,-3.6308 -1.9125,-1.0236 -5.218,-4.391 -7.3454,-7.4831 l -3.8681,-5.6221 -6.4974,6.4974 c -9.1176,9.1176 -16.0534,10.7509 -30.8831,7.2727 -2.7728,-0.6504 -3.7007,-0.1488 -5,2.7028 -0.8775,1.9258 -1.5954,4.2896 -1.5954,5.253 0,1.9008 9.1729,3.4248 20.7334,3.4447 3.7033,0.01 7.4533,0.7316 8.3333,1.6116 2.1895,2.1895 2.2242,35.9091 0.039,38.0941 -1.8766,1.8766 -33.0635,0.8581 -38.6886,-1.2634 -4.3526,-1.6417 -37.08394,-39.2282 -37.08394,-42.5849 0,-1.3088 3.9,-9.5497 8.66667,-18.3133 4.76666,-8.7635 8.66666,-16.4829 8.66666,-17.1542 0,-0.6713 -2.32202,-2.5256 -5.16005,-4.1207 -6.82348,-3.835 -8.73681,-6.1518 -6.52305,-7.8984 0.9257,-0.7304 10.06856,-2.0656 20.31741,-2.9671 14.2156,-1.2505 19.4702,-2.2343 22.1592,-4.1491 1.9387,-1.3804 5.1032,-3.11 7.0324,-3.8434 1.9291,-0.7335 3.4959,-1.7984 3.4819,-2.3666 -0.014,-0.5681 -3.9503,-3.3283 -8.7471,-6.1336 -4.7969,-2.8054 -9.0312,-5.9073 -9.4094,-6.8931 -0.9024,-2.3516 17.2982,-29.4384 21.1794,-31.5201 2.9862,-1.6016 42.9468,-9.1034 48.6648,-9.1359 2.2417,-0.013 4.2548,2.0367 8,8.1442 2.7525,4.4886 7.2496,11.7012 9.9935,16.028 l 4.9891,7.8669 6.4857,-3.2866 c 10.2805,-5.2095 10.4386,-3.0267 1.2041,16.629 l -8.054,17.1431 4.1738,4.7537 c 2.2956,2.6145 4.5475,6.2427 5.0042,8.0625 0.9783,3.8977 2.7813,4.1051 9.1762,1.0556 2.8937,-1.3799 5.1571,-1.7675 5.8393,-1 1.9523,2.1963 13.5259,29.8769 13.5259,32.3498 0,1.3071 -4.1304,12.2451 -9.1786,24.3067 l -9.1787,21.9301 h -18.4586 c -15.397,0 -18.504,0.3318 -18.7325,2 -1.9254,14.0558 -3.6914,15.2534 -9.3395,6.3334 z m 23.1462,-12.7025 c 12.8606,-0.2524 19.208,-0.8848 20.0731,-2 1.9311,-2.4894 9.6686,-21.8352 9.6686,-24.1741 0,-1.769 -3.3538,-2.1136 -23.6077,-2.426 l -23.6077,-0.3641 -0.767,-3.2542 c -0.7036,-2.9846 -1.3436,-2.4616 -7.7257,6.3129 -3.8272,5.2619 -6.9585,10.4673 -6.9585,11.5675 0,2.0975 6.9428,14.2792 10.5445,18.5011 2.0188,2.3664 2.1274,2.3409 2.8358,-0.6666 0.7245,-3.0758 1.0468,-3.1334 19.5446,-3.4965 z m -58.5249,3.4358 c 2.2324,-2.2325 2.1756,-25.6031 -0.067,-27.4352 -0.9167,-0.749 -7.6667,-1.5724 -15,-1.8299 l -13.3333,-0.4682 -4.9579,9.3333 c -2.7268,5.1333 -4.9768,10.0499 -5,10.9257 -0.023,0.8757 1.4053,3.2757 3.1745,5.3333 2.7611,3.2113 4.5074,3.8529 12.3333,4.5312 15.6706,1.3583 21.1959,1.2639 22.8501,-0.3902 z m -33.6028,-32.3207 8.6789,-17.9207 -3.7381,-5.6599 c -3.356,-5.0815 -3.7332,-6.7929 -3.6905,-16.746 l 0.048,-11.086 -7.3809,0.018 c -4.0595,0.011 -8.7851,0.3942 -10.50149,0.8538 l -3.12062,0.8355 3.78731,3.0541 3.7873,3.0542 -9.80571,18.8335 c -8.66946,16.6512 -9.5886,19.0952 -7.93213,21.0921 9.09233,10.961 18.90714,21.5919 19.93424,21.5919 0.6904,0 5.1607,-8.0643 9.9341,-17.9207 z m 96.2671,-6.8626 c 0.6571,-4.5992 -2.2392,-5.8566 -9.3331,-4.0518 -7.327,1.864 -8.3472,2.6401 -7.2454,5.5113 0.642,1.6732 2.4474,2.0395 8.498,1.7242 6.6194,-0.345 7.7379,-0.7856 8.0805,-3.1837 z m 28.9963,0.1772 c 1.8,-1.8 3.2727,-4.2786 3.2727,-5.5081 0,-3.2797 -10.74,-27.2191 -12.2114,-27.2191 -3.8956,0 -9.0416,4.397 -10.5059,8.9768 -0.8834,2.7627 -2.8274,7.0463 -4.3202,9.5189 -2.4214,4.0111 -2.5295,5.0173 -1.0023,9.3334 2.6856,7.5894 3.6057,8.1709 12.9303,8.1709 7.3149,0 9.0414,-0.4774 11.8368,-3.2728 z m -35.4866,-9.346 c 8.6111,-4.453 14.5412,-16.1768 12.2404,-24.1993 -4.6356,-16.1632 -18.8941,-22.9986 -32.8144,-15.7307 -15.6828,8.188 -14.8624,32.8017 1.3333,39.9999 5.3385,2.3727 14.5822,2.3391 19.2407,-0.07 z m -18.0565,-7.2926 c -4.8364,-2.0607 -8.5175,-7.9969 -8.5175,-13.7351 0,-4.2535 0.9024,-6.1893 4.6168,-9.9036 3.9009,-3.901 5.3997,-4.5522 9.6666,-4.2 4.9043,0.4047 5.0499,0.5658 5.0499,5.5864 0,5.0944 1.0167,6.3828 6.3333,8.0256 6.2454,1.9299 -1.4794,13.7796 -9.6666,14.8286 -2.5667,0.3289 -5.9338,0.058 -7.4825,-0.6019 z m -31.6463,3.785 c 15.0549,-9.3045 13.7758,-31.7211 -2.2775,-39.9108 -14.9473,-7.6256 -33.3429,3.6271 -33.2311,20.3277 0.036,5.3107 3.9198,14.1469 7.6941,17.5029 7.2431,6.4404 19.3004,7.3421 27.8145,2.0802 z m -21.7338,-9.1087 c -5.7728,-3.5201 -7.9391,-10.2651 -5.3145,-16.5469 2.4881,-5.9548 7.3846,-9.1896 13.0827,-8.6429 4.1668,0.3998 4.4301,0.7276 4.4678,5.5617 0.04,5.1321 2.937,8.8632 6.8814,8.8632 4.4096,0 0.7848,8.3824 -4.8948,11.3195 -5.1939,2.6859 -9.162,2.5311 -14.2226,-0.5546 z m 41.3712,-27.0206 c -0.3663,-0.5927 -2.3306,-1.0776 -4.3651,-1.0776 -7.2078,0 -6.5271,-4.0632 1.3542,-8.0839 2.8429,-1.4504 5.1689,-3.1849 5.1689,-3.8547 0,-2.2446 -8.3806,-14.7285 -9.8659,-14.6964 -1.5887,0.034 -12.8113,15.8224 -12.7842,17.9849 0.01,0.7242 2.0532,2.6356 4.5425,4.2476 2.4893,1.612 5.9196,5.4105 7.623,8.4412 l 3.0969,5.5104 2.9479,-3.697 c 1.6213,-2.0333 2.6481,-4.1818 2.2818,-4.7745 z m 13.721,-6.3281 c 3.7465,-0.7105 8.7346,-0.7675 11.5522,-0.1321 6.1165,1.3795 6.8083,0.7465 12.7976,-11.7113 4.7997,-9.9835 4.8383,-12.1155 0.1739,-9.6192 -1.5447,0.8266 -3.3239,1.1845 -3.9538,0.7951 -0.63,-0.3893 -5.448,-7.6005 -10.7067,-16.0247 -5.2588,-8.4243 -10.1439,-15.6769 -10.8559,-16.117 -2.015,-1.2453 -28.1101,3.7131 -28.7841,5.4693 -0.3299,0.8597 5.1333,10.2977 12.1404,20.9734 7.007,10.6756 12.7401,19.9833 12.7401,20.6837 0,0.7003 -0.8934,2.0148 -1.9853,2.921 -1.0919,0.9063 -1.6565,2.1797 -1.2547,2.83 0.8873,1.4356 0.175,1.4416 8.1363,-0.068 z m -31.8295,-17.3657 7.0669,-10.5709 -5.4787,-8.6749 c -5.9327,-9.3938 -8.8964,-11.2143 -14.42,-8.8578 -3.6984,1.5779 -17.7309,21.0003 -18.056,24.9914 -0.1949,2.3928 19.9703,15.1825 22.4286,14.2254 0.7658,-0.2982 4.5725,-5.2991 8.4592,-11.1132 z"
       id="path36603" />
    <path
       style="fill:#00a400;fill-opacity:1;stroke:#000000;stroke-width:1.99696;stroke-linecap:round;stroke-linejoin:round;stroke-miterlimit:4;stroke-dasharray:none;stroke-opacity:1;paint-order:fill markers stroke"
       d="m 1082.0029,1237.127 c -0.2123,-0.5532 0.2908,-1.6115 1.3267,-2.7914 0.9178,-1.0452 1.6686,-2.2989 1.6686,-2.7859 0,-1.0689 -0.1221,-1.2733 -11.3755,-19.035 -4.9265,-7.7758 -10.0007,-16.039 -11.276,-18.3628 l -2.3188,-4.225 1.5354,-0.6061 c 3.8223,-1.5089 15.4661,-3.8814 23.5306,-4.7945 l 3.1449,-0.3561 2.1709,2.9453 c 1.1939,1.6198 4.8644,7.1865 8.1566,12.3703 8.8394,13.9184 11.38,17.4642 12.5129,17.4642 0.5465,0 2.137,-0.4901 3.5345,-1.0891 l 2.5409,-1.0892 v 1.5057 c 0,1.7283 -5.1818,13.2845 -7.7546,17.2937 -2.0196,3.1474 -3.8967,4.0303 -7.0247,3.3044 -3.2411,-0.7521 -9.5769,-0.6156 -14.4176,0.3107 -5.3975,1.0328 -5.5363,1.0315 -5.9548,-0.059 z"
       id="path20196" />
    <path
       style="fill:#00a400;fill-opacity:1;stroke:#000000;stroke-width:1.99696;stroke-linecap:round;stroke-linejoin:round;stroke-miterlimit:4;stroke-dasharray:none;stroke-opacity:1;paint-order:fill markers stroke"
       d="m 1044.274,1228.6411 c -4.9368,-2.5547 -12.5679,-7.5811 -15.1701,-9.9921 -1.425,-1.3203 -1.7549,-1.9835 -1.4665,-2.9487 0.9473,-3.1703 9.7659,-15.9226 14.5419,-21.0285 2.657,-2.8406 5.6132,-4.0939 8.1529,-3.4565 2.1921,0.5502 5.7335,4.5621 10.1714,11.5227 l 4.0579,6.3647 -5.1163,7.666 c -5.5844,8.3673 -9.8422,14.0418 -10.5361,14.0418 -0.2436,0 -2.3293,-0.9762 -4.6351,-2.1694 z"
       id="path20235" />
    <path
       style="fill:#00a400;fill-opacity:1;stroke:#000000;stroke-width:1.99696;stroke-linecap:round;stroke-linejoin:round;stroke-miterlimit:4;stroke-dasharray:none;stroke-opacity:1;paint-order:fill markers stroke"
       d="m 999.56505,1309.9538 c -10.65003,-11.7187 -13.25341,-15.0654 -13.25341,-17.0377 0,-1.224 2.89698,-7.4861 9.11292,-19.6985 l 9.11294,-17.9041 -3.2915,-2.586 c -1.81037,-1.4222 -3.85752,-2.8443 -3.85752,-3.0934 0,-0.7902 3.38612,-1.115 11.79292,-1.4558 l 8.1777,-0.3315 0.018,9.9163 c 0.021,11.4652 0.3977,13.0702 4.5813,19.516 l 2.6323,4.0556 -6.9031,14.1031 c -7.5795,15.4849 -10.5492,20.7532 -11.6985,20.7532 -0.4157,0 -3.3065,-2.8067 -6.42415,-6.2372 z"
       id="path20274" />
    <path
       style="fill:#00a400;fill-opacity:1;stroke:#000000;stroke-width:1.99696;stroke-linecap:round;stroke-linejoin:round;stroke-miterlimit:4;stroke-dasharray:none;stroke-opacity:1;paint-order:fill markers stroke"
       d="m 1028.2542,1331.699 c -7.6965,-0.7127 -9.9519,-1.4293 -12.4546,-3.9571 -1.2083,-1.2204 -2.655,-3.0695 -3.2149,-4.1091 l -1.0179,-1.8902 5.0031,-9.8268 5.0032,-9.8269 7.1795,0.1604 c 7.5292,0.1683 16.9501,0.9078 19.401,1.5229 2.1592,0.5419 2.6107,2.3961 2.889,11.8644 0.2491,8.4713 -0.3521,14.5687 -1.5554,15.7753 -0.7213,0.7233 -14.5096,0.9097 -21.233,0.2871 z"
       id="path20313" />
    <path
       style="fill:#00a400;fill-opacity:1;stroke:#000000;stroke-width:1.99696;stroke-linecap:round;stroke-linejoin:round;stroke-miterlimit:4;stroke-dasharray:none;stroke-opacity:1;paint-order:fill markers stroke"
       d="m 1084.2177,1329.0813 c -1.6666,-2.3632 -4.3026,-6.7552 -5.8578,-9.76 l -2.8276,-5.4632 1.7449,-3.1303 c 3.6281,-6.5086 11.2622,-16.4346 12.196,-15.8574 0.2301,0.1422 0.5801,1.2162 0.7779,2.3866 l 0.3595,2.1281 21.4497,0.3631 c 11.7973,0.1997 22.3228,0.5598 23.3901,0.8002 1.37,0.3087 1.9902,0.7797 2.1095,1.6023 0.1953,1.3454 -4.0213,12.7731 -7.1515,19.3821 -1.7396,3.6731 -2.4218,4.5827 -3.6754,4.9007 -2.4822,0.6298 -14.2413,1.3641 -22.3301,1.3945 -8.524,0.032 -14.3673,0.7213 -15.0718,1.778 -0.2651,0.3975 -0.6312,1.4088 -0.8135,2.2474 -0.1823,0.8385 -0.5426,1.5246 -0.8006,1.5246 -0.258,0 -1.8327,-1.9335 -3.4993,-4.2967 z"
       id="path20352" />
    <path
       style="fill:#00a400;fill-opacity:1;stroke:#000000;stroke-width:1.99696;stroke-linecap:round;stroke-linejoin:round;stroke-miterlimit:4;stroke-dasharray:none;stroke-opacity:1;paint-order:fill markers stroke"
       d="m 1124.1598,1295.1294 c -3.5328,-0.6379 -4.9505,-2.0688 -6.6844,-6.7467 -1.8072,-4.8756 -1.7844,-5.6152 0.2882,-9.3378 0.9337,-1.6771 2.5812,-5.1699 3.661,-7.7618 2.3909,-5.7389 4.3169,-8.272 7.6235,-10.0261 1.9345,-1.0263 2.7433,-1.2001 3.49,-0.7501 2.0506,1.236 11.8116,23.0855 11.7918,26.3954 -0.011,1.9348 -3.0918,5.9158 -5.553,7.177 -2.311,1.1842 -10.5828,1.7784 -14.6171,1.0501 z"
       id="path20391" />
    <path
       style="fill:#fefefe;fill-opacity:1;stroke:#000000;stroke-width:0.706031;stroke-linecap:round;stroke-linejoin:round;stroke-miterlimit:4;stroke-dasharray:none;stroke-opacity:1;paint-order:fill markers stroke"
       d="m 1040.751,1282.7068 c -3.2666,-0.4126 -6.6912,-1.621 -9.4054,-3.3186 -3.216,-2.0115 -5.2288,-4.4378 -7.3695,-8.8835 -2.0411,-4.2387 -2.9248,-7.5529 -2.9248,-10.9691 0,-11.9904 10.4907,-22.1142 22.934,-22.132 14.8644,-0.021 25.9132,14.5433 22.0458,29.0607 -2.8752,10.793 -13.6447,17.7124 -25.2801,16.2425 z m 5.8148,-10.5417 c 2.9563,-1.0953 4.959,-2.5162 6.749,-4.7883 1.5192,-1.9282 2.2803,-3.6252 2.3864,-5.3209 0.08,-1.2827 0.052,-1.4057 -0.4256,-1.8503 -0.3803,-0.354 -0.8488,-0.5168 -1.8263,-0.6345 -3.0664,-0.3691 -5.0156,-2.2186 -6.0353,-5.7264 -0.184,-0.6329 -0.3937,-2.3223 -0.4735,-3.8146 -0.087,-1.6243 -0.2529,-2.9098 -0.4221,-3.266 -0.3884,-0.818 -1.4068,-1.2518 -3.5274,-1.5026 -5.7708,-0.6823 -10.4609,2.0071 -13.2868,7.619 -1.3836,2.7476 -1.9,6.7199 -1.2307,9.4675 1.1367,4.6665 5.2391,8.6581 10.5134,10.2294 0.919,0.2738 1.6901,0.3358 3.5283,0.2836 2.0688,-0.059 2.5568,-0.1425 4.0506,-0.6959 z"
       id="path28212" />
    <path
       style="fill:#fefefe;fill-opacity:1;stroke:#000000;stroke-width:0.706031;stroke-linecap:round;stroke-linejoin:round;stroke-miterlimit:4;stroke-dasharray:none;stroke-opacity:1;paint-order:fill markers stroke"
       d="m 1094.5576,1284.7645 c -1.7877,-0.1634 -4.126,-0.5494 -5.1926,-0.8572 -5.5142,-1.5913 -10.0311,-5.4668 -12.6436,-10.8486 -1.8159,-3.7405 -2.4684,-6.9668 -2.3002,-11.3726 0.1616,-4.2337 1.1572,-7.574 3.3124,-11.1139 1.3665,-2.2445 4.5871,-5.4372 6.7292,-6.6708 9.7813,-5.6331 20.1767,-4.3791 27.3471,3.2988 2.957,3.1664 5.3539,7.6713 6.486,12.1903 0.5679,2.267 0.4467,5.5239 -0.3071,8.2499 -2.1457,7.7599 -8.5946,14.8264 -15.0093,16.4468 -2.3866,0.6028 -6.0302,0.8959 -8.4219,0.6773 z m 2.5479,-8.6056 c 5.8146,-1.7797 11.1155,-8.2122 10.3092,-12.5099 -0.1894,-1.0098 -1.0737,-1.7852 -2.6139,-2.2922 -1.997,-0.6575 -3.8333,-1.6428 -4.521,-2.4261 -0.9022,-1.0275 -1.2153,-2.3916 -1.3843,-6.0308 -0.2025,-4.3608 -0.2961,-4.4853 -3.6688,-4.8831 -1.0259,-0.121 -2.6856,-0.1841 -3.6883,-0.1402 -2.3362,0.1022 -3.6884,0.7306 -5.9126,2.748 -3.7516,3.4027 -5.511,5.8968 -5.9885,8.4891 -0.3293,1.7876 -0.1108,5.5904 0.4167,7.2526 1.1862,3.738 3.6808,7.0893 6.561,8.8141 1.9316,1.1566 3.6253,1.488 7.0605,1.3814 1.4465,-0.045 2.7672,-0.2 3.43,-0.4029 z"
       id="path28251" />
  </g>
</svg>
