<?xml version="1.0" encoding="UTF-8" standalone="no"?>
<!-- Created with Inkscape (http://www.inkscape.org/) -->

<svg
   version="1.1"
   id="svg2"
   width="154.33301"
   height="144.70937"
   viewBox="0 0 154.333 144.70937"
   xmlns="http://www.w3.org/2000/svg"
   xmlns:svg="http://www.w3.org/2000/svg">
  <defs
     id="defs6" />
  <g
     id="g8"
     transform="translate(-962.79999,-994.12513)">
    <g
       id="g961"
       transform="translate(174.29128,-177.87487)">
      <path
         style="fill:#87c6fc;stroke-width:1.33333"
         d="m 790.8295,1245.2785 c 1.18744,-55.2664 -1.99678,-70.7123 -0.69713,-71.1454 1.31924,-0.4396 0.44434,14.0729 1.66667,69.5557 l 1.53431,69.6445 h 6.66667 6.66666 v -48.8558 -48.8558 l 21.33334,0.6808 21.33333,0.6807 V 1194.4916 1172 h 18 18 v 22 l -1.39408,23.6779 6.82207,0.3536 c 4.2424,0.2199 18.40441,-2.2031 13.92818,-13.476 l -4.30782,-10.8488 9.95165,-2.7454 10.73533,2.5811 2.75559,59.9783 -4.08034,61.4977 15.58942,-1.6851 c 4.00997,-0.4335 7.33333,0.6 7.33333,1.3333 0,0.8735 -26.44833,1.3334 -76.67834,1.3334 h -76.67836 z m 58.50385,41.3881 1.42267,-28.4462 -4.40221,-0.6411 -7.49251,-0.1814 -1.8397,29.4675 4.31175,26.4679 h 4 4 z m 48.50564,1.4632 c 0,0 -1.2118,-20.5864 -0.75725,-23.3364 0.62272,-3.7674 -2.90013,-5.5553 -4.28735,-5.5399 -1.81399,0.02 -5.93845,-1.3819 -7.98785,-1.0715 -2.56607,0.3887 -1.92849,12.4111 -1.15258,28.6831 l 1.2621,26.4682 h 3.54197 l 8.78469,0.318 0.69726,-20.6754 z m 0.60995,-32.6616 c 5.61836,-3.4255 9.45195,-11.8407 9.45825,-17.7578 0.0151,-14.1312 -18.12515,-23.0581 -29.99696,-15.8194 -8.93988,5.451 -12.01977,15.4396 -7.25891,24.78 5.06636,9.9399 18.90552,14.2188 27.79762,8.7972 z m -8.04114,-11.2213 c -9.82146,-4.1768 -19.5517,-3.8677 -9.29745,-7.2519 6.05311,-1.9977 9.33994,-0.7538 7.17366,2.715 -2.41483,3.8668 -7.54967,-1.1785 -2.19447,-1.4431 4.13408,-0.2043 4.26116,-0.057 3.45067,3.9953 -0.46283,2.3141 -1.47904,-5.4484 -2.7884,-4.1391 -2.82838,2.8284 7.66451,7.8286 3.65599,6.1238 z m -33.31373,7.3333 c 10.10179,-8.0857 8.4511,-18.0207 0.66428,-25.733 -7.68804,-7.6144 -20.57675,-6.2932 -26.52649,2.7872 -7.9179,12.0843 1.10189,27.3656 16.15246,27.3656 4.39288,0 5.81928,-1.3058 9.70975,-4.4198 z m -13.4575,-8.4674 c -8.27391,-8.2738 -9.01962,-10.6926 2.42062,-10.6926 4.43274,0 -1.06009,-1.4637 -2.39845,1.037 -0.79976,1.4944 -1.08088,3.893 -0.62471,5.3303 1.03152,3.25 2.62183,4.574 5.29295,2.3571 1.6674,-1.3838 -1.9101,-3.6386 -1.9101,-0.7508 0,12.4327 5.7726,11.272 -2.78031,2.719 z"
         id="path969" />
      <path
         style="fill:#3ddfce;stroke-width:1.33333"
         d="m 790.90748,1314.3334 c 0.9816,0 -0.48217,-32.8167 -0.29149,-70.889 0.27019,-53.944 -0.67886,-69.4396 0.61995,-69.8724 1.31924,-0.4396 1.32619,14.0605 1.66667,69.5557 l 0.43074,70.2056 h 6.65004 6.65003 l 0.34997,-48.3333 0.34996,-48.3333 21,0.1273 21,0.1273 v -22.4606 -22.4606 h 18 18 v 22 l -1.39408,23.6778 4.60906,0.3526 6.07254,1.6135 -0.44597,-15.7808 1.08123,-11.9248 14.74385,-0.605 15.05575,1.1256 0.49937,59.482 -0.46568,61.6742 10.25734,-0.2818 c 4.02442,-0.1106 7.31988,0.6 7.31988,1.3334 0,2.1389 -155.01415,-0.3335 -152.72188,-0.3334 z m 58.42587,-27.5154 1.42267,-28.5976 -2.94531,-0.7235 -8.94941,-0.099 -1.8397,29.467 4.31175,26.4679 h 4 4 z m 44,-0.1514 V 1260 h -4 -4 v 26.6666 26.6667 h 4 4 z m -56,-1.8466 v -27.18 l -3.39699,-2.2258 c -5.48378,-3.5931 -8.59245,-9.9448 -8.59802,-17.5677 -0.005,-6.7475 2.45532,-11.7329 7.96369,-16.1374 1.63425,-1.3068 -0.37947,-1.6326 -10.30201,-1.6667 l -12.33334,-0.042 -1.90323,46.6768 v 46 L 824.00002,1312 h 13.33333 z m 61.3565,-29.8768 c 12.37866,-6.9572 10.96973,-26.5691 -1.51834,-33.0269 -6.38028,-3.2994 -16.76348,-2.8785 -21.76526,1.9136 -9.94504,9.5279 -7.45693,27.0728 4.69861,32.3653 5.95063,2.5909 12.74519,2.0301 18.58499,-1.252 z m -15.87641,-6.1372 c -3.7481,-2.0774 1.72031,-7.4991 1.65384,-11.6898 -0.0583,-3.6716 -3.30819,-1.7992 0.31344,-2.1033 5.35661,-0.4498 5.95208,-0.011 5.18506,3.8245 -0.92208,4.6104 -11.64911,0.9204 -6.90708,0.014 3.78943,-0.7244 3.9094,-0.3703 1.86311,5.4997 -1.49588,4.2911 9.18227,-1.3162 4.74111,-1.4036 -1.31974,-0.026 -5.09686,6.8299 -6.84948,5.8585 z m -24.92197,2.547 c 13.30449,-13.3045 1.29867,-34.828 -16.72059,-29.9759 -13.42465,3.6148 -17.3082,20.4818 -6.96244,30.2391 4.07171,3.8402 5.54023,4.3838 11.84207,4.3838 6.43808,0 7.68221,-0.4883 11.84096,-4.647 z m -10.95552,-9.729 c -0.2728,-11.4858 -16.69918,-6.5854 -5.19278,-8.1288 5.70982,-0.7658 6.66058,-1.578 5.13784,1.764 -1.15693,2.5392 -1.13898,4.0693 0.0743,6.3364 1.32349,2.473 -2.15653,-1.8099 1.59787,-2.4192 4.16242,-0.6755 4.5376,-0.4567 4.5376,2.6465 0,2.0694 -2.6366,-0.745 -5.40976,2.0281 -6.04301,6.0431 -0.0586,1.5646 -0.64962,1.7915 z"
         id="path967" />
      <path
         style="fill:#3cafc7;stroke-width:1.33333"
         d="m 789.9448,1314.3333 c -0.35101,-0.9167 0.5057,-32.7839 0.69638,-70.8562 0.27019,-53.944 -0.87772,-69.3219 0.42109,-69.7547 1.31924,-0.4396 0.0614,14.045 1.03784,69.5326 l 1.23324,70.0783 h 6.65004 6.65003 l 0.34997,-48.3333 0.34996,-48.3333 21,0.1273 21,0.1273 v -22.4606 -22.4606 h 18 18 v 22 l -1.39408,23.6778 4.60906,0.3526 6.07254,1.6135 1.37915,-14.4194 -0.74389,-13.2862 14.74385,-0.605 15.05575,1.1256 0.11589,60.6811 -0.0822,60.4751 10.25734,-0.2818 c 4.02442,-0.1106 7.31988,0.6 7.31988,1.3334 0,2.1389 -151.90217,1.8073 -152.72188,-0.3334 z m 59.38855,-27.5153 1.42267,-28.5976 -2.94531,-0.7235 -10.47736,0.1431 -0.31175,29.2254 0.31175,25.1346 8,1.3333 h 4 z m 44,-0.1514 V 1260 h -4 -4 v 26.6666 26.6667 h 4 4 z m -56,-1.8466 v -27.18 l -3.39699,-2.2258 c -5.48378,-3.5931 -8.59245,-9.9448 -8.59802,-17.5677 -0.005,-6.7475 2.45532,-11.7329 7.96369,-16.1374 1.63425,-1.3068 -0.37947,-1.6326 -10.30201,-1.6667 l -12.33334,-0.042 -2.00859,46.173 0.10536,46.5042 15.23657,-0.6772 h 13.33333 z m 88.22175,-32.879 -0.49937,-59.482 -15.05571,0.8743 h -14 v 11.8913 l -1.37915,14.4194 4.54882,1.2383 c 6.40591,1.7437 10.2339,11.0313 10.2339,17.8435 0,6.6225 -4.93112,14.6108 -9.66264,17.4058 -3.44394,2.0344 -3.43527,0.2735 -4.20267,8.3994 -1.1254,11.9167 -1.62138,45.7414 -0.49101,46.8718 0.48888,0.4888 8.51232,2.0585 15.65697,1.0816 l 13.29568,-1.8178 z m -27.27325,4.1703 c 12.37866,-6.9572 11.37773,-27.7372 -1.11034,-34.195 -6.38028,-3.2994 -17.21467,-2.4757 -22.21645,2.3164 -9.94504,9.5279 -7.22202,26.9616 4.93352,32.2541 5.95063,2.5909 12.55347,2.9066 18.39327,-0.3755 z m -10.58413,-11.5588 c -3.7481,-2.0774 -6.88736,-2.5284 -6.95383,-6.7191 -0.0583,-3.6716 -1.77299,-3.78 1.84864,-4.0841 5.35661,-0.4498 5.95208,-0.011 5.18506,3.8245 -0.92208,4.6104 -0.38635,1.2696 4.35568,0.3632 3.78943,-0.7244 3.9094,-0.3703 1.86311,5.4997 -1.49588,4.2911 0.62479,-0.852 -3.81637,-0.9394 -1.31974,-0.026 -0.72967,3.0266 -2.48229,2.0552 z m -29.80625,6.8005 c 13.30449,-13.3045 1.29867,-34.828 -16.72059,-29.9759 -13.42465,3.6148 -17.3082,20.4818 -6.96244,30.2391 4.07171,3.8402 5.54023,4.3838 11.84207,4.3838 6.43808,0 7.68221,-0.4883 11.84096,-4.647 z m -16.8947,-8.8901 c -3.74212,-10.8625 -7.52468,-6.341 3.98172,-7.8844 5.70982,-0.7658 0.77123,-3.4219 -0.75151,-0.08 -1.15693,2.5392 -1.13898,4.0693 0.0743,6.3364 1.32349,2.473 -2.90118,0.8509 0.85322,0.2416 4.16242,-0.6755 4.5376,-0.4567 4.5376,2.6465 0,2.0694 -3.44039,-3.6198 -6.21355,-0.8467 -6.04301,6.0431 1.16749,10.1796 -1.42851,2.644 z"
         id="path965" />
      <path
         style="fill:#141719;stroke-width:1.33333"
         d="m 789.30998,1316 c -1.17174,-1.1705 -0.80249,-142.7165 -0.48108,-143.0313 0.32141,-0.3148 3.12386,-0.3543 3.42576,-0.055 0.3019,0.2999 1.07869,27.2479 1.07869,71.1644 v 69.2546 h 6.66667 6.66666 v -47.9746 -49.7364 l 3.85004,-0.2073 c 2.00423,-0.1079 11.51254,-0.2831 21.28069,0.4626 l 17.53594,1.0443 V 1194.608 1172 h 18 18 l 0.003,22.3333 0.003,22.3334 3.99736,0.2796 3.99735,0.2797 v -13.2797 -13.2796 h 16.66667 16.66666 V 1252 v 61.3333 l 12.82084,-0.1863 c 4.44397,-0.065 3.19041,1.5039 3.19041,2.2446 0,1.2857 -152.08826,1.8875 -153.36866,0.6086 z m 60.02337,-29.784 v -27.1173 l -4.66667,-0.1754 -4.66666,-0.1755 v 26.4039 c 0,14.5221 1.09231,26.3631 1.5812,26.852 0.48888,0.4889 2.02681,0.026 4.05273,0.4872 0,0 2.55375,0.4567 2.60791,-0.8068 z m 44,0.4506 V 1260 h -4 -4 v 26.6666 26.6667 h 4 4 z m -56,-1.9692 v -27.3026 l -3.30985,-2.1687 c -10.8814,-7.1298 -13.55567,-23.4987 -3.32435,-31.5467 1.84799,-1.4536 0.73981,-2.3731 0.0191,-2.6485 -0.48341,-0.1847 -0.80605,-0.2008 -7.95629,-0.5091 l -12.09526,-0.5214 -1.01728,45.7706 -0.35061,46.229 h 14.01728 14.01728 z m 45.33333,0.4933 c 0,-23.7911 -0.38239,-25.7562 -2.20645,-26.5241 -2.5723,-1.0829 -11.35565,-10.2092 -12.46021,-12.7228 -1.31314,-2.9882 -1.89095,-2.1208 -4,2.4184 -1.1,2.3674 -4.25,5.755 -7,7.5278 l -5,3.2234 v 25.6655 c 0,19.2744 0.41502,25.8379 1.66666,26.3577 0.91667,0.3807 7.81667,0.6665 15.33334,0.6351 l 13.66666,-0.057 v -26.5241 z m 41.59291,6.4759 c 0.14276,-10.45 0.25132,-36.7 0.24125,-58.3333 l -0.0183,-39.3333 -14.24126,-0.3785 -14.2413,-0.3784 0.0513,12.3784 0.0513,12.3785 4.28198,2.6667 c 6.04677,3.7657 10.65296,13.2173 9.65265,19.8066 -1.13773,7.4945 -4.25147,12.6829 -9.45341,15.7522 l -4.58388,2.7045 v 25.8684 25.8682 h 14 14 z m -27.30367,-36.5599 c 6.16987,-2.9278 9.70079,-8.9117 9.70079,-16.44 0,-11.1669 -7.53993,-18.6667 -18.76644,-18.6667 -14.28936,0 -23.25547,15.6107 -15.89745,27.6788 5.42409,8.8963 15.53114,11.9037 24.9631,7.4279 z m -14.51454,-6.4255 c -4.42698,-2.4712 -7.03248,-9.6195 -5.2322,-14.3546 0.91042,-2.3946 2.55744,-5.7854 5.74238,-7.3742 2.49989,-1.247 6.44611,-0.9777 8.37069,-0.9782 3.00558,-7e-4 0.0111,1.2315 0.0111,5.6916 0,4.6674 2.45963,5.5848 6.50401,5.9748 3.48882,0.3364 3.33304,-1.3136 3.33304,1.115 0,2.9556 -2.00102,7.0541 -5.07208,9.1504 -4.0643,2.7743 -9.83364,2.9094 -13.65694,0.7752 z m -24.46023,1.8723 c 7.55848,-7.1285 6.84406,-16.4956 -0.16192,-24.0823 -6.30902,-6.8319 -27.101,-5.4403 -29.00138,8.8173 -1.52623,11.4505 6.07705,19.6556 17.71907,19.6556 6.14878,0 7.39522,-0.5718 11.44423,-4.3906 z m -17.83437,-0.4142 c -5.94158,-3.2932 -6.89415,-12.0532 -4.58248,-17.2425 1.73947,-3.9048 6.93496,-6.291 11.60842,-6.291 2.8515,0 3.31066,0.3556 2.06622,1.6 -2.2179,2.2179 -2.1221,6.3214 0.28319,8.3176 1.2207,1.0131 3.25125,1.2686 5.78814,0.7613 4.09345,-0.8187 4.14943,-0.76 3.33333,3.5006 -0.4565,2.3834 -1.78125,5.5314 -3.99464,7.548 -4.40744,4.0157 -9.39481,4.6368 -14.50218,1.806 z m 32.26666,-25.932 c 1.60595,-1.72 4.56991,-3.9858 6.58658,-5.0349 l 3.66666,-1.9076 v -21.2991 -21.299 h -15.33333 -15.33333 v 22 c 0,13.249 0.5119,22 1.28693,22 2.26425,0 10.92217,8.3804 12.31208,11.9174 l 1.34228,3.4159 1.27611,-3.3327 c 0.70186,-1.8329 2.59006,-4.7399 4.19602,-6.46 z"
         id="path963" />
    </g>
    <path
       style="fill:#fdfdfd;fill-opacity:1;stroke:#141719;stroke-width:0.222154;stroke-linecap:round;stroke-linejoin:round;stroke-opacity:1;paint-order:fill markers stroke"
       d="m 1019.1466,1076.9667 c -4.595,-0.338 -8.7043,-2.0954 -11.547,-4.938 -2.5735,-2.5735 -4.1334,-5.9508 -4.5327,-9.8132 -0.1433,-1.3861 -0.058,-4.006 0.1723,-5.3137 1.1184,-6.3412 6.2308,-10.7367 13.9339,-11.9799 1.3685,-0.2209 4.7612,-0.2701 6.143,-0.089 3.0629,0.4011 5.6677,1.3379 7.4991,2.6972 1.6483,1.2234 3.8141,4.046 5.0562,6.5894 2.8098,5.7539 2.1731,11.5872 -1.8039,16.5287 -0.6675,0.8293 -2.4171,2.5739 -3.5478,3.5376 -1.9878,1.6943 -3.3936,2.3517 -5.6568,2.6452 -1.2351,0.1602 -4.372,0.2347 -5.7163,0.1358 z m 3.6392,-3.1303 c 2.0771,-0.447 4.1478,-1.535 5.8994,-3.1 2.2541,-2.0137 3.6484,-4.6261 4.3475,-8.1453 0.4689,-2.3599 0.4554,-3.2143 -0.055,-3.4861 -0.3642,-0.1941 -1.3276,-0.1345 -3.0327,0.1875 -3.2794,0.6192 -5.091,0.3228 -6.4523,-1.0558 -1.5795,-1.5994 -1.9525,-4.3301 -0.8884,-6.5038 0.1428,-0.2916 0.5602,-0.8871 0.9275,-1.3232 0.9966,-1.1831 0.9148,-1.46 -0.4873,-1.6496 -0.8945,-0.121 -3.0022,-0.051 -4.0154,0.133 -4.2677,0.7755 -7.6326,2.9408 -9.0831,5.845 -1.2954,2.5938 -1.643,6.3922 -0.893,9.76 1.212,5.4425 4.7111,8.6325 10.418,9.4978 0.5376,0.082 2.6719,-0.021 3.3146,-0.1595 z"
       id="path17579" />
    <path
       style="fill:#fdfdfd;fill-opacity:1;stroke:#141719;stroke-width:0.628346;stroke-linecap:round;stroke-linejoin:round;stroke-opacity:1;paint-order:fill markers stroke"
       d="m 1058.716,1078.7678 c -6.3338,-1.4442 -11.7845,-6.4125 -14.0076,-12.7678 -0.6376,-1.8227 -0.6996,-2.3103 -0.6996,-5.5 0,-3.1859 0.063,-3.6795 0.6975,-5.5 1.7627,-5.054 5.3143,-8.9988 10.0246,-11.1345 2.4053,-1.0906 4.552,-1.5133 7.6716,-1.5105 5.9512,0.01 10.8907,2.1513 14.2739,6.2009 4.9815,5.9628 5.5149,16.0659 1.1969,22.6694 -2.1752,3.3265 -5.2266,5.5438 -9.5815,6.9624 -2.7805,0.9058 -7.0209,1.1627 -9.5758,0.5801 z m 7.3652,-6.773 c 3.2152,-0.7579 5.7059,-2.4307 7.3841,-4.9591 1.1791,-1.7764 2.2078,-4.8646 2.1101,-6.3346 l -0.075,-1.1341 -2.7604,-0.04 c -2.5197,-0.036 -2.8903,-0.1044 -4.25,-0.7835 -1.2049,-0.6018 -1.5971,-0.9572 -2.0521,-1.8595 -0.8143,-1.6148 -0.7859,-4.4046 0.068,-6.6733 0.442,-1.1743 0.5518,-1.7539 0.367,-1.9387 -0.7935,-0.7935 -7.4358,-0.3058 -9.6516,0.7087 -3.3979,1.5556 -6.3459,6.5887 -6.3459,10.8343 0,5.8796 3.4617,10.7994 8.5661,12.1741 1.7287,0.4656 4.6777,0.4679 6.6401,0.01 z"
       id="path18363" />
  </g>
</svg>
