<?xml version="1.0" encoding="UTF-8" standalone="no"?>
<!-- Created with Inkscape (http://www.inkscape.org/) -->

<svg
   version="1.1"
   id="svg24493"
   width="242.71613"
   height="131.13799"
   viewBox="0 0 242.71612 131.13799"
   xmlns="http://www.w3.org/2000/svg"
   xmlns:svg="http://www.w3.org/2000/svg">
  <defs
     id="defs24497" />
  <g
     id="g24499"
     transform="translate(-852.10872,-1130.8916)">
    <path
       style="fill:#7e00d5;fill-opacity:1;stroke:#000000;stroke-width:1.4;stroke-linecap:round;stroke-linejoin:round;stroke-miterlimit:4;stroke-dasharray:none;stroke-opacity:1;paint-order:fill markers stroke"
       d="m 1012.2987,1245.1027 c -1.8267,-0.3837 -34.09084,-9.8482 -38.47359,-11.3297 -7.2916,-2.4647 -20.38124,-7.705 -20.38241,-8.0691 -10e-4,-0.3383 5.7193,-3.5068 7.72252,-4.0708 0.59206,-0.1666 5.56685,2.4705 11.56765,4.5267 20.23466,6.9337 41.93443,13.2386 44.73683,13.8283 1.5694,0.3303 0.074,0.04 0.2829,0.2174 0.6552,0.5578 -4.3761,5.1237 -5.4539,4.8972 z"
       id="path13659" />
    <path
       style="fill:#7e00d5;fill-opacity:1;stroke:#000000;stroke-width:1.4;stroke-linecap:round;stroke-linejoin:round;stroke-miterlimit:4;stroke-dasharray:none;stroke-opacity:1;paint-order:fill markers stroke"
       d="m 968.32253,1257.6429 c -20.75916,-2.0728 -37.60875,-12.8594 -46.47702,-29.7532 -2.3504,-4.4775 -7.23351,-15.4739 -6.76873,-15.9417 0.43502,-0.4378 12.31623,5.894 14.09854,7.3773 4.0437,3.3654 12.22459,6.3818 16.54482,6.3678 1.05878,0 7.19593,1.178 14.83149,4.1075 13.64163,5.2338 19.5131,8.0534 37.22413,13.2776 6.09174,1.7969 13.03984,3.2186 13.24394,3.404 0.5688,0.5167 -11.11917,6.3761 -16.27386,8.079 -8.02491,2.6512 -18.49996,3.8729 -26.42331,3.0817 z"
       id="path13620" />
    <path
       style="fill:#7e00d5;fill-opacity:1;stroke:#000000;stroke-width:0.35;stroke-linecap:round;stroke-linejoin:round;stroke-miterlimit:4;stroke-dasharray:none;stroke-opacity:1;paint-order:fill markers stroke"
       d="m 921.87387,1212.9684 c -1.3426,-0.6015 -7.22643,-3.4864 -7.20139,-3.7372 l 0.17503,-1.7526 10e-5,-1.6531 c 10e-5,-1.7137 0.1095,-2.6394 0.3395,-2.8709 0.095,-0.096 0.5922,0 1.7265,0.3192 0.8761,0.2496 1.6124,0.4732 1.6362,0.4969 0.024,0.024 0.1803,0.5987 0.3476,1.2779 0.3396,1.3789 0.925,3.0854 1.462,4.2623 0.1957,0.4291 0.3172,0.7793 0.27,0.7784 -0.047,0 2.58706,3.4806 1.24446,2.8791 z"
       id="path13698" />
    <path
       style="fill:none;fill-opacity:1;stroke:#aa12fd;stroke-width:5.3;stroke-linecap:round;stroke-linejoin:miter;stroke-miterlimit:4;stroke-dasharray:none;stroke-opacity:1"
       d="m 925.72899,1156.595 c -25.87244,-6.3566 -63.8209,-10.415 -69.65272,-0.9814 -5.83182,9.4336 7.87859,26.5874 33.41451,41.964 25.53591,15.3766 74.52818,32.6796 79.50115,34.832 6.85,2.9648 68.04297,21.5083 85.73287,23.4695 11.6773,1.2947 29.0545,1.7743 35.5053,-7.8756 6.4508,-9.65 -4.42,-19.1912 -13.5726,-26.7314 -9.1526,-7.5403 -37.1011,-22.2049 -37.1011,-22.2049"
       id="path1060" />
    <path
       style="fill:#000000;stroke-width:1.33333"
       d="m 961.81744,1260.8193 c -21.51886,-4.4718 -40.18854,-20.2288 -47.846,-40.3816 -1.76921,-4.6562 -3.90372,-13.218 -3.77758,-16.7818 0.16698,-4.7175 3.4497,-3.6358 4.87028,4.9496 7.72217,46.6695 55.10385,57.706 85.26896,44.1687 9.9119,-4.4482 15.5279,-4.1962 7.821,0.3509 -13.21394,7.7965 -31.35148,10.8082 -46.33666,7.6942 z m 54.14206,-18.0693 c 1.3273,-1.4667 2.0092,-2.6667 1.5154,-2.6667 -5.5097,0 -53.02738,-17.5523 -54.75376,-17.487 -2.19969,0.083 -1.89604,0.071 -5.04191,1.4991 -10.82352,4.9124 -22.48801,2.602 -31.30317,-6.2002 -16.29144,-16.2675 -7.15987,-43.6399 15.96998,-47.8709 10.92107,-1.9978 25.00007,5.9063 29.76738,16.7117 l 2.31664,5.2507 2.22206,-4.9631 c 1.22214,-2.7297 4.36479,-6.8445 6.98368,-9.1439 18.2201,-15.9974 46.7926,-3.348 46.757,20.7 -0.024,16.4384 -11.7666,28.2158 -28.0572,28.141 -11.54252,-0.053 -20.99925,-6.1408 -25.78958,-16.602 l -2.42599,-5.2979 -1.50243,3.9646 c -0.82634,2.1805 -2.72533,5.2702 -4.21997,6.8659 -1.49465,1.5957 -2.34869,3.4981 -1.89789,4.2275 1.0852,1.7559 26.0565,9.931 42.79306,14.0096 24.3485,5.9335 47.3049,8.2513 57,5.7549 5.6899,-1.4651 4.8314,-6.1467 -2.3392,-12.7564 -6.7129,-6.1877 -21.5311,-16.1369 -24.0342,-16.1369 -0.8946,0 -2.0046,1.8899 -2.4665,4.1997 -0.7428,3.7136 1.0012,4.1027 5.723,8.1443 2.9369,2.5139 4.2232,4.6435 4.1169,6.4265 -0.1602,2.6852 -6.3024,2.2437 -9.1732,2.2437 -2.8708,0 -11.7055,-1.0142 -11.7055,-1.0142 l 3.8462,-7.76 c 14.7411,-29.7412 1.4684,-66.6135 -29.2604,-81.2865 -10.18687,-4.8643 -10.66202,-4.9535 -26.37376,-4.9535 -15.22284,0 -16.4382,0.2069 -25.02158,4.2595 -16.48992,7.7856 -30.64,24.6897 -34.28602,40.959 -1.26362,5.6385 -1.23291,7.121 1.08132,8.3364 6.46448,3.3951 4.34595,4.1416 3.47631,4.1649 -2.478,0.066 -19.76028,-14.2168 -23.6023,-17.2534 -3.66015,-2.8928 -2.22847,-4.1934 -1.73,-5 0.52704,-0.8527 5.03851,-1.4664 10.78071,-1.4664 8.39545,0 10.08098,-0.386 11.25364,-2.5771 1.6214,-3.0297 0.9975,-3.3096 -11.95208,-5.3623 -19.16067,-3.0373 -33.19091,-0.9997 -32.22639,4.68 1.07385,6.3237 19.32269,20.2186 36.55972,27.8372 4.46085,1.9716 11.64249,4.5042 11.64249,5.6777 0,0.6249 1.03629,2.5163 -0.36318,2.8115 -1.08442,0.2288 -4.62582,-1.067 -4.94598,-1.067 -0.73333,0 -0.47234,4.1993 -0.47234,5.7271 0,4.0381 -4.1102,-0.5548 -4.61814,-4.8499 -0.31288,-2.6456 -1.63956,-4.0917 -5.06828,-5.5243 -7.209,-3.0121 -25.95312,-15.7416 -31.54845,-21.4251 -15.65628,-15.9031 -2.66587,-23.5529 31.56943,-18.5907 15.38097,2.2294 15.90208,2.2238 17.17605,-0.1856 2.55672,-4.8355 15.26495,-15.8668 22.39821,-19.4426 19.40302,-9.7266 39.00556,-10.0783 58.30722,-1.0459 10.7392,5.0254 23.9312,17.5892 29.5625,28.1546 4.652,8.728 8.4996,26.4868 7.1743,33.1133 -0.958,4.7899 -0.2364,5.5538 12.9611,13.7219 19.0381,11.7828 26.775,23.4641 19.7423,29.8072 -2.444,2.2044 -4.8664,2.5275 -18.3333,2.4452 -8.5345,-0.052 -19.0126,-0.854 -23.2847,-1.7821 -6.7875,-1.4745 -8.0624,-1.4205 -10.105,0.4281 -1.2856,1.1635 -11.7364,9.7722 -13.0756,9.7722 -1.3899,0 -7.6538,-0.03 -4.2265,-1.6655 10.3024,-4.917 11.5557,-8.6579 12.5076,-8.6579 z m 23.3112,-18.4722 -4.0222,-2.9737 -1.1446,3.0563 c -0.9806,2.618 -0.6428,3.177 2.3554,3.8985 5.2241,1.2571 5.0686,0.8487 5.8133,0.1546 0.7446,-0.6941 -0.7898,-2.5002 -3.0019,-4.1357 z m -23.3112,-5.3294 c 14.694,-9.8287 14.5981,-30.2267 -0.191,-40.6209 -10.5604,-7.4221 -26.27734,-4.296 -33.83194,6.7292 -4.73598,6.9117 -4.75482,20.4474 -0.038,27.3311 7.88939,11.5138 22.46004,14.3203 34.06094,6.5606 z m -20.98327,-7.6189 c -4.43613,-2.4071 -7.68343,-8.3155 -7.68343,-13.98 0,-5.8011 7.44516,-13.2662 13.2307,-13.2662 4.132,0 4.1473,0.026 1.9864,3.3236 -4.68019,7.1429 2.0044,14.8131 10.2102,11.7158 4.6266,-1.7464 5.1512,0.019 1.8835,6.3376 -3.6901,7.1357 -12.46,9.7582 -19.62737,5.8692 z m -35.11863,7.3444 c 5.50416,-3.7242 11.44979,-14.4203 11.40592,-20.519 -0.0161,-2.2394 -1.13696,-6.4716 -2.49077,-9.4049 -5.84228,-12.6585 -19.57536,-18.3933 -31.80731,-13.2825 -9.4817,3.9617 -15.00597,12.2837 -15.00597,22.6055 0,10.369 4.25144,17.213 14,22.5374 5.86433,3.203 17.72243,2.2421 23.89813,-1.9365 z m -21.33786,-8.1167 c -5.97323,-2.8984 -8.71624,-11.7164 -5.92684,-19.0531 1.5038,-3.9553 8.651,-8.7419 13.06397,-8.7491 2.92409,-0.01 2.95411,0.112 0.85303,3.3186 -2.79942,4.2724 -2.26325,9.4289 0.96054,11.5437 3.24256,2.1271 5.77816,2.2157 9.32195,0.7904 4.06098,-1.6333 3.83375,-2.167 3.83375,1.2044 0,2.0941 -1.74491,5.1495 -4.53334,7.9379 -3.6434,3.6434 -6.00113,4.6018 -10.12674,4.5293 -2.82334,-0.05 -5.92114,-0.7819 -7.44632,-1.522 z m -26.71768,-30.6868 c 0.46342,-2.3172 0.6016,-4.454 0.30704,-4.7486 -1.35544,-1.3554 -15.48296,-1.9796 -15.48296,-0.684 0,1.3545 11.51416,9.6455 13.39525,9.6455 0.51595,0 1.31724,-1.8958 1.78067,-4.2129 z m 93.75964,46.3114 3.6564,-1.1517 c 1.8333,-0.022 10.6197,2.1684 12.1858,2.4779 l 6.1217,1.2102 c 0,0 2.7508,2.332 -1.1115,2.0318 -3.8623,-0.3002 -13.3451,-3.1012 -20.8524,-4.5682 z"
       id="path60540" />
    <path
       style="fill:none;stroke:#aa12fd;stroke-width:5.3;stroke-linecap:round;stroke-linejoin:miter;stroke-miterlimit:4;stroke-dasharray:none;stroke-opacity:1"
       d="m 906.37806,1206.5144 c 11.47636,5.4471 11.47636,5.4471 11.47636,5.4471"
       id="path9542" />
    <path
       style="fill:none;stroke:#aa12fd;stroke-width:5.3;stroke-linecap:round;stroke-linejoin:miter;stroke-miterlimit:4;stroke-dasharray:none;stroke-opacity:1"
       d="m 1008.4502,1244.7099 c 12.2348,3.4193 12.2348,3.4193 12.2348,3.4193"
       id="path10553" />
    <path
       style="fill:#7e00d5;fill-opacity:1;stroke:#000000;stroke-width:1.4;stroke-linecap:round;stroke-linejoin:round;stroke-miterlimit:4;stroke-dasharray:none;stroke-opacity:1;paint-order:fill markers stroke"
       d="m 1019.6471,1226.86 -7.7191,-1.5353 4.3228,-1.6923 c 3.956,-1.5487 6.7181,-4.7624 9.0746,-8.034 7.471,-10.3725 7.1807,-26.666 -2.5064,-36.4374 -5.2604,-5.3062 -11.4822,-8.0847 -19.0276,-8.4973 -11.92043,-0.6517 -22.15946,5.6403 -27.73768,17.0452 l -1.62366,4.2778 -2.14271,-5.2932 c -2.24607,-5.5485 -5.65383,-8.7764 -10.51809,-12.0071 -12.48162,-8.2899 -27.83827,-6.032 -37.39299,5.4979 -1.82068,2.197 -4.81895,7.7833 -5.413,10.0854 l -0.26681,1.0339 -1.76455,-1.0334 c -2.42248,-1.4188 -2.60026,-2.8036 -1.11957,-8.7209 4.06689,-16.2525 17.31644,-31.9831 33.7961,-40.1246 7.82121,-3.8639 15.64394,-5.4135 24.96503,-5.3225 9.32109,0.091 16.50688,1.3159 24.12353,4.8786 21.365,9.9935 34.4565,27.8837 36.9916,50.5508 0.7247,6.4798 0.1126,13.6899 -1.7653,20.7957 -1.2317,4.6604 -6.259,16.1418 -7.0353,16.0673 -0.2254,-0.022 -3.4839,-0.7122 -7.2409,-1.5346 z"
       id="path13581" />
    <path
       style="fill:none;stroke:#000000;stroke-width:4.1;stroke-linecap:butt;stroke-linejoin:miter;stroke-miterlimit:4;stroke-dasharray:none;stroke-opacity:1"
       d="m 984.68763,1218.1204 c -1.1792,0.1169 -14.9,-6.558 -14.9,-6.558"
       id="path16062" />
    <path
       style="fill:#a615f9;fill-opacity:1;stroke:#000000;stroke-width:1.44957;stroke-linecap:butt;stroke-linejoin:round;stroke-miterlimit:4;stroke-dasharray:none;stroke-opacity:1;paint-order:fill markers stroke"
       d="m 911.97588,1196.3495 c -11.54184,-4.9613 -23.58414,-12.5741 -29.7557,-17.6442 -6.17156,-5.0701 -9.11804,-6.8522 -9.58392,-11.7256 -0.0104,-3.2171 6.29086,-5.3905 15.70641,-5.4174 8.64409,-0.025 26.6259,2.6557 28.18091,4.2007 0.6547,0.6505 0.65455,0.6914 -0.007,1.9988 -0.63392,1.2526 -1.34999,1.8122 -3.03435,2.3714 -0.38849,0.129 -4.28565,0.3748 -8.66034,0.5462 -8.70926,0.3414 -10.32456,0.6863 -10.94615,2.3372 -0.45342,1.2043 -0.0139,2.2075 1.6518,3.7697 2.22615,2.0879 15.5268,12.466 19.21416,14.9923 1.87787,1.2866 3.42333,2.3506 3.43435,2.3645 0.011,0.014 -0.0651,1.081 -0.16911,2.3714 l -0.18913,2.3461 z"
       id="path21149" />
    <path
       style="fill:#a615f9;fill-opacity:1;stroke:#000000;stroke-width:1.44957;stroke-linecap:butt;stroke-linejoin:round;stroke-miterlimit:4;stroke-dasharray:none;stroke-opacity:1;paint-order:fill markers stroke"
       d="m 1050.8886,1240.3427 c -10.8678,-0.5225 -27.5512,-3.2355 -42.2721,-6.8738 -4.2542,-1.0514 -9.16613,-2.0317 -13.98793,-3.4477 -13.39869,-3.9349 -26.69123,-8.9025 -27.77199,-10.1962 -0.52281,-0.6258 0.23838,-2.3689 1.84985,-4.2357 l 1.2091,-1.4006 5.55585,2.5495 c 3.05572,1.4022 6.16556,2.7624 6.91076,3.0226 0.7452,0.2602 2.13231,1.0658 3.08245,1.7901 2.29623,1.7504 6.04199,3.4859 9.51576,4.4088 2.17091,0.5768 4.02609,0.7681 7.95765,0.8206 4.8223,0.064 5.5738,0.1756 12.6538,1.8737 9.5436,2.2889 13.4094,2.8126 22.1872,3.0059 6.364,0.1401 7.1952,0.091 8.3069,-0.4918 2.4993,-1.3101 1.4747,-4.4324 -2.6193,-7.9816 -5.0849,-4.4085 -5.9092,-5.3341 -5.9113,-6.6377 0,-1.7944 0.6231,-3.7326 1.5594,-4.828 l 0.8338,-0.9755 2.0359,0.9901 c 6.4088,3.1169 20.0994,13.1403 24.2173,17.7305 2.0408,2.2748 3.5833,5.0624 3.5879,6.4838 0,1.4817 -1.2327,2.7411 -3.2828,3.341 -3.4608,1.0127 -8.8652,1.3767 -15.6182,1.052 z"
       id="path21188" />
    <path
       style="fill:#7e00d5;fill-opacity:1;stroke:#000000;stroke-width:0.362392;stroke-linecap:butt;stroke-linejoin:round;stroke-miterlimit:4;stroke-dasharray:none;stroke-opacity:1;paint-order:fill markers stroke"
       d="m 976.24199,1212.3156 c -0.90075,-0.4296 -2.22484,-1.0606 -2.94244,-1.4022 l -1.30472,-0.6212 0.20727,-0.4155 c 0.11399,-0.2286 0.57156,-1.3714 1.0168,-2.5395 0.44525,-1.1682 1.00539,-2.631 1.03769,-2.6907 0.0323,-0.06 0.52326,1.7346 1.30079,3.4334 0.77632,1.6962 1.64623,3.5099 1.93313,4.0306 0.28691,0.5206 0.75863,1.2517 0.75868,1.2666 2.2e-4,0.066 -0.46517,-0.326 -2.0072,-1.0615 z"
       id="path25983" />
    <path
       style="fill:#fdfdfd;fill-opacity:1;stroke:#000000;stroke-width:2.05;stroke-linecap:butt;stroke-linejoin:round;stroke-miterlimit:4;stroke-dasharray:none;stroke-opacity:1;paint-order:fill markers stroke"
       d="m 940.80741,1222.2083 c -4.49204,-1.0311 -8.37119,-3.5234 -10.55095,-5.5628 -2.17977,-2.0394 -3.87841,-4.2608 -5.46258,-7.3952 -3.33724,-6.6029 -3.37997,-15.012 -0.11137,-21.9184 4.25658,-8.994 15.16741,-14.7511 24.9049,-13.141 10.04514,1.6609 18.30282,9.1677 20.97574,20.0036 0.66843,2.7098 0.4719,5.0063 0.007,7.2836 -1.1972,5.8621 -6.40935,13.7529 -10.59212,16.6507 -2.39929,1.6622 -6.09835,3.6941 -8.83799,4.3717 -2.73965,0.6777 -6.62483,0.5588 -10.33244,-0.2922 z m 10.65253,-10.8303 c 2.4029,-1.1498 5.85124,-4.3353 7.64457,-7.0618 1.18597,-1.8031 1.53616,-2.8908 1.53014,-4.7525 -0.009,-2.7948 -0.11152,-2.8295 -4.13439,-1.4009 -1.56307,0.555 -3.35382,1.0059 -3.97945,1.0018 -2.01896,-0.013 -5.33666,-1.8559 -6.4163,-3.5642 -1.48041,-2.3424 -1.19127,-6.5625 0.64064,-9.3502 1.96691,-2.9932 1.79993,-3.5628 -1.04011,-3.5477 -2.8013,0.015 -6.85673,1.7719 -9.91863,4.2975 -3.96733,3.2725 -5.46218,8.8571 -3.94002,14.7198 1.9246,7.4126 6.05464,10.3862 14.50336,10.4421 2.16917,0.014 4.04245,-0.273 5.11019,-0.7839 z"
       id="path30113" />
    <path
       style="fill:#fdfdfd;fill-opacity:1;stroke:#000000;stroke-width:2.05;stroke-linecap:butt;stroke-linejoin:round;stroke-miterlimit:4;stroke-dasharray:none;stroke-opacity:1;paint-order:fill markers stroke"
       d="m 996.34052,1222.2632 c -4.23073,-1.1247 -7.65615,-3.1256 -10.94498,-6.3932 -3.59811,-3.5749 -5.03542,-6.1313 -6.02122,-10.7092 -1.32014,-6.1306 -0.61135,-13.4651 1.75396,-18.1497 1.53125,-3.0328 6.66068,-7.9316 10.03375,-9.5826 9.90217,-4.8469 19.57747,-3.4919 27.39697,3.837 10.2397,9.5972 10.773,24.2558 1.2345,33.933 -6.3674,6.46 -15.4435,9.194 -23.45298,7.0647 z m 8.76388,-9.2884 c 5.0357,-1.097 8.9666,-4.7721 11.0131,-10.296 1.3435,-3.6267 0.9883,-4.4133 -1.8107,-4.0096 -1.1956,0.1725 -3.1821,0.4582 -4.4144,0.635 -2.7836,0.3992 -4.7773,-0.3674 -6.7444,-2.5932 -2.3046,-2.6078 -2.4511,-4.6296 -0.6088,-8.4027 0.852,-1.7447 1.5482,-3.4259 1.5472,-3.7359 0,-0.3585 -1.1388,-0.5582 -3.1268,-0.5488 -2.5272,0.012 -3.60683,0.2932 -5.64395,1.4705 -4.82897,2.7906 -8.16937,7.7356 -8.17624,12.1038 -0.0111,7.0404 4.6742,13.566 10.9345,15.2294 2.98209,0.7924 3.97459,0.8132 7.03049,0.1475 z"
       id="path30152" />
  </g>
</svg>
