<?xml version="1.0" encoding="UTF-8" standalone="no"?>
<!-- Created with Inkscape (http://www.inkscape.org/) -->

<svg
   version="1.1"
   id="svg29092"
   width="177.85609"
   height="215.22134"
   viewBox="0 0 177.85609 215.22135"
   xmlns="http://www.w3.org/2000/svg"
   xmlns:svg="http://www.w3.org/2000/svg">
  <defs
     id="defs29096" />
  <g
     id="g29098"
     transform="translate(-844.73469,-990.12497)">
    <g
       id="g29387"
       transform="translate(102.61057,-227.79974)">
      <path
         style="fill:#cfb28b;stroke-width:1.333;stroke-miterlimit:4;stroke-dasharray:none"
         d="m 811.92581,1430.2162 c -11.23963,-2.3743 -28.36166,-10.4528 -36.88846,-17.405 -7.49341,-6.1095 -18.25476,-21.8801 -23.76299,-34.8243 -6.68654,-15.7131 -8.5106,-25.5551 -8.44788,-45.5818 0.0487,-15.5306 0.54116,-19.6091 3.59002,-29.7288 6.02698,-20.0047 14.1519,-34.1026 28.09953,-48.7568 21.92757,-23.0383 50.66804,-35.2685 82.74311,-35.2103 14.33596,0.026 33.99516,3.4588 40.86568,7.1358 5.00255,2.6772 8.34721,12.7095 8.41043,25.2268 0.0667,13.1939 -2.01179,18.5754 -10.65986,27.601 -3.02086,3.1528 -5.08668,5.7323 -4.5907,5.7323 1.64825,0 15.11636,14.4624 18.2566,19.6044 8.2963,13.5848 11.71476,38.3871 7.86478,57.0623 -4.18725,20.3112 -16.45672,40.4625 -31.62114,51.9344 -22.26876,16.8462 -47.61826,22.753 -73.85912,17.21 z m 57.72196,-105.328 c 1.98625,-1.4419 5.01694,-5.4237 6.73486,-8.8485 4.4447,-8.8606 3.13883,-15.699 -4.4496,-23.3013 -5.39528,-5.4051 -6.02458,-5.6666 -13.63461,-5.6666 -6.08263,0 -9.02252,0.7128 -12.37329,3 -12.93974,8.8325 -12.024,29.2284 1.62492,36.1915 5.73397,2.9252 17.15285,2.2146 22.09772,-1.3751 z m -8.28919,-8.2665 c -5.44069,-2.3261 -9.88692,-8.1656 -9.88692,-12.9851 0,-8.424 -3.19817,1.1305 4.99779,1.1305 3.19516,0 3.39652,0.3382 2.63099,4.4188 -1.05129,5.604 -9.25773,-2.3474 -3.57342,-3.4842 3.73531,-0.7471 3.99669,-0.5356 3.99669,3.2335 0,10.906 11.35082,11.755 1.83487,7.6865 z m -39.69617,5.5143 c 6.24162,-4.6601 8.72753,-9.2377 8.83196,-16.2637 0.21661,-14.5725 -15.97199,-24.6285 -28.56857,-17.746 -14.29317,7.8095 -14.27804,27.934 0.0265,35.3515 5.70517,2.9584 14.77764,2.3408 19.71003,-1.3418 z m -21.27815,-9.7193 c -3.70845,-3.7085 -3.32159,0.7964 -3.32159,-3.7595 0,-7.4798 5.55864,-13.3641 12.62452,-13.3641 4.75518,0 -1.68457,1.2554 -2.50865,5.6479 -1.10927,5.9129 2.08403,9.369 7.54776,8.1689 4.40787,-0.9681 9.99258,-7.4845 7.22967,-0.8723 -3.86302,9.2455 -14.45356,11.2972 -21.57171,4.1791 z"
         id="path29391" />
      <path
         style="fill:#1c1713;stroke-width:1.33333"
         d="m 818.9225,1432.3372 c -15.17575,-2.0988 -32.44855,-9.4571 -44.46797,-18.9579 -12.54923,-9.9197 -24.77821,-31.7807 -29.93222,-53.3675 -3.78974,-15.8728 -2.96043,-44.6943 1.58787,-58.9188 10.37911,-32.4599 30.00788,-56.6163 59.94979,-71.2636 15.71442,-7.6874 27.18074,-10.6425 45.05147,-11.6007 15.29711,-0.8203 26.6394,-0.1609 40.06308,4.2263 8.15281,2.6646 10.29037,4.4299 13.14449,11.9011 3.59777,9.4179 3.80331,24.4651 0.6736,31.6875 -1.18494,2.7344 -3.81646,8.2571 -6.86689,12.0701 l -5.40113,6.7512 4.10241,2.9268 c 23.02295,16.4255 28.74967,52.496 17.74368,85.4715 -9.76749,29.2647 -37.18721,52.8165 -68.6401,58.5138 -9.76507,1.7688 -18.93828,1.6762 -27.00808,0.5602 z m 23.42363,-3.7405 c 2.28729,-0.9017 2.26866,-1.0915 -0.33896,-3.4513 -1.5176,-1.3734 -3.37382,-4.7794 -4.12492,-7.5687 -1.47426,-5.4749 -0.47539,-12.3164 1.61002,-11.0275 0.7051,0.4358 0.93527,1.6959 0.5115,2.8002 -1.14599,2.9864 1.48961,11.4221 4.6177,14.7797 3.17958,3.4128 7.5086,3.7288 13.98947,1.0209 l 4.59949,-1.9218 -3.97564,-3.9756 c -3.69306,-3.6931 -5.89932,-12.1938 -2.64232,-10.1808 0.73334,0.4532 1.33334,1.9652 1.33334,3.3601 0,3.3043 5.07913,7.9885 8.58474,7.9173 1.51172,-0.031 4.81142,-1.1545 7.33266,-2.4972 4.14604,-2.2081 4.3221,-2.5245 1.84252,-3.3116 -1.50787,-0.4785 -3.81368,-2.0548 -5.12406,-3.5026 -2.00676,-2.2175 -2.06024,-2.6327 -0.3391,-2.6327 1.12386,0 2.79032,0.9 3.70324,2 2.08877,2.5168 7.87566,2.5139 11.20466,0 2.2881,-1.7317 2.32092,-2.0042 0.33334,-2.7669 -3.75812,-1.4421 -2.4271,-3.2549 2.12866,-2.8991 3.35531,0.262 4.33651,-0.1856 4.34739,-1.9835 0.008,-1.2771 0.60773,-2.3699 1.33333,-2.4284 4.40703,-0.3554 13.73155,-15.3058 18.99444,-30.4545 3.01167,-8.6689 3.51879,-12.3383 3.51879,-25.4619 0,-13.2491 -0.49471,-16.7589 -3.6396,-25.8217 -6.12844,-17.6606 -15.37515,-28.2727 -31.17925,-35.7834 -14.51218,-6.8967 -34.8603,-7.0589 -49.41868,-0.3938 l -7.21716,3.3041 3.37157,4.0069 c 1.85436,2.2038 3.75347,5.2101 4.22023,6.6807 1.18214,3.7247 2.09006,3.3093 6.71901,-3.0742 6.89232,-9.5048 17.67353,-12.6316 28.27729,-8.201 6.61182,2.7626 9.58527,5.6054 12.49834,11.9491 4.23448,9.2214 2.7454,20.1254 -3.76376,27.5606 -1.73327,1.9798 -1.64186,2.392 0.82309,3.7112 1.52511,0.8162 4.04425,3.976 5.59808,7.0218 4.22764,8.2868 3.18923,24.2965 -2.22729,34.3391 -5.03107,9.3279 -12.92724,15.3615 -22.78051,17.407 -28.54891,5.921 -61.80864,-24.5603 -61.80864,-56.6511 0,-4.88 -0.77208,-8.0162 -2.52068,-10.2392 -1.38638,-1.7625 -3.2899,-5.8934 -4.23003,-9.1798 -2.06753,-7.2274 -4.26028,-9.9595 -11.24767,-14.0142 -6.3887,-3.7073 -13.72401,-5.2268 -19.76306,-4.0938 -3.9593,0.7427 -4.65616,1.5701 -6.58219,7.815 -1.86223,6.038 -4.98971,20.9268 -4.98971,23.7542 0,0.5207 2.55,0.3594 5.66667,-0.3585 8.47809,-1.9527 30.33333,1.2653 30.33333,4.4664 0,1.4436 0.36099,1.4786 -10.2506,-0.9949 -8.42621,-1.9642 -18.17389,-1.8379 -23.76564,0.3079 -3.32786,1.277 -1.93186,25.4249 2.0798,35.9764 l 1.34439,3.536 4.82955,-4.8295 c 7.25409,-7.2541 15.47053,-10.7307 26.7625,-11.324 6.49574,-0.3412 9.66667,-0.023 9.66667,0.9713 0,0.924 -3.12711,1.4839 -8.33333,1.4921 -5.91294,0.01 -10.27514,0.9172 -15.0189,3.1263 -7.52154,3.5026 -16.64777,11.468 -16.64777,14.5303 0,2.9018 9.9786,22.2658 13.91197,26.997 2.62027,3.1518 3.33563,3.4939 3.37342,1.6136 0.14165,-7.0501 11.62025,-20.6096 20.52853,-24.2501 7.08939,-2.8972 10.18608,-3.5968 10.18608,-2.3012 0,0.6832 -2.59779,2.2342 -5.77285,3.4468 -11.20802,4.2803 -18.65906,11.8708 -22.15982,22.5745 -2.02937,6.2049 -0.71,8.064 11.266,15.8752 l 8,5.2179 0.79159,-7.1143 c 0.97103,-8.727 4.22377,-15.8285 10.10752,-22.0671 5.86388,-6.2175 7.40862,-4.5497 1.75255,1.8922 -6.33354,7.2135 -9.54,15.2857 -9.05715,22.8013 l 0.40549,6.3112 8.66667,2.9528 c 4.76667,1.624 10.00182,2.974 11.63367,3 2.63824,0.041 2.82292,-0.3317 1.66667,-3.3729 -2.51718,-6.6207 -0.8785,-21.038 2.85941,-25.1577 2.14931,-2.3688 2.37877,0.036 0.50537,5.2955 -2.28689,6.4207 -2.50538,14.7635 -0.53468,20.4167 1.44911,4.1569 1.55256,4.198 10.33334,4.1052 4.87825,-0.052 9.9587,-0.5231 11.28988,-1.048 z m 16.75046,-44.9335 c 14.04406,-4.1706 22.91555,-17.287 22.75396,-33.6414 -0.0948,-9.599 -2.3069,-15.9954 -6.64274,-19.2083 -3.2067,-2.3761 -3.66115,-2.3924 -8.64282,-0.311 -3.77068,1.5755 -7.23096,1.9651 -12.232,1.3774 -6.21989,-0.7311 -7.13977,-0.5096 -8.50858,2.048 -2.31667,4.3287 -0.72582,14.0809 2.94697,18.0654 5.91701,6.4192 17.67841,9.2668 21.12451,5.1145 1.84053,-2.2177 2.1861,-10.2926 0.55353,-12.9342 -0.76904,-1.2443 -1.30019,-0.7936 -1.86012,1.5783 -0.61656,2.6118 -1.62404,3.3199 -4.7236,3.3199 -3.46857,0 -3.98979,-0.5173 -4.35699,-4.3238 -0.34026,-3.5273 0.19668,-4.6034 2.91498,-5.8419 1.83264,-0.835 4.23537,-1.1716 5.3394,-0.7479 6.1678,2.3668 8.73674,15.8593 4.01332,21.0787 -2.10362,2.3244 -3.6628,2.6815 -9.57044,2.1916 -7.8405,-0.6502 -12.6373,-3.5214 -17.28016,-10.3432 -3.46586,-5.0924 -4.09099,-15.3452 -1.17847,-19.3283 1.62056,-2.2162 1.37897,-2.8635 -2.18973,-5.8663 -2.2062,-1.8564 -5.04967,-5.6946 -6.31883,-8.5294 -2.20909,-4.9341 -2.34272,-5.014 -3.13172,-1.8704 -1.15092,4.5857 -9.10799,11.1891 -15.58403,12.9329 -4.27684,1.1516 -6.87989,1.0415 -12.19245,-0.5158 l -6.75466,-1.9801 0.69762,8.6909 c 1.70541,21.2458 20.11627,43.4851 40.68687,49.1474 8.5292,2.3478 11.94234,2.3303 20.13618,-0.1029 z m 6.82922,-39.9717 c 0,-2.9457 -0.33643,-3.2002 -2.61702,-1.9796 -2.85934,1.5302 -2.31657,5.3599 0.75967,5.3599 1.09916,0 1.85735,-1.3799 1.85735,-3.3803 z m 2.68022,-18.2864 c 6.38052,-4.3425 8.65117,-9.1642 9.34096,-15.7862 1.89681,-18.2094 -19.29534,-29.337 -33.11635,-17.7074 -5.6092,4.7198 -7.54915,8.4689 -7.5433,15.9801 0.009,12.1635 6.94222,19.4933 19.34613,19.5024 4.86584,0 8.81972,0.1569 11.97256,-1.9889 z m -18.39117,-5.7476 c -3.30515,-2.315 -6.95572,-8.6049 -6.95572,-11.9847 0,-4.6296 4.31705,-11.1143 8.82248,-13.2523 6.58736,-3.1259 9.27448,-2.2745 8.76749,2.778 -0.52601,5.2422 2.41956,7.8047 7.74667,6.7393 3.84379,-0.7688 3.99669,-0.617 3.99669,3.9673 0,6.9335 -7.10097,13.8333 -14.23665,13.8333 -2.84351,0 -6.50693,-0.9364 -8.14096,-2.0809 z m -30.88741,2.9878 c 13.61441,-6.4605 14.69836,-24.7306 1.93559,-33.2567 -12.84855,-8.5834 -28.99216,0.4807 -28.99216,15.928 0,15.5428 12.80749,24.0903 27.05657,17.3287 z m -14.23058,-4.167 c -9.54079,-4.1273 -11.38425,-14.1267 -3.97107,-21.5399 6.11835,-6.1183 14.56287,-6.3186 11.32499,-0.2686 -2.23205,4.1707 1.97384,9.4938 6.92684,8.7668 3.0459,-0.447 3.88151,-0.059 3.88151,1.8034 0,8.8466 -9.74784,14.8783 -18.16227,11.2383 z m -10.41541,-28.8289 3.27521,-3.4224 -7.24145,-8.0021 c -3.98279,-4.4011 -9.93423,-9.4305 -13.22543,-11.1765 -5.20301,-2.7602 -6.27709,-2.9313 -8.22983,-1.3106 -2.56833,2.1315 -14.00082,21.2159 -14.00082,23.3717 0,0.8305 1.84812,1.2111 4.4219,0.9106 6.31792,-0.7376 14.32912,1.748 21.78788,6.7601 l 6.45688,4.3388 1.74022,-4.0236 c 0.95712,-2.213 3.21406,-5.5637 5.01544,-7.446 z m 20.08121,-6.1763 c 6.26636,0.6468 8.47551,0.1755 16.20915,-3.4579 7.77516,-3.6529 10.71417,-4.2737 22.32373,-4.7153 11.81268,-0.4494 14.5706,-0.094 23.68108,3.0504 l 10.31135,3.559 3.39808,-2.6729 c 12.2436,-9.6308 16.15549,-24.8392 10.72328,-41.6891 0,0 -1.87488,-5.2465 -3.752,-7.0962 -2.2006,-2.1684 -7.536,-3.1418 -7.536,-3.1418 -4.87421,-1.4924 -11.2622,-3.0837 -14.19553,-3.5363 l -5.33334,-0.823 v 17.9942 c 0,12.3689 -0.50786,18.5021 -1.62457,19.6188 -1.2772,1.2772 -1.45104,-1.2236 -0.81303,-11.6961 0.44634,-7.3264 0.39376,-16.1066 -0.1168,-19.5115 -0.85414,-5.6959 -1.28193,-6.2572 -5.3508,-7.0205 -3.9587,-0.7426 -25.5743,1.1053 -26.75646,2.2875 -0.26091,0.2609 0.67458,3.8777 2.07888,8.0374 3.12212,9.2481 5.05641,30.412 2.77949,30.412 -0.91484,0 -1.53004,-2.314 -1.53004,-5.7551 0,-12.896 -5.12368,-31.5783 -8.66043,-31.5783 -2.2036,0 -14.97048,4.508 -21.00624,7.4172 -4.77732,2.3028 -6.3352,4.9336 -3.83606,6.4782 1.56313,0.966 10.31846,21.6611 11.46698,27.1046 0.55059,2.6096 0.3839,4.3334 -0.41904,4.3334 -0.73333,0 -1.75464,-1.95 -2.26957,-4.3334 -1.10396,-5.1096 -12.04223,-29 -13.27772,-29 -1.87952,0 -13.77908,8.9508 -20.97436,15.7768 l -7.64311,7.2509 6.30977,3.951 c 7.72744,4.8386 14.28924,10.9631 17.78527,16.5998 2.44921,3.9489 2.91687,4.1461 6.70288,2.8262 2.2385,-0.7803 7.3348,-1.0818 11.32516,-0.67 z"
         id="path29389" />
      <path
         style="fill:#fdfdfd;fill-opacity:1;stroke:#1c1713;stroke-width:0.355965;stroke-linecap:round;stroke-linejoin:round;stroke-miterlimit:4;stroke-dasharray:none;stroke-opacity:1;paint-order:fill markers stroke"
         d="m 956.82407,1099.4529 c -2.68335,-0.2342 -5.4958,-0.9863 -7.56071,-2.0219 -5.11293,-2.5642 -8.05967,-6.9708 -9.0817,-13.5809 -0.20001,-1.2936 -0.23017,-6.2291 -0.0459,-7.5043 0.48044,-3.324 1.34819,-5.5506 3.04023,-7.8011 1.50314,-1.9992 4.03917,-4.3634 6.26499,-5.8404 6.67842,-4.4317 15.19629,-4.3907 22.05627,0.1061 5.27934,3.4607 8.49549,8.8249 9.06176,15.1142 0.22854,2.5383 -0.21458,6.3524 -1.03578,8.9154 -0.67036,2.0921 -3.75863,6.8183 -5.59566,8.5633 -0.81588,0.775 -2.47273,2.0208 -3.37234,2.5358 -1.33586,0.7647 -3.21024,1.2851 -5.3266,1.479 -0.96005,0.088 -7.48616,0.1149 -8.4046,0.035 z m 6.97292,-5.8181 c 2.49754,-0.6328 4.86098,-1.9649 6.8287,-3.849 2.59466,-2.4845 4.15861,-5.3817 4.53788,-8.4064 0.21206,-1.6912 0.0627,-4.322 -0.28388,-5.0015 -0.35959,-0.7048 -1.18062,-0.7936 -3.28953,-0.3556 -1.28653,0.2671 -3.23107,0.3391 -4.10849,0.1522 -2.06939,-0.4411 -3.42871,-1.8402 -3.87068,-3.9842 -0.1168,-0.5666 -0.14321,-1.1978 -0.12435,-2.9718 0.0232,-2.1848 0.0173,-2.2691 -0.19762,-2.8096 -0.28381,-0.7137 -0.84479,-1.2695 -1.50165,-1.4876 -0.39375,-0.1308 -0.68795,-0.1525 -1.51854,-0.1122 -1.52803,0.074 -3.07873,0.5674 -5.48787,1.7451 -1.58019,0.7726 -2.53229,1.4758 -3.90727,2.8861 -3.58495,3.6771 -5.57887,8.4811 -4.88976,11.7811 0.42676,2.0436 1.86531,5.0385 3.43479,7.1509 2.35343,3.1674 3.91078,4.248 7.29965,5.0646 1.70107,0.41 2.56336,0.5009 4.42408,0.4667 1.46815,-0.027 1.85429,-0.066 2.65454,-0.2688 z"
         id="path54552"
         transform="translate(-102.61057,227.79974)" />
      <path
         style="fill:#fdfdfd;fill-opacity:1;stroke:#1c1713;stroke-width:0.71193;stroke-linecap:round;stroke-linejoin:round;stroke-miterlimit:4;stroke-dasharray:none;stroke-opacity:1;paint-order:fill markers stroke"
         d="m 909.39794,1096.8609 c -7.07469,-1.1874 -12.48849,-6.8285 -13.96486,-14.5511 -1.84993,-9.6766 2.17804,-18.3116 10.36797,-22.2266 0.83826,-0.4007 2.19276,-0.9041 3.01001,-1.1187 1.91582,-0.5029 5.35419,-0.6733 7.29011,-0.3612 6.08966,0.9818 11.99985,5.4227 14.714,11.056 2.41579,5.014 2.49053,10.9326 0.20181,15.9803 -2.5813,5.6929 -8.44073,9.9007 -15.49729,11.1288 -1.73873,0.3026 -4.6113,0.346 -6.12175,0.092 z m 6.15353,-5.3017 c 5.21295,-1.0767 9.18631,-4.9419 10.17332,-9.8962 0.39025,-1.9589 0.28922,-3.2144 -0.30997,-3.8523 l -0.44454,-0.4731 -2.5075,0.126 c -2.3029,0.1158 -2.59517,0.093 -3.58191,-0.2794 -1.50839,-0.5693 -3.07985,-2.0623 -3.75992,-3.5721 -0.73766,-1.6376 -0.71914,-2.9491 0.0667,-4.7269 0.67032,-1.5163 0.7783,-2.8656 0.28563,-3.569 -0.93109,-1.3293 -3.63111,-1.2572 -6.72606,0.1797 -3.39157,1.5745 -6.57189,4.5955 -8.19593,7.7853 -3.2041,6.293 -0.92977,13.1702 5.51167,16.6663 3.24731,1.7625 6.27145,2.2762 9.48848,1.6117 z"
         id="path54591"
         transform="translate(-102.61057,227.79974)" />
    </g>
    <path
       style="fill:#000000;stroke-width:1.33333"
       id="path29367"
       d="" />
    <path
       style="fill:#000000;stroke-width:1.33333"
       id="path29347"
       d="" />
    <path
       style="fill:#000000;stroke-width:1.33333"
       id="path29327"
       d="" />
  </g>
</svg>
