<?xml version="1.0" encoding="UTF-8" standalone="no"?>
<!-- Created with Inkscape (http://www.inkscape.org/) -->

<svg
   version="1.1"
   id="svg873"
   width="127.18612"
   height="159.38651"
   viewBox="0 0 127.18612 159.38651"
   xmlns="http://www.w3.org/2000/svg"
   xmlns:svg="http://www.w3.org/2000/svg">
  <defs
     id="defs877" />
  <g
     id="g879"
     transform="translate(-940.54166,-1153.0191)">
    <g
       id="g71087"
       transform="translate(136.11442,-22.68607)">
      <path
         style="fill:#fcfd86;stroke-width:1.33333"
         d="m 855.59571,1326.7272 c -5.56357,-7.1643 -6.26236,-8.8131 -6.26236,-14.7759 0,-3.6915 -0.82881,-8.0407 -1.8418,-9.6649 -1.01299,-1.6242 -2.18277,-6.9213 -2.59953,-11.7714 -1.49178,-17.361 -10.54638,-33.0033 -22.64636,-39.1229 -5.95995,-3.0143 -12.48747,-10.0497 -15.07911,-16.2523 -1.00825,-2.4131 -1.82003,-7.8568 -1.80392,-12.097 0.0503,-13.2192 6.56139,-23.2535 18.79947,-28.9717 3.38914,-1.5836 8.18914,-4.5933 10.66666,-6.6883 2.47752,-2.095 7.80459,-5.3631 11.83792,-7.2626 6.28366,-2.9592 9.14642,-3.4534 20,-3.4525 14.12082,0 19.8098,1.888 30.66667,10.1715 3.3,2.5178 8.58731,5.3443 11.74956,6.281 12.37144,3.6647 21.58377,16.4736 21.58377,30.0102 0,13.6285 -6.74241,23.8702 -19.4928,29.6095 -5.98032,2.6919 -7.44738,4.1995 -11.84,12.1664 -6.61762,12.0025 -10.00053,22.0849 -10.00053,29.8058 0,3.9687 -0.73904,6.908 -2,7.9545 -1.35999,1.1287 -2,4.1517 -2,9.4467 0,7.1946 -0.43628,8.3229 -5.73675,14.8367 -5.20565,6.3973 -6.29228,7.0866 -11.73762,7.4457 -5.9112,0.3897 -6.09452,0.2751 -12.26327,-7.6685 z m 17.71549,3.8696 c 1.85098,-1.9476 0.3715,-3.4722 -5.39257,-2.8555 -7.73262,0.8274 -5.90385,1.9083 -4.67479,3.0537 1.04164,0.9707 8.84585,1.087 10.06736,-0.1982 z m -2.47202,-4.574 c 1.27034,-0.9453 -0.32629,-1.7276 -0.87654,-0.8068 -1.18746,1.9877 7.22723,0.1057 9.12616,-2.0545 3.30121,-3.7554 -1.3941,-3.0028 -10.87288,-3.096 -14.43614,-0.1419 -14.08674,1.598 -9.98973,4.3826 1.54639,1.051 8.69561,2.4959 10.91101,0.8473 z m -19.20794,-78.8294 c 18.19459,-10.5471 17.52931,-39.0919 -1.13298,-48.6127 -9.05023,-4.617 -16.65455,-4.7225 -25.15666,-0.3489 -18.40058,9.4656 -21.71428,33.2524 -6.45222,46.3161 9.40688,8.052 21.70162,9.0454 32.74186,2.6455 z m -16.81128,-5.705 c -12.6215,-6.3412 -16.66013,-17.235 -5.56143,-25.9653 4.02288,-3.1644 -5.19011,3.5051 -1.14678,4.7885 2.23716,0.7101 -3.25028,10.7082 3.80816,2.4915 2.89699,-3.3724 -0.0491,0.015 3.00405,3.0679 2.30368,2.3037 -8.46528,3.4998 -4.07347,2.7975 l 5.36388,-0.8577 7.51904,-1.2371 c 7.04734,-1.1596 -4.81315,12.2554 -10.63944,15.0201 -5.87996,2.7903 7.51608,2.8036 1.72599,-0.1054 z m 75.84672,7.6999 c 11.18876,-6.7172 16,-14.4498 16,-25.7151 0,-9.0016 -1.2585,-12.4433 -6.89925,-18.8677 -8.9866,-10.2352 -20.92204,-12.4908 -33.18851,-6.2722 -16.05202,8.1378 -20.57486,28.0773 -9.67829,42.6681 7.37397,9.8739 24.17205,13.9468 33.76605,8.1869 z m -12.65909,-16.1822 c -8.86712,-3.941 -20.78224,0.7479 -18.42587,-8.003 2.29144,-8.5098 11.13421,-15.1999 19.07029,-14.4278 4.06111,0.3951 -3.86402,3.1783 -4.2443,8.35 -0.51572,7.0136 2.93211,10.4922 9.62491,9.7108 5.42707,-0.6336 6.20909,-7.8793 4.2021,-0.9401 -1.62073,5.6036 -3.55743,8.0126 -9.21348,11.4606 -5.28433,3.2214 4.797,-3.5679 -1.01365,-6.1505 z"
         id="path71097" />
      <path
         style="fill:#e4e773;stroke-width:1.33333"
         d="m 855.59571,1326.7272 c -5.56357,-7.1643 -6.26236,-8.8131 -6.26236,-14.7759 0,-3.6915 -0.82881,-8.0407 -1.8418,-9.6649 -1.01299,-1.6242 -2.18277,-6.9213 -2.59953,-11.7714 -1.49178,-17.361 -10.54638,-33.0033 -22.64636,-39.1229 -5.95995,-3.0143 -12.48747,-10.0497 -15.07911,-16.2523 -1.00825,-2.4131 -1.82003,-7.8568 -1.80392,-12.097 0.0503,-13.2192 6.56139,-23.2535 18.79947,-28.9717 3.38914,-1.5836 8.18914,-4.5933 10.66666,-6.6883 2.47752,-2.095 7.80459,-5.3631 11.83792,-7.2626 6.28366,-2.9592 9.14642,-3.4534 20,-3.4525 14.12082,0 19.8098,1.888 30.66667,10.1715 3.3,2.5178 8.58731,5.3443 11.74956,6.281 12.37144,3.6647 21.58377,16.4736 21.58377,30.0102 0,13.6285 -6.74241,23.8702 -19.4928,29.6095 -5.98032,2.6919 -7.44738,4.1995 -11.84,12.1664 -6.61762,12.0025 -10.00053,22.0849 -10.00053,29.8058 0,3.9687 -0.73904,6.908 -2,7.9545 -1.35999,1.1287 -2,4.1517 -2,9.4467 0,7.1946 -0.43628,8.3229 -5.73675,14.8367 -5.20565,6.3973 -6.29228,7.0866 -11.73762,7.4457 -5.9112,0.3897 -6.09452,0.2751 -12.26327,-7.6685 z m 18.44917,2.1904 c 0.0991,-0.5891 -3.02436,-0.6352 -6.00797,-0.6764 -2.98363,-0.041 -5.75539,0.5001 -5.44379,1.152 0.91128,1.9064 10.80464,3.37 11.45176,-0.4756 z m -4.25801,-3.5979 c -0.73948,2.984 0.46202,2.5148 1.40577,0.5147 0.98807,-2.094 5.32607,-0.1624 7.36143,-2.1945 3.26224,-3.2571 -1.21016,-4.3854 -10.36023,-4.4023 -10.51849,-0.019 -13.05115,2.1716 -9.96765,5.2105 1.33171,1.3125 7.4319,2.3076 9.6473,0.659 z m 14.13316,-26.3437 c 0.68934,-0.4261 0.25344,-2.9694 0.95254,-4.2092 2.19573,-3.8939 -1.55266,-2.7668 -16.87255,-2.7668 l -18.32471,-1.8091 -0.54242,4.0455 2.86713,5.9964 14.5331,0.4554 c 8.11726,0.2543 16.69756,-1.2862 17.38691,-1.7122 z m 2.05909,-18.6427 c 1.28776,-3.4833 4.36928,-10.0308 6.84782,-14.55 2.47852,-4.5191 4.50641,-8.8691 4.50641,-9.6666 0,-0.7975 -1.65,-1.4557 -3.66667,-1.4626 -5.617,-0.019 -16.95913,-7.1861 -20.46756,-12.9331 -1.69704,-2.7799 -3.56481,-5.2556 -4.15062,-5.5016 -0.5858,-0.2459 -0.72595,-0.9959 -0.31143,-1.6666 0.41451,-0.6707 0.42631,-1.2195 0.0263,-1.2195 -0.40011,0 -1.5438,1.95 -2.54154,4.3334 -1.84865,4.4159 -14.03873,16.1721 -17.24097,16.6272 -0.56059,0.08 -3.387,0.5449 -6.28092,1.0338 l -5.26167,0.889 4.40439,6.4028 c 2.42241,3.5216 5.54133,10.3728 6.93093,15.225 l 2.52655,8.8221 h 16.16884 16.16884 l 2.3414,-6.3333 z m -34.34788,-33.1399 c 18.19459,-10.5471 17.52931,-39.0919 -1.13298,-48.6127 -9.05023,-4.617 -16.65455,-4.7225 -25.15666,-0.3489 -18.40058,9.4656 -21.71428,33.2524 -6.45222,46.3161 9.40688,8.052 21.70162,9.0454 32.74186,2.6455 z m -20.46068,-17.0012 c -12.6215,-6.3412 -19.18885,-6.0112 -8.09015,-14.7415 4.02288,-3.1644 4.28367,1.1094 8.32703,2.3927 2.23716,0.7101 4.64516,0.5125 3.5736,2.5147 -2.09779,3.9198 -2.56193,2.2068 0.49118,5.2599 2.30368,2.3037 10.02212,6.858 6.69256,3.9093 l -5.06033,-4.4816 0.25235,-2.4231 c 0.48721,-4.6782 -19.45764,4.861 -10.63944,15.0201 4.26634,4.9151 10.24329,-4.5415 4.4532,-7.4505 z m 79.49612,18.9961 c 11.18876,-6.7172 16,-14.4498 16,-25.7151 0,-9.0016 -1.2585,-12.4433 -6.89925,-18.8677 -8.9866,-10.2352 -20.92204,-12.4908 -33.18851,-6.2722 -16.05202,8.1378 -20.57486,28.0773 -9.67829,42.6681 7.37397,9.8739 24.17205,13.9468 33.76605,8.1869 z m -20.18451,-16.1119 c -8.86712,-3.941 -8.28513,3.1085 -5.92876,-5.6424 2.29144,-8.5098 6.98166,-5.6338 14.91774,-4.8617 4.06111,0.3951 -1.67741,-5.4585 -2.0577,-0.2868 -0.51572,7.0136 -25.0379,14.6775 2.10918,2.3358 4.97403,-2.2614 6.67267,1.6629 4.66568,8.6021 -1.62073,5.6036 8.593,-4.5532 2.93695,-1.1052 -5.28433,3.2214 -10.83244,3.5408 -16.64309,0.9582 z m -14.77186,-31.4322 c 2.10107,-2.5261 6.8388,-5.659 11.27808,-7.458 l 7.65504,-3.1021 -1.76024,-3.2094 c -1.07464,-1.9594 -3.19808,-2.5658 -3.74808,-2.4378 -0.55,0.128 -2.49507,-0.307 -2.49507,-0.9834 0,-1.3668 -7.29566,-1.1119 -15.05968,-2.4178 -6.84289,-1.1511 -18.92609,1.4465 -26.16872,5.6255 l -5.92169,3.4168 6.16096,1.5643 c 9.34203,2.372 18.50623,10.3139 21.54348,18.67 0.87873,2.4176 1.13112,2.3026 2.92727,-1.3333 1.08109,-2.1885 3.59598,-5.9391 5.58865,-8.3348 z"
         id="path71095" />
      <path
         style="fill:#9d9d9d;stroke-width:1.33333"
         d="m 856.61506,1326.0476 c -5.56357,-7.1643 -5.21025,-7.6925 -5.21025,-13.6553 0,-3.6915 -0.4913,-9.3663 -1.50429,-10.9905 -1.01299,-1.6242 -4.59174,-6.0367 -5.0085,-10.8868 -1.49178,-17.361 -10.54638,-33.0033 -22.64636,-39.1229 -5.95995,-3.0143 -12.48747,-10.0497 -15.07911,-16.2523 -1.00825,-2.4131 -1.82003,-7.8568 -1.80392,-12.097 0.0503,-13.2192 6.56139,-23.2535 18.79947,-28.9717 3.38914,-1.5836 8.18914,-4.5933 10.66666,-6.6883 2.47752,-2.095 7.80459,-5.3631 11.83792,-7.2626 6.28366,-2.9592 9.14642,-3.4534 20,-3.4525 14.12082,0 19.8098,1.888 30.66667,10.1715 3.3,2.5178 8.58731,5.3443 11.74956,6.281 12.37144,3.6647 21.58377,16.4736 21.58377,30.0102 0,13.6285 -6.74241,23.8702 -19.4928,29.6095 -5.98032,2.6919 -7.44738,4.1995 -11.84,12.1664 -6.61762,12.0025 -10.00053,22.0849 -10.00053,29.8058 0,3.9687 -0.73904,6.908 -2,7.9545 -1.35999,1.1287 -2.95273,3.5075 -2.95273,8.8025 0,7.1946 -0.43628,8.3229 -5.73675,14.8367 -5.20565,6.3973 -5.77488,5.4081 -11.22022,5.7672 -5.9112,0.3897 -4.63984,1.9182 -10.80859,-6.0254 z m 17.18049,3.2489 c 0.18793,-0.5671 -2.77503,-1.0141 -5.75864,-1.0553 -2.98363,-0.041 -5.88291,0.3047 -5.64513,0.9869 0.83628,2.3995 10.30271,3.3908 11.40377,0.068 z m -2.95637,-3.2737 c 1.27034,-0.9453 0.55025,-0.9208 0,0 -1.18746,1.9877 7.51417,-1.0063 9.54766,-3.0403 1.33294,-1.3333 -3.76779,-5.2132 -12.51422,-5.2132 -10.04529,0 -12.02503,4.3002 -9.64643,6.6788 1.32215,1.3221 6.88624,2.9149 9.10164,1.2663 z m 10.16084,-26.8632 c 2.04708,-0.5486 3.96174,-1.0824 4.53844,-3.1727 1.41966,-5.1457 -1.41075,-4.2075 -17.53844,-3.9869 l -18.32471,-1.8091 -0.19937,4.8473 2.52408,4.9618 13,-0.018 c 7.15,-0.011 14.35,-0.38 16,-0.8221 z m 3.99388,-15.3389 c 0.40933,-1.5653 3.35316,-8.2063 6.54184,-14.7578 3.18869,-6.5515 5.79761,-12.4708 5.79761,-13.154 0,-0.6833 -1.35,-1.2554 -3,-1.2715 -8.20419,-0.08 -22.46512,-11.3858 -24.47795,-19.4055 -0.85333,-3.4 -0.9806,-3.3151 -4.36717,2.9138 -4.57391,8.4128 -12.82272,14.5836 -22.05712,16.5007 l -7.29132,1.5136 4.58456,6.0061 c 2.52151,3.3034 5.84851,10.1674 7.39332,15.2533 l 2.80875,9.2472 h 16.66162 c 15.89014,0 16.69608,-0.1317 17.40586,-2.8459 z m -33.36266,-36.6273 c 18.19459,-10.5471 17.52931,-39.0919 -1.13298,-48.6127 -9.05023,-4.617 -16.65455,-4.7225 -25.15666,-0.3489 -18.40058,9.4656 -21.71428,33.2524 -6.45222,46.3161 9.40688,8.052 21.70162,9.0454 32.74186,2.6455 z m -14.68525,-11.1647 c -12.6215,-6.3412 -24.70136,1.6417 -13.60266,-7.0886 4.02288,-3.1644 5.30061,0.7751 9.34397,2.0584 2.23716,0.7101 2.61947,-16.7507 1.54791,-14.7485 -2.09779,3.9198 0.0454,6.7708 3.09847,9.8239 2.30368,2.3037 -2.76939,1.0724 1.62241,0.3701 l 3.27621,6.2297 -6.84663,-8.4841 c -4.4853,-5.5581 5.43958,5.2861 -0.38671,8.0508 -5.87996,2.7903 7.73712,6.6973 1.94703,3.7883 z m 73.72069,13.1596 c 11.18876,-6.7172 16,-14.4498 16,-25.7151 0,-9.0016 -1.2585,-12.4433 -6.89925,-18.8677 -8.9866,-10.2352 -20.92204,-12.4908 -33.18851,-6.2722 -16.05202,8.1378 -20.57486,28.0773 -9.67829,42.6681 7.37397,9.8739 24.17205,13.9468 33.76605,8.1869 z m -13.40215,-11.0519 c -8.86712,-3.941 -12.76712,-7.7881 -10.41075,-16.539 2.29144,-8.5098 3.8697,-9.8852 11.80578,-9.1131 4.06111,0.3951 -4.82623,0.7534 -5.20651,5.9251 -0.51572,7.0136 2.93211,10.4922 9.62491,9.7108 5.42707,-0.6336 9.38618,-6.4675 7.37919,0.4717 -1.62073,5.6036 -3.55743,8.0126 -9.21348,11.4606 -5.28433,3.2214 1.83151,0.6665 -3.97914,-1.9161 z m -18.37354,-38.6857 c 3.09877,-2.6525 8.05084,-5.4734 11.0046,-6.2688 5.13177,-1.3818 5.25343,-1.535 2.73744,-3.4464 -4.91008,-3.7302 -14.35528,-7.1504 -21.9344,-7.9426 -8.48221,-0.8865 -19.0186,1.6249 -26.69861,6.3638 l -4.66667,2.8796 5.33333,1.5911 c 11.13898,3.3231 16.87056,7.7894 21.34722,16.6348 l 2.32581,4.5956 2.45857,-4.7923 c 1.35222,-2.6357 4.99394,-6.9624 8.09271,-9.6148 z"
         id="path71093" />
      <path
         style="fill:#5c5c5b;stroke-width:1.33333"
         d="m 856.62112,1327.3489 c -5.61204,-6.569 -6.28668,-8.0681 -6.5932,-14.6507 -0.1878,-4.033 -0.95898,-8.0901 -1.71374,-9.0155 -0.75476,-0.9255 -1.72091,-5.1692 -2.14698,-9.4304 -1.04521,-10.4532 -3.03844,-17.413 -7.54185,-26.3342 C 834.9101,1260.5582 826.82687,1252 823.59075,1252 c -3.41323,0 -12.05067,-8.7267 -15.08304,-15.2389 -5.55612,-11.932 -3.69147,-24.7687 5.03853,-34.6865 2.79227,-3.1722 7.46851,-6.7246 10.39166,-7.8942 2.92313,-1.1696 8.89418,-4.7615 13.269,-7.9821 9.95237,-7.3265 21.9656,-10.8855 33.28033,-9.8595 9.44069,0.856 22.49472,6.4235 27.63067,11.7842 2.04289,2.1323 4.72884,3.877 5.96874,3.877 1.23991,0 4.35522,0.8778 6.92291,1.9506 16.64747,6.9558 24.16551,26.4339 16.48724,42.7161 -3.79136,8.0397 -7.50475,11.6405 -15.77903,15.3006 -7.20554,3.1874 -9.8593,6.5092 -16.68898,20.8906 -3.71206,7.8165 -5.07075,12.5662 -5.46536,19.1057 -0.32906,5.453 -1.32382,9.6072 -2.66375,11.1242 -1.46241,1.6556 -2.04676,4.5315 -1.84817,9.0957 0.26461,6.0817 -0.24987,7.3767 -5.7918,14.5789 -5.56888,7.2372 -6.51706,7.9042 -11.23451,7.9042 -4.5956,0 -5.82781,-0.7906 -11.40407,-7.3177 z m 16.71223,1.8331 c 0,-0.6501 -2.85,-1.1629 -6.33333,-1.1396 -5.48355,0.037 -6.02707,0.2751 -4.05078,1.7765 2.42524,1.8425 10.38411,1.3544 10.38411,-0.6369 z m 5.06667,-5.4487 c 3.13064,-3.1306 1.45169,-3.7333 -10.4,-3.7333 -6.6,0 -12,0.48 -12,1.0666 0,2.8799 3.90029,4.2667 12,4.2667 5.06666,0 9.47878,-0.6788 10.4,-1.6 z m 3.49094,-24.5426 c 1.15999,-0.4452 3.44412,-2.8597 3.91839,-4.5492 1.44019,-5.1304 -1.65319,-2.6415 -17.80933,-2.6415 l -18.32471,-1.8091 -0.19937,4.8473 2.52408,4.9618 h 13.89094 c 7.64003,0 14.84003,-0.3642 16,-0.8093 z m 4.17023,-16.8574 c 0.51684,-2.3833 3.26451,-8.97 6.10593,-14.6371 2.84143,-5.667 5.16623,-10.917 5.16623,-11.6666 0,-0.7496 -1.35,-1.3761 -3,-1.3922 -8.07064,-0.079 -20.37623,-9.6767 -24.26525,-18.9259 l -1.61003,-3.8292 -2.46115,5.4579 c -4.31285,9.5642 -15.73377,17.3264 -25.49306,17.3264 -2.47712,0 -4.50384,0.336 -4.50384,0.7467 0,0.4107 2.11484,3.5164 4.69964,6.9016 2.58481,3.3852 5.94325,10.2492 7.46321,15.2533 l 2.76355,9.0984 h 17.09753 17.09752 z m -35.11244,-34.5711 c 16.69105,-9.2271 19.30341,-32.7276 5.06773,-45.5887 -18.27582,-16.5111 -46.68313,-3.6351 -46.68313,21.1598 0,22.0802 22.24404,35.1377 41.6154,24.4289 z m -16.76955,-10.8806 c -7.46048,-3.8255 -11.09825,-10.1792 -10.29473,-17.9807 0.79081,-7.6783 -7.11209,6.4898 -0.0333,3.3585 6.36816,-2.8169 15.60287,-2.3649 12.62021,0.6178 -0.80581,0.8058 -5.4889,-6.6541 -5.4889,-4.3478 0,5.7859 3.89972,9.0658 9.94052,8.3606 4.66504,-0.5446 0.75693,-5.8317 0.75693,-0.9326 0,5.9415 -5.03087,12.6205 -11.56159,15.3492 -5.94806,2.4853 10.85752,-0.9398 4.06089,-4.425 z m 76.20106,12.8805 c 12.21096,-7.5493 18.87184,-19.7385 16.96234,-31.0407 -1.41798,-8.393 -7.62174,-16.809 -15.234,-20.6664 -19.42329,-9.8425 -41.51262,3.7958 -41.41264,25.5688 0.0537,11.7106 7.56954,22.6499 18.15374,26.4231 7.16533,2.5544 17.15189,2.4223 21.53056,-0.2848 z m -9.26531,-8.7262 c -11.7418,-3.1171 -17.67281,-17.6899 -11.392,-27.9907 3.44748,-5.6541 -1.22985,8.4988 5.10793,8.1122 4.80854,-0.2934 -9.42233,-3.7006 -9.64516,-0.6241 -0.61664,8.5125 6.63685,15.3562 12.78715,12.0647 2.60004,-1.3915 6.05547,-13.3432 6.05082,-8.6359 -0.005,5.682 -3.67736,12.587 -8.26469,15.5425 -3.54983,2.287 9.21433,2.5556 5.35595,1.5313 z m -22.30584,-41.5152 c 2.84388,-2.4342 7.7052,-5.1852 10.80293,-6.1134 5.37696,-1.6109 5.51339,-1.7785 3.01011,-3.6975 -13.54197,-10.3812 -35.31807,-10.7949 -49.81155,-0.9463 -4.5024,3.0594 -4.5819,3.2372 -1.45342,3.2495 9.15402,0.036 21.56726,9.4775 25.27205,19.2218 l 1.47884,3.8897 2.76517,-5.5889 c 1.52084,-3.0739 5.09198,-7.5806 7.93587,-10.0149 z"
         id="path71091" />
      <path
         style="fill:#050505;stroke-width:1.33333"
         d="m 859.08523,1332.2134 c -6.72766,-7.5283 -10.19691,-12.2393 -10.19691,-19.6473 0,-4.1768 -0.51659,-8.5776 -1.35324,-8.8565 -0.80972,-0.2699 -2.41804,-5.8974 -3.35781,-12.1053 -3.30828,-21.8537 -8.88658,-32.0338 -22.87877,-39.9305 -22.72091,-12.8229 -22.52249,-45.5998 0.77556,-57.1202 4.44915,-2.2 10.67534,-5.5904 13.10744,-7.6421 17.27167,-14.5703 46.06312,-15.0825 62.91617,-0.6569 2.99172,2.5608 6.0451,5.0378 7.06787,5.0378 3.95511,0 16.00634,7.0954 19.33369,11.4578 4.0304,5.2841 7.11413,15.529 7.11413,20.7242 0,12.3926 -9.54971,26.6551 -20.18358,29.8411 -4.47392,1.3404 -5.18409,2.1509 -9.72012,9.7862 -7.36516,12.3974 -11.23336,21.4677 -11.53105,30.6385 -0.19276,5.938 -0.43925,8.8401 -2.26863,9.8638 -1.96273,1.0984 -2.54762,1.8964 -2.19021,8.1011 0.40917,7.1034 -0.38916,8.3704 -5.37311,14.827 -5.01431,6.496 -7.04051,8.5039 -12.78896,8.5574 -4.68912,0.044 -6.41191,-0.5703 -8.47247,-2.8761 z m 13.52042,-2.3407 c 1.29435,-0.8466 0.38423,-1.4272 -4.46821,-1.5168 -3.75581,-0.069 -5.06421,0.2612 -5.05173,0.9332 0.0427,2.2986 7.53,1.8852 9.51994,0.5836 z m 5.00131,-6.0286 c 3.15069,-3.1507 1.58463,-3.3574 -10.83736,-3.3574 -12.42199,0 -9.29076,1.7715 -8.08844,3.0635 1.20232,1.2919 0.10833,1.0616 8.07693,1.0616 5.54313,0 9.90661,0.1746 10.84887,-0.7677 z m 2.70455,-7.2673 c -0.70299,-0.5727 -25.59811,-0.8195 -26.11443,0.096 -0.51631,0.9153 -0.37957,1.3567 0.32206,2.0073 0.70176,0.6506 24.87505,0.4426 25.68765,-0.031 0.77317,-0.4506 0.80771,-1.4995 0.10472,-2.0722 z m 1.78527,-5.34 c -0.9514,-0.8462 -28.58082,-1.5828 -29.27853,-0.4001 -0.29352,0.4976 -0.35357,1.2122 -0.098,1.7303 0.57116,1.1579 28.53732,1.4159 29.46498,0.3187 0.35537,-0.4203 0.32282,-1.2831 -0.0885,-1.6489 z m 1.80609,-14.9193 c 0.71518,-1.881 0.22148,-4.2463 0.22148,-4.2463 0,0 -6.591,-0.071 -16.12433,-0.071 h -17.33334 c 0.0626,1.9691 -0.24088,5.0493 1.03541,6.4177 1.27629,1.3684 0.15593,1.3123 14.36335,1.3109 14.20742,0 16.54111,0 17.83743,-3.4111 z m 1.55983,-15.802 c 1.60079,-2.5201 3.25729,-7.8717 6.20423,-13.6554 2.94693,-5.7837 5.12606,-9.2258 4.93656,-10.5692 -0.19319,-1.3695 -2.15216,-0.9689 -4.86805,-1.4785 -6.02216,-1.1297 -11.26972,-4.7538 -14.27603,-8.093 -1.22565,-1.3613 -4.88316,-5.5475 -5.79093,-7.1491 -0.90776,-1.6016 -1.53385,-3.8216 -2.91322,-3.7149 -1.37937,0.1067 -1.94069,1.4765 -1.94069,1.4765 -4.81209,10.1407 -15.53554,18.5899 -25.57838,18.6489 0,0 -2.19983,-0.1547 -2.30423,1.0309 -0.10441,1.1857 1.42033,3.5646 1.42033,3.5646 3.73832,6.5076 8.71415,16.4137 9.70076,20.7091 0.29481,1.2835 1.34968,3.3121 1.85942,3.8218 0.50972,0.5097 6.72116,0.3137 15.83268,0.9898 0,0 11.42753,-0.2186 14.17834,-2.0053 2.7508,-1.7867 3.53921,-3.5762 3.53921,-3.5762 z m -40.54778,-30.7576 c 6.52269,-1.8149 13.92311,-7.8405 16.84365,-14.2708 4.89836,-10.7848 2.46173,-24.6818 -6.01509,-32.6306 -10.00379,-9.3807 -22.99489,-8.8373 -32.36939,-2.4328 -5.75775,3.9336 -10.09828,7.9823 -12.18353,16.3836 -1.27084,5.1201 -1.32678,8.7123 0.43863,14.5749 4.842,16.0795 17.30552,22.8222 33.28573,18.3757 z m -19.18239,-8.6799 c -3.85175,-2.3865 -7.87891,-8.4349 -8.49849,-15.2129 -0.61958,-6.778 3.95268,-13.2035 7.94338,-15.5609 3.58852,-2.1198 14.8226,-3.2945 14.8226,-1.5499 0,0.4149 -0.65024,1.9693 -1.44499,3.4543 -3.41043,6.3725 5.59643,15.2782 11.99068,11.8561 2.54795,-1.3636 2.78764,-1.1382 2.78764,2.6213 0,5.7421 -3.36478,11.6323 -8.39807,14.7013 -3.12719,1.9068 -7.46204,2.8377 -11.52861,2.4079 -2.86259,-0.3025 -5.59225,-1.4273 -7.67414,-2.7172 z m 88.87243,4.543 c 7.41023,-4.9523 11.25116,-13.3462 11.25116,-20.9528 0,-16.7234 -9.80781,-28.1072 -27.5722,-29.0417 -13.82006,-0.7269 -25.82461,12.5297 -26.05228,29.0027 -0.2253,16.302 9.57783,23.3173 27.19197,26.1358 6.88114,1.1011 9.75636,-1.5184 15.18135,-5.144 z m -27.37833,-4.1353 c -14.96529,-9.1258 -8.40652,-33.4631 9.02289,-33.4807 4.85446,-0.01 5.24705,0.1205 4.17478,4.5637 -0.44723,1.8532 -0.0705,4.9199 2.84845,8.1586 2.78727,3.0926 4.41188,3.4564 8.15856,2.8484 4.1694,-0.6766 4.56871,-0.4536 4.56871,2.5509 0,5.6505 -3.65442,12.3688 -8.2531,15.1725 -5.66157,3.4518 -15.02614,3.537 -20.52029,0.1866 z m -16.50519,-34.8208 c 3.9242,-7.9431 6.39129,-8.7452 18.11454,-13.6784 3.53403,-1.4871 5.75944,-1.2957 1.18919,-4.55 -6.10096,-4.3443 -13.61709,-5.8497 -22.53493,-5.8497 -9.83861,0 -13.40015,0.4191 -21.49253,5.1615 0,0 -3.86964,2.1147 -3.54318,3.4019 0.32645,1.2873 3.97344,0.6244 5.94249,1.4997 1.96905,0.8754 6.11402,3.6798 7.70281,4.7926 4.48559,3.1419 8.06604,5.9298 9.50725,8.9389 1.92281,4.0146 2.61615,5.3402 5.11436,0.2835 z"
         id="path71089" />
    </g>
    <path
       style="fill:#9d9d9d;fill-opacity:1;stroke-width:0.432507;stroke-linecap:round;paint-order:fill markers stroke"
       d="m 996.78719,1302.0151 c -1.08841,-0.045 -1.35109,-0.1391 -1.75443,-0.6238 -0.12236,-0.147 -0.50552,-0.5617 -0.85145,-0.9214 -0.71892,-0.7474 -0.90023,-1.0422 -0.81041,-1.3174 0.22338,-0.6846 1.70608,-1.053 5.1459,-1.279 1.9541,-0.1284 11.136,-0.092 13.2451,0.052 2.5254,0.1729 3.6046,0.4923 3.7484,1.109 0.082,0.3471 -0.3009,0.9957 -1.059,1.7985 -0.4018,0.4256 -0.5525,0.5529 -0.7714,0.6523 -0.5783,0.2625 -1.4322,0.4035 -2.9648,0.4894 -0.9401,0.054 -12.81049,0.087 -13.92791,0.039 z"
       id="path80932" />
    <path
       style="fill:#9d9d9d;fill-opacity:1;stroke-width:0.448218;stroke-linecap:round;paint-order:fill markers stroke"
       d="m 1002.281,1308.2813 c -0.9236,-0.1177 -1.8005,-0.3225 -2.46328,-0.5756 -0.65499,-0.25 -1.0796,-0.9825 -0.81153,-1.4001 0.17442,-0.2715 0.82343,-0.4923 1.81891,-0.6185 0.6681,-0.085 4.6708,-0.085 5.7059,9e-4 1.7967,0.1475 2.7892,0.3929 2.9612,0.7324 0.092,0.1801 0.034,0.3158 -0.2333,0.5562 -0.6329,0.5684 -1.9009,0.9766 -3.8549,1.2409 -0.627,0.085 -2.6362,0.1258 -3.123,0.064 z"
       id="path80971" />
    <path
       style="fill:#f8f8f8;fill-opacity:1;stroke:#050505;stroke-width:0.888616;stroke-linecap:round;stroke-linejoin:round;stroke-opacity:1;paint-order:fill markers stroke"
       d="m 965.55431,1227.3983 c -2.46126,-0.7183 -6.04897,-2.4813 -8.26416,-4.0612 -3.72259,-2.6549 -7.84193,-9.317 -9.64508,-15.5987 -1.13983,-3.9709 -1.14999,-10.1439 -0.0232,-14.0684 1.04708,-3.6468 2.83683,-7.13 4.99759,-9.7264 3.27271,-3.9326 9.86797,-8.2454 15.05614,-9.8456 1.64807,-0.5083 3.35763,-1.1115 7.06579,-1.0887 4.24102,0.026 4.89559,0.5987 7.24045,1.4407 3.82221,1.3725 7.24595,3.5411 10.10605,6.4012 3.05511,3.0551 5.06057,6.3566 6.56058,10.8005 0.99405,2.9449 1.15405,3.949 1.29857,8.1493 0.19706,5.7256 -0.46769,9.0163 -2.76408,13.6842 -2.44705,4.9742 -8.20677,10.1589 -13.95101,12.5582 -4.84435,2.0235 -13.19373,2.6634 -17.67767,1.3549 z m 10.14726,-6.4388 c 7.02357,-1.4647 12.68979,-7.5652 13.71037,-14.7612 0.40731,-2.8719 0.15375,-5.3202 -0.58016,-5.6018 -0.26802,-0.1029 -1.30971,0.1668 -2.31486,0.5992 -4.04871,1.7417 -9.13377,-0.4995 -11.38546,-5.0181 -1.26027,-2.529 -1.21213,-4.5189 0.18136,-7.4967 0.60306,-1.2887 1.01188,-2.5635 0.90851,-2.8329 -0.29542,-0.7698 -2.59611,-0.9767 -6.2476,-0.5617 -3.75913,0.4272 -7.03262,1.1952 -8.64638,2.0285 -3.36031,1.7352 -7.14684,7.4668 -7.96673,12.059 -1.2678,7.101 3.22165,16.4578 9.50284,19.8056 3.82293,2.0376 8.49597,2.6856 12.83811,1.7801 z"
       id="path16967" />
    <path
       style="fill:#f8f8f8;fill-opacity:1;stroke:#050505;stroke-width:0.888616;stroke-linecap:round;stroke-linejoin:round;stroke-opacity:1;paint-order:fill markers stroke"
       d="m 1009.3259,1209.6574 c -0.8464,-3.1175 -0.8453,-11.197 0,-14.5951 1.4948,-5.9954 4.1674,-10.8552 8.1988,-14.9088 4.7134,-4.7395 9.7885,-6.9198 16.1078,-6.9203 11.1508,-7e-4 20.5232,5.3692 24.8832,14.2568 5.6194,11.4548 4.4841,23.3052 -2.5421,31.7819 -2.4802,2.9922 -6.6175,6.7581 -12.7901,8.2805 -2.3237,0.5731 -9.9884,1.0068 -17.4578,-0.784 -7.4693,-1.7907 -13.8383,-7.676 -16.3998,-17.111 z m 31.1535,10.6663 c 4.6411,-1.651 7.3842,-4.1813 9.7615,-9.0042 1.6104,-3.2668 2.5266,-7.9261 1.9022,-9.6724 l -0.3504,-0.9798 -4.1054,0.1153 c -4.7764,0.1342 -5.3119,-0.051 -7.7767,-2.6858 -2.9717,-3.177 -3.5992,-5.2376 -2.9569,-9.7098 0.4187,-2.9151 0.1793,-3.1002 -4.0024,-3.0951 -1.8721,0 -4.2232,0.2224 -5.2246,0.489 -8.7281,2.324 -14.3317,12.1124 -12.4908,21.8193 1.1816,6.2309 6.3235,11.6261 12.5912,13.2118 3.0242,0.765 9.8717,0.5008 12.6523,-0.4883 z"
       id="path17006" />
  </g>
</svg>
