<?xml version="1.0" encoding="UTF-8" standalone="no"?>
<!-- Created with Inkscape (http://www.inkscape.org/) -->

<svg
   version="1.1"
   id="svg64669"
   width="164.23596"
   height="157.24739"
   viewBox="0 0 164.23596 157.24739"
   xmlns="http://www.w3.org/2000/svg"
   xmlns:svg="http://www.w3.org/2000/svg">
  <defs
     id="defs64673" />
  <g
     id="g64675"
     transform="translate(-920.04406,-1035.7656)">
    <g
       id="g64756"
       transform="translate(123.02629,-130.98704)">
      <path
         style="fill:#43ddce;stroke-width:1.33333"
         d="m 914.97788,1317.6015 c -1.65429,-1.1587 0.85656,-0.069 0.3829,-3.2912 -0.43182,-2.9373 0.0187,-17.1757 -2.75611,-16.1314 L 907.76562,1300 h -10.48584 -10.48586 l -0.39694,8.3333 -1.27533,5.2283 -3.75659,-9.7776 c -2.81781,-7.3341 -10.69838,12.0676 -10.69838,3.3861 V 1300 H 842.78044 814.8942 l -4.43752,6.6038 c -6.72026,10.0009 4.93943,8.2384 -1.84241,7.1378 -8.68302,-1.409 -7.54816,4.7454 -4.99067,-16.0246 4.28118,-34.7684 3.20658,-34.187 8.32752,-34.187 2.12191,0 -0.54134,-1.9263 -3.68343,-9.4558 -4.95111,-11.8646 -4.94355,-31.1224 -0.86394,-43.2326 5.94719,-17.6539 16.21231,-30.1544 33.68261,-38.5665 9.85558,-4.7456 9.01744,-4.5316 25.44342,-4.5149 16.3883,0.017 16.35652,0.5897 26.18949,5.3182 5.5,2.6447 12.65055,7.3505 15.72309,10.0325 7.04552,6.15 51.8868,61.3107 51.8868,63.9388 0,3.3706 -1.30415,4.8114 -3.93512,6.2194 -2.02114,1.0817 -2.24701,0.129 -6.84338,-3.1719 -6.5588,-4.7102 -13.83318,-3.8794 -18.83801,-0.6001 -4.3258,2.8344 -11.80901,16.4505 -10.33239,19.1119 1.41749,2.555 1.09571,33.6431 1.09571,43.465 0,4.5336 1.01117,6.7981 0.0236,7.5738 -3.11783,2.4487 -3.66609,-0.046 -6.52165,-2.0463 z m -73.70889,-29.1679 c -7.02316,-4.0951 -27.58414,-3.1041 -28.75727,-0.6091 -1.50177,3.1939 6.60382,9.9053 22.356,6.5121 14.01343,-3.0187 15.42753,-0.6399 11.38971,-2.9943 z m 68.67852,-2.3296 c -0.26325,-1.4523 -3.49093,1.8958 -7.83844,1.8958 -6.52027,0 -15.99533,2.2475 -15.99533,4.0595 0,0.6549 9.48628,-0.059 13.88628,-0.059 6.22222,0 11.63376,3.4065 11.35632,1.8759 z m -48.21287,-32.3218 c 9.88784,-2.3543 27.20074,-2.6287 40.2633,-0.7394 11.10789,1.6067 20.12586,0.5747 27.06782,-4.1681 6.56544,-4.4825 14.35187,-4.911 21.40662,0.4699 3.8858,2.9639 5.62386,3.1201 6.56582,1.6328 1.90303,-3.0048 2.12386,-5.7807 -2.55378,-11.2926 -2.44579,-2.882 -12.88834,-15.7029 -23.1885,-28.5668 -10.30017,-12.864 -21.92053,-24.7084 -24.72317,-27.1692 -6.98591,-6.1337 -19.84291,-13.0202 -30.41727,-14.7724 -34.76461,-5.7607 -70.66772,24.531 -70.66772,60.0064 0,16.688 -0.28039,17.1114 15.13713,22.6958 15.14053,5.4841 24.43184,5.8747 41.10975,1.9036 z m -25.44875,-16.5166 c -15.28318,-8.6559 -14.9424,-29.8717 0.5903,-37.7116 3.26902,-1.65 7.25197,-2.8847 10.05913,-2.8847 6.43274,0 12.60328,5.2769 17.5494,9.341 l 4.13265,5.0453 4.41241,-4.9389 c 11.53834,-12.9151 31.78384,-12.1694 37.94478,4.0912 8.90688,23.5078 -18.99584,39.3628 -36.97454,21.6766 l -5.50362,-5.4141 -4.22467,6.2004 c -1.8554,2.7231 -5.06162,4.2346 -7.11634,5.2971 -5.63869,2.9159 -14.65015,2.8202 -20.8695,-0.7023 z m 19.19002,0.1274 c 13.9848,-5.2838 15.62304,-23.3137 4.67273,-33.3722 -4.1144,-3.7793 -6.55614,-6.2223 -12.87973,-6.2223 -5.87665,0 -10.34786,2.4413 -13.71161,5.2717 -5.15739,4.3397 -6.07114,10.3915 -6.07114,15.7534 0,6.0962 2.4235,11.9446 7.04519,15.5537 5.5497,4.3338 14.43542,5.4751 20.94456,3.0157 z m -14.54159,-11.2717 c -5.13369,-4.3197 -6.94501,2.4263 -4.13307,-3.4994 2.18538,-4.6054 2.14588,-0.4847 6.90771,-0.4847 2.21029,0 -0.45236,-9.3265 -1.75366,-7.2429 -2.37294,3.7997 -0.45238,5.7015 3.66171,6.734 1.94432,0.488 4.60759,0.1993 5.9616,-0.6463 3.51299,-2.1939 2.75001,-3.3593 2.75001,1.2038 0,2.7567 1.78899,0.1459 -0.82982,2.7647 -5.17812,5.1782 -6.78109,6.0372 -12.56448,1.1708 z m 62.29489,7.5443 c 10.43848,-9.7517 8.74761,-25.9252 -2.99407,-33.0842 -11.79713,-7.1928 -30.10781,3.2024 -30.10781,17.2979 0,12.6363 9.45065,20.7009 21.54961,19.8067 5.0937,-0.3765 9.04564,-1.6787 11.55227,-4.0204 z m -19.50238,-7.2931 c -5.08797,-4.2812 -7.20462,-0.6057 -4.30178,-6.2192 2.3829,-4.608 3.31065,-5.3405 8.73381,-6.8958 3.76197,-1.079 -3.02278,-0.847 -3.70599,3.3631 -0.4839,2.9818 -0.0107,5.0002 1.53233,6.5438 2.45727,2.4573 4.65449,2.431 5.95078,0.3335 1.72919,-2.7979 0.49196,-4.8079 0.49196,-0.2276 0,11.0495 0.15414,10.5534 -8.70111,3.1022 z"
         id="path64762" />
      <path
         style="fill:#3bdfce;stroke-width:1.33333"
         d="m 912.16286,1322.1962 c -0.82336,-0.9921 -1.88487,-6.3921 -2.35891,-12 L 908.94206,1300 h -11.1377 -11.13768 v 7.8573 c 0,8.6497 -1.75496,5.9964 -9.72263,5.9964 -5.5033,0 -6.27737,0.7454 -6.27737,-7.7661 V 1300 h -27.83333 -27.83333 l -0.83334,4.1666 c -0.45833,2.2917 -0.84152,6.0417 -0.85153,8.3334 -0.0391,8.948 -1.01955,10.1666 -8.17916,10.1666 -9.42005,0 -9.49741,-0.3878 -5.98315,-30 2.88014,-24.2688 4.0376,-28.4126 8.23015,-29.4649 3.93131,-0.9867 3.90309,-0.7419 0.79804,-6.9215 -6.4492,-12.8351 -7.12983,-33.8912 -1.57029,-48.5799 6.13257,-16.2027 20.59186,-30.6798 37.23034,-37.2762 6.20891,-2.4616 10.11874,-2.9724 22.8256,-2.9819 13.69395,-0.011 16.26166,0.3769 24.016,3.6213 14.16887,5.928 21.61616,12.9742 44.78538,42.3732 11.80741,14.9822 22.45741,28.0615 23.66667,29.0651 3.29024,2.7307 2.67984,7.5928 -1.35131,10.7637 -3.49531,2.7494 -3.59276,2.7533 -6.33334,0.2527 -7.98845,-7.2888 -16.49242,-8.2442 -21.79882,-2.4491 -4.60972,5.0344 -8.01962,13.2735 -7.00712,16.9309 0.50754,1.8333 2.03673,13.639 3.3982,26.2349 2.999,27.7457 2.55685,29.7651 -6.51715,29.7651 -3.30345,0 -6.51919,-0.7879 -7.36233,-1.8038 z m -66.85754,-33.6063 c -6.55763,-8.0728 -35.47085,-5.201 -32.44341,3.7329 0.53338,1.574 5.80907,1.4693 18.13811,-0.3701 12.64575,-1.8867 28.55944,14.1848 14.3053,-3.3628 z m 23.91692,-0.1039 c 0.30555,-0.2673 -0.94445,-0.486 -2.77778,-0.486 -2.01874,0 -3.33334,0.7603 -3.33334,1.928 0,1.5262 0.57886,1.6275 2.77779,0.486 1.52777,-0.793 3.02777,-1.6606 3.33333,-1.928 z m 41.62643,-0.2244 c 0,-2.6672 -17.00014,-1.4958 -21.66589,1.1714 -3.10793,1.7766 4.63729,6.1351 14.27189,6.1791 8.3173,0.038 7.394,-5.7407 7.394,-7.3505 z m -50.51532,1.522 c -0.91667,-0.3699 -2.41667,-0.3699 -3.33333,0 -0.91667,0.3699 -0.16667,0.6725 1.66666,0.6725 1.83334,0 2.58334,-0.3026 1.66667,-0.6725 z m -8.33333,-2.5929 c 0,-0.2882 -0.9,-0.5241 -2,-0.5241 -1.1,0 -2,0.5812 -2,1.2915 0,0.7103 0.9,0.9462 2,0.5241 1.1,-0.4222 2,-1.0033 2,-1.2915 z M 876.66668,1288 c 0.45951,-0.7435 -0.53788,-1.3243 -2.25464,-1.3129 -2.47685,0.016 -2.68772,0.273 -1.07869,1.3129 2.48099,1.6033 2.34241,1.6033 3.33333,0 z m 8.03528,-1.0758 c -0.41052,-0.4106 -1.48638,-9e-4 -2.39084,0.9103 -1.30701,1.3169 -1.15386,1.47 0.7464,0.7464 1.31496,-0.5007 2.05496,-1.2462 1.64444,-1.6567 z m -27.72972,0.2702 c -0.44305,-0.443 -1.59306,-0.4904 -2.55556,-0.1052 -1.06364,0.4256 -0.7477,0.7416 0.80556,0.8056 1.40555,0.058 2.19306,-0.2573 1.75,-0.7003 z m 48.36111,-18.5278 c 0,-1.1 -0.56459,-2 -1.25464,-2 -1.68131,0 -2.88547,2.0822 -1.82023,3.1474 1.50159,1.5016 3.07487,0.9145 3.07487,-1.1474 z m -46.33333,-0.3324 c -23.57054,-0.2351 -37.66667,-0.867 -37.66667,-1.6883 0,-0.83 13.72707,-1.3126 37.33333,-1.3126 24,0 37.33334,-0.4762 37.33334,-1.3333 0,-0.8573 -13.37495,-1.3334 -37.45816,-1.3334 -36.2662,0 -37.48023,0.084 -38.15159,2.6517 -0.38139,1.4584 -1.31792,2.2657 -2.08119,1.794 -0.80572,-0.498 -0.98874,-0.2121 -0.43638,0.6817 0.69122,1.1184 11.59392,1.4541 39.87268,1.2276 l 38.9213,-0.3117 z m 56.27857,-5.2064 c 1.86336,0.715 4.72143,-1.494 4.72143,-3.6493 0,-0.7269 -0.80842,-0.216 -1.79648,1.1353 -1.11212,1.5209 -2.12526,1.9248 -2.65956,1.0603 -0.55779,-0.9025 -2.61814,-1.0007 -5.82458,-0.2775 -2.97732,0.6715 -5.57866,0.6068 -6.50477,-0.1618 -1.70723,-1.4169 -5.88128,-0.2994 -5.88128,1.5745 0,0.6549 2.1,1.1907 4.66667,1.1907 2.56666,0 4.66666,0.669 4.66666,1.4867 0,0.8949 1.36958,0.5893 3.44106,-0.768 1.89257,-1.2401 4.21946,-1.956 5.17085,-1.5909 z m -95.48024,-1.3868 c 0.70672,-1.2628 2.94075,-2.2917 5.06625,-2.3333 2.09115,-0.041 3.80208,-0.6744 3.80208,-1.4077 0,-0.7334 -0.3,-1.2278 -0.66666,-1.0988 -0.36667,0.1289 -1.86667,0.6913 -3.33334,1.2496 -2.29904,0.8752 -2.43221,0.7265 -0.96597,-1.0788 1.40499,-1.7298 1.32807,-2.2369 -0.44237,-2.9163 -3.19159,-1.2247 -4.19758,-0.9577 -1.92499,0.5109 1.7298,1.1179 1.69979,1.2953 -0.22223,1.313 -1.22221,0.011 -2.52653,-0.7296 -2.89849,-1.6463 -0.91456,-2.2539 -3.76284,1.6651 -2.90712,4 0.33595,0.9167 0.0296,1.6667 -0.68067,1.6667 -0.71032,0 -1.29149,-0.7 -1.29149,-1.5556 0,-0.8555 -0.34157,-1.214 -0.75905,-0.7965 -1.11734,1.1173 2.46492,6.3521 4.34686,6.3521 0.88716,0 2.1819,-1.0166 2.87719,-2.259 z m -2.87703,0 c -0.40994,-0.6633 -0.25994,-1.9914 0.33334,-2.9514 0.59328,-0.9599 1.4141,-1.2026 1.82405,-0.5393 0.40995,0.6633 0.25995,1.9914 -0.33333,2.9514 -0.59328,0.9599 -1.41411,1.2026 -1.82406,0.5393 z m 26.74536,-2.6641 c -1.28333,-0.3354 -3.38333,-0.3354 -4.66666,0 -1.28334,0.3353 -0.23334,0.6097 2.33333,0.6097 2.56667,0 3.61667,-0.2744 2.33333,-0.6097 z m 23.66364,-0.4191 c -0.45488,-0.7361 -2.37978,-0.9486 -4.27756,-0.4723 -2.63414,0.6612 -3.19638,0.4549 -2.37645,-0.8718 0.81377,-1.3167 0.29656,-1.5298 -2.13447,-0.8793 -1.76466,0.4722 -4.10849,0.9457 -5.20849,1.0522 -2.59556,0.2514 6.20556,2.1055 11.07869,2.3339 2.20224,0.1032 3.4046,-0.3759 2.91828,-1.1627 z m 26.7421,-0.1123 c 0.29526,-0.4777 3.09976,-0.3992 6.23221,0.1746 3.25627,0.5965 6.33679,0.5122 7.19305,-0.1967 0.82372,-0.6821 2.43728,-0.8795 3.58568,-0.4388 1.14842,0.4406 3.17447,0.1692 4.50234,-0.6032 1.97324,-1.1478 1.39934,-1.4117 -3.14124,-1.4449 -3.05555,-0.022 -5.75555,0.466 -6,1.0851 -0.24444,0.619 -2.68963,0.8539 -5.43375,0.522 -2.74412,-0.332 -4.65871,-1.1385 -4.25464,-1.7922 0.40407,-0.6538 -0.21959,-1.1888 -1.38588,-1.1888 -1.16629,0 -2.43268,0.8135 -2.81419,1.8077 -0.505,1.316 -3.39478,1.7693 -10.62517,1.6667 -5.46233,-0.078 -9.93136,0.3187 -9.93116,0.8805 4.1e-4,1.2273 21.30408,0.7717 22.07275,-0.472 z m -10.51986,-3.1076 c 2.32056,-0.06 4.67056,-0.5586 5.22222,-1.1086 1.30368,-1.2997 -16.23651,-1.0008 -21.44143,0.3655 -3.90424,1.0248 -3.88143,1.0465 0.95288,0.9062 2.72408,-0.079 5.39275,0.2962 5.93036,0.8338 0.5376,0.5376 1.90881,0.5576 3.04712,0.045 1.13829,-0.5131 3.96828,-0.9818 6.28885,-1.0415 z m -71.6778,-2.9262 c -1.9505,-2.3502 -2.89722,-1.6611 -1.76641,1.2858 0.46076,1.2007 1.40403,1.8332 2.09612,1.4055 0.75027,-0.4637 0.61713,-1.5504 -0.32971,-2.6913 z m 52.12526,0.1961 c 9.20797,-1.9294 13.83376,-2.1665 24.66666,-1.2641 7.33334,0.6109 17.93048,1.0559 23.54922,0.9889 8.90805,-0.1061 10.81248,-0.5768 14.87605,-3.6762 8.12692,-6.1987 16.94365,-5.6622 25.15739,1.531 1.23712,1.0834 2.88712,1.5756 3.66666,1.0938 1.84928,-1.1429 1.83135,-6.972 -0.0249,-8.1192 -0.79328,-0.4903 -9.60883,-11.1757 -19.59011,-23.7454 -20.3412,-25.6162 -18.70153,-23.6646 -27.37944,-32.5886 -17.94325,-18.4521 -45.19538,-22.6625 -69.91356,-10.8014 -3.48768,1.6736 -10.10162,6.7837 -14.69765,11.3558 -9.71033,9.6597 -15.50153,20.8137 -17.56025,33.8213 -1.29842,8.2039 -0.71652,20.9243 1.08354,23.6869 0.45822,0.7032 6.83312,3.4583 14.16646,6.1225 15.20081,5.5223 22.02072,5.7813 42,1.5947 z m -26.02479,-13.1627 c -5.6774,-2.578 -12.35157,-10.6458 -13.39117,-16.1873 -2.65818,-14.1692 8.55749,-27.3205 23.32833,-27.3544 5.23509,-0.012 14.71803,5.308 17.77544,9.9721 l 2.82864,4.3152 2.77349,-4.1156 c 8.98464,-13.3323 28.86431,-13.8043 37.67759,-0.8946 6.39455,9.3667 5.55409,20.5076 -2.12647,28.1881 -9.92348,9.9235 -22.9574,9.6645 -32.88082,-0.6533 l -5.3731,-5.5867 -2.6269,3.9389 c -1.4448,2.1664 -4.25203,5.1377 -6.23828,6.6028 -4.54491,3.3524 -16.18118,4.3021 -21.74675,1.7748 z m 18.17812,-3.6273 c 5.65819,-2.8866 10.42564,-10.6933 10.48405,-17.1675 0.0576,-6.3898 -5.09832,-14.4168 -11.13849,-17.3408 -6.96584,-3.3721 -9.28592,-3.3902 -16.47135,-0.1284 -14.6399,6.6457 -14.84128,27.7576 -0.3343,35.0461 6.08797,3.0587 10.88228,2.9463 17.46009,-0.4095 z m -18.92256,-7.8193 c -3.05667,-3.0566 -3.89744,-5.0922 -3.89744,-9.4358 0,-6.8128 5.62277,-13.3334 11.49744,-13.3334 2.87977,0 3.347,0.3556 2.10256,1.6 -2.0962,2.0962 -2.05437,8.3886 0.0667,10.0298 3.24012,2.5071 6.04168,2.805 9.50077,1.0104 3.32888,-1.727 3.49923,-1.6527 3.49923,1.5265 0,4.7646 -2.15414,8.1665 -6.63998,10.4862 -6.19076,3.2013 -11.68601,2.5596 -16.12925,-1.8837 z m 63.24749,6.7003 c 12.41995,-8.1883 11.82048,-27.8943 -1.03412,-33.9942 -17.9288,-8.5078 -36.13346,11.7312 -25.3523,28.1853 5.21721,7.9625 18.63833,10.9171 26.38642,5.8089 z m -16.0672,-2.8156 c -4.26456,-1.7178 -7.61693,-7.6097 -7.46094,-13.1129 0.10173,-3.5884 1.18308,-5.7367 4.28069,-8.5045 5.71065,-5.1024 9.16072,-4.9753 8.38513,0.3091 -0.32386,2.2067 0.15351,4.9067 1.06086,6 1.86002,2.2412 8.73101,2.6913 9.98986,0.6544 1.67546,-2.7109 3.33247,-1.2062 3.30368,3 -0.0644,9.4204 -10.16441,15.4382 -19.55928,11.6539 z"
         id="path64760" />
      <path
         style="fill:#0a0b0b;stroke-width:1.33333"
         d="m 912.16286,1322.1962 c -0.82336,-0.9921 -1.88487,-6.3921 -2.35891,-12 L 908.94206,1300 h -11.1377 -11.13768 v 7.8573 c 0,8.6497 -0.76113,9.476 -8.7288,9.476 -5.5033,0 -7.2712,-2.7342 -7.2712,-11.2457 V 1300 h -27.83333 -27.83333 l -0.83334,4.1666 c -0.45833,2.2917 -0.84152,6.0417 -0.85153,8.3334 -0.0391,8.948 -1.01955,10.1666 -8.17916,10.1666 -9.42005,0 -9.49741,-0.3878 -5.98315,-30 2.88014,-24.2688 4.0376,-28.4126 8.23015,-29.4649 3.93131,-0.9867 3.90309,-0.7419 0.79804,-6.9215 -6.4492,-12.8351 -7.12983,-33.8912 -1.57029,-48.5799 6.13257,-16.2027 20.59186,-30.6798 37.23034,-37.2762 6.20891,-2.4616 10.03332,-3.6619 22.74018,-3.6714 13.69395,-0.011 16.34708,1.0664 24.10142,4.3108 14.16887,5.928 21.61616,12.9742 44.78538,42.3732 11.80741,14.9822 22.45741,28.0615 23.66667,29.0651 3.29024,2.7307 2.67984,7.5928 -1.35131,10.7637 -3.49531,2.7494 -3.59276,2.7533 -6.33334,0.2527 -7.98845,-7.2888 -16.49242,-8.2442 -21.79882,-2.4491 -4.60972,5.0344 -8.01962,13.2735 -7.00712,16.9309 0.50754,1.8333 2.03673,13.639 3.3982,26.2349 2.999,27.7457 2.55685,29.7651 -6.51715,29.7651 -3.30345,0 -6.51919,-0.7879 -7.36233,-1.8038 z M 842.66668,1290 c -1.20209,-0.6872 -4.14547,-2.0372 -7.57975,-2.4283 -7.9765,-0.9083 -18.93545,-0.2438 -19.2684,0.1446 -0.4763,0.5557 -0.5866,3.0137 -0.0999,3.507 0.48666,0.4933 2.81599,0.7687 15.28143,0.7294 13.68156,-0.043 14.70701,-0.2147 11.66666,-1.9527 z m 38,-0.979 c 4.9368,-1.5622 3.9566,-1.7154 -13.1834,-2.0598 -17.28702,-0.3475 -20.97909,-0.012 -19.22294,1.7435 3.25988,3.2599 22.51042,3.4478 32.40634,0.3163 z m 27.54259,2.6268 c 0.37289,-0.3374 0.12156,-2.964 -0.30135,-3.4413 -0.39817,-0.4493 -13.3246,-0.4455 -17.24124,1.7935 -3.1079,1.7766 -2.6346,1.9087 7,1.9527 8.3173,0.038 9.98406,0.2005 10.54259,-0.3049 z m -1.17213,-23.5871 c 0.39465,-1.5092 2.2839,-2.959 4.48884,-3.4447 6.50129,-1.4322 6.9485,-1.7101 8.93565,-5.5528 l 1.93437,-3.7407 -10.198,-0.067 c -5.60889,-0.037 -16.49798,-0.5451 -24.19798,-1.1288 -11.95966,-0.9067 -15.83692,-0.6532 -26.60424,1.7394 -17.776,3.9501 -24.04972,3.6556 -39.23671,-1.8418 -10.69257,-3.8705 -12.82572,-4.2888 -12.82572,-2.5149 0,2.6594 5.44059,12.491 6.91219,12.491 0.59829,0 1.08781,0.78 1.08781,1.7333 0,4.6575 2.57827,4.9333 46.11116,4.9333 41.45655,0 42.93425,-0.088 43.59263,-2.6059 z m -43.03712,-15.3489 c 9.20797,-1.9294 13.83376,-2.1665 24.66666,-1.2641 7.33334,0.6109 17.93048,1.0559 23.54922,0.9889 8.90805,-0.1061 10.81248,-0.5768 14.87605,-3.6762 8.12692,-6.1987 16.94365,-5.6622 25.15739,1.531 1.23712,1.0834 2.88712,1.5756 3.66666,1.0938 1.84928,-1.1429 1.83135,-6.972 -0.0249,-8.1192 -0.79328,-0.4903 -9.60883,-11.1757 -19.59011,-23.7454 -20.3412,-25.6162 -18.70153,-23.6646 -27.37944,-32.5886 -17.94325,-18.4521 -45.19538,-22.6625 -69.91356,-10.8014 -3.48768,1.6736 -10.10162,6.7837 -14.69765,11.3558 -9.71033,9.6597 -15.50153,20.8137 -17.56025,33.8213 -1.29842,8.2039 -0.71652,20.9243 1.08354,23.6869 0.45822,0.7032 6.83312,3.4583 14.16646,6.1225 15.20081,5.5223 22.02072,5.7813 42,1.5947 z m -26.02479,-13.1627 c -5.6774,-2.578 -12.35157,-10.6458 -13.39117,-16.1873 -2.65818,-14.1692 8.55749,-27.3205 23.32833,-27.3544 5.23509,-0.012 14.71803,5.308 17.77544,9.9721 l 2.82864,4.3152 2.77349,-4.1156 c 8.98464,-13.3323 28.86431,-13.8043 37.67759,-0.8946 6.39455,9.3667 5.55409,20.5076 -2.12647,28.1881 -9.92348,9.9235 -22.9574,9.6645 -32.88082,-0.6533 l -5.3731,-5.5867 -2.6269,3.9389 c -1.4448,2.1664 -4.25203,5.1377 -6.23828,6.6028 -4.54491,3.3524 -16.18118,4.3021 -21.74675,1.7748 z m 18.17812,-3.6273 c 5.65819,-2.8866 10.42564,-10.6933 10.48405,-17.1675 0.0576,-6.3898 -5.09832,-14.4168 -11.13849,-17.3408 -6.96584,-3.3721 -9.28592,-3.3902 -16.47135,-0.1284 -14.6399,6.6457 -14.84128,27.7576 -0.3343,35.0461 6.08797,3.0587 10.88228,2.9463 17.46009,-0.4095 z m -18.92256,-7.8193 c -3.05667,-3.0566 -3.89744,-5.0922 -3.89744,-9.4358 0,-6.8128 5.62277,-13.3334 11.49744,-13.3334 2.87977,0 3.347,0.3556 2.10256,1.6 -2.0962,2.0962 -2.05437,8.3886 0.0667,10.0298 3.24012,2.5071 6.04168,2.805 9.50077,1.0104 3.32888,-1.727 3.49923,-1.6527 3.49923,1.5265 0,4.7646 -2.15414,8.1665 -6.63998,10.4862 -6.19076,3.2013 -11.68601,2.5596 -16.12925,-1.8837 z m 63.24749,6.7003 c 12.41995,-8.1883 11.82048,-27.8943 -1.03412,-33.9942 -17.9288,-8.5078 -36.13346,11.7312 -25.3523,28.1853 5.21721,7.9625 18.63833,10.9171 26.38642,5.8089 z m -16.0672,-2.8156 c -4.26456,-1.7178 -7.61693,-7.6097 -7.46094,-13.1129 0.10173,-3.5884 1.18308,-5.7367 4.28069,-8.5045 5.71065,-5.1024 9.16072,-4.9753 8.38513,0.3091 -0.32386,2.2067 0.15351,4.9067 1.06086,6 1.86002,2.2412 8.73101,2.6913 9.98986,0.6544 1.67546,-2.7109 3.33247,-1.2062 3.30368,3 -0.0644,9.4204 -10.16441,15.4382 -19.55928,11.6539 z"
         id="path64758" />
      <path
         style="fill:#fcfcfc;fill-opacity:1;stroke:#0a0b0b;stroke-width:0.718059;stroke-linecap:round;stroke-linejoin:round;stroke-opacity:1;paint-order:fill markers stroke"
         d="m 965.04573,1106.4707 c -12.54674,-4.0136 -17.76767,-18.6593 -10.53578,-29.5546 2.29496,-3.4575 7.01853,-6.6524 12.04048,-8.1437 3.72626,-1.1066 6.30907,-0.7507 11.16905,1.5389 7.20825,3.396 12.83465,12.9437 11.55351,19.6058 -0.83991,4.3676 -2.39012,8.8045 -5.20385,11.7442 -4.87507,5.0931 -12.47103,6.9054 -19.02341,4.8094 z m 7.42429,-5.7757 c 4.50588,-1.1993 8.17219,-3.8931 9.68829,-7.1185 1.33658,-2.8435 1.49017,-7.9438 0.23922,-7.9438 -0.27963,0 -1.62273,0.5214 -2.98466,1.1587 -3.18744,1.4916 -6.03806,1.4598 -8.43584,-0.223 -2.01441,-1.4137 -2.25907,-2.698 -2.2422,-5.6222 0.0129,-2.2339 0.3209,-3.2599 1.5797,-5.2618 0.77008,-1.2247 -0.0448,-1.6436 -2.82151,-1.4505 -5.8899,0.4097 -10.74665,5.9567 -11.21642,12.8106 -0.2895,4.2236 0.46285,6.4968 3.08903,9.3334 2.38052,2.5712 4.06548,3.7081 6.44831,4.3507 2.27446,0.6135 4.26262,0.6034 6.65608,-0.034 z"
         id="path74773"
         transform="translate(-123.02629,130.98704)" />
      <path
         style="fill:#fcfcfc;fill-opacity:1;stroke:#0a0b0b;stroke-width:0.718059;stroke-linecap:round;stroke-linejoin:round;stroke-opacity:1;paint-order:fill markers stroke"
         d="m 996.33169,1096.1102 c -2.2453,-4.4479 -2.74808,-8.2058 -1.69537,-12.6718 0.81921,-3.4754 2.11056,-7.1826 4.78366,-9.8622 2.61192,-2.6182 6.57662,-4.2401 9.87482,-4.9997 2.5108,-0.5783 7.6897,-0.6089 9.9781,0.063 4.8892,1.4361 8.9205,5.0734 10.9755,9.2737 1.1017,2.2519 2.0648,6.3722 2.0648,8.8337 0,5.5351 -2.1264,11.3532 -5.9615,15.0314 -2.0606,1.9764 -4.8903,3.0646 -7.5287,3.7671 -0.9985,0.2659 -3.5442,0.8676 -6.2749,0.6108 -3.7072,-0.348 -7.8152,-1.7262 -9.4126,-2.5425 -2.7742,-1.4174 -5.90105,-5.7158 -6.80381,-7.5041 z m 20.09571,5.8211 c 6.2705,-1.3305 10.3508,-6.0272 10.6096,-12.2124 0.1898,-4.5375 -0.8203,-5.57 -3.1565,-3.3056 -1.0755,1.0424 -1.8846,0.8604 -3.716,0.9634 -3.0362,0.1709 -5.7444,-0.3652 -6.7286,-2.0549 -0.6113,-1.0495 -0.6121,-2.3837 -0.6121,-5.1109 0,-4.1586 -0.3595,-4.7688 -2.6569,-4.5099 -2.6363,0.2972 -7.6637,4.3019 -9.249,7.3675 -1.57582,3.0473 -1.31943,8.5073 0.5737,12.2182 0.9726,1.9065 3.4936,4.6989 4.8976,5.4249 2.8459,1.4717 6.6641,1.9356 10.0382,1.2197 z"
         id="path74812"
         transform="translate(-123.02629,130.98704)" />
    </g>
  </g>
</svg>
