<?xml version="1.0" encoding="UTF-8" standalone="no"?>
<!-- Created with Inkscape (http://www.inkscape.org/) -->

<svg
   version="1.1"
   id="svg12713"
   width="35.689621mm"
   height="39.294884mm"
   viewBox="0 0 134.88991 148.5161"
   xmlns="http://www.w3.org/2000/svg"
   xmlns:svg="http://www.w3.org/2000/svg">
  <defs
     id="defs12717" />
  <g
     id="g12719"
     transform="translate(-811.77678,-1177.3333)">
    <path
       style="fill:#1c150d;stroke:none;stroke-width:1.33333"
       d="m 813.33335,1177.3333 c -1.95867,8.6854 -2.66362,33.6853 1.4911,38.6371 4.15471,4.9517 -0.41682,46.0516 -0.41682,70.5103 0,8.704 -1.14228,24.7046 3.15905,32.5406 5.02134,9.1453 26.71867,9.3427 30.676,-0.856 2.23867,-5.768 1.09067,-13.428 1.09067,-19.4987 v -40 L 862.66668,1256 c 4.736,35.8706 31.59658,72.1662 66.66667,69.3333 11.85882,-0.9579 4.3585,-31.1519 3.99643,-32.011 -0.4386,-1.0406 -29.2911,-20.553 -38.6631,-37.3223 20.21734,-0.045 33.65734,-7.5574 34.66667,-29.3333 l 14.16985,2.3332 1.44244,-14.1693 1.72104,-24.1639 -133.33333,-13.3334 m 129.33333,17.3334 -2.66666,28 c -18.576,-1.0094 -26.34534,-28.3694 -47.984,-16.2974 -2.80134,1.5627 -5.328,3.596 -7.544,5.908 -3.32267,3.4667 -5.348,7.332 -7.13867,11.7227 h -1.33333 c -3.696,-8.152 -8.87467,-14.872 -17.34,-18.496 -13.99467,-5.992 -30.19067,3.1893 -34.90667,17.1653 -3.52667,10.4534 0.53733,21.5 8.484,28.6573 3.58133,3.224 9.14933,5.336 11.52933,9.6934 2.15734,3.952 1.556,9.312 1.56534,13.648 v 29.3306 c -0.009,4.256 0.64933,9.7347 -1.56534,13.5827 -5.55066,9.6373 -23.45733,4.3533 -24.81733,-5.764 -2.68254,-24.5122 0.9193,-50.1093 1.03867,-74.484 0.0533,-6.424 0.704,-13.4226 -0.62667,-19.744 -0.916,-4.356 -3.64267,-8.0426 -4.15733,-12.512 -0.832,-7.248 0.76533,-15.0853 0.796,-22.4106 l 126.66666,12 m -95.99866,12.8093 c 29.732,-3.5067 34.62666,41.9386 5.332,46.276 -29.872,4.424 -35.49867,-42.7187 -5.332,-46.276 m 53.33333,0.1053 c 27.93867,-4.1413 34.664,39.572 6.664,43.816 -28.88933,4.38 -35.48133,-39.5453 -6.664,-43.816 m 17.332,23.0854 c -7.60267,-2.5107 -8.98,-7.0827 -8,-14.6667 -3.132,-0.5 -6.216,-1.0693 -9.37867,-0.3787 -25.39733,5.5534 -3.34266,42.676 13.508,23.736 2.27734,-2.5613 3.05334,-5.4653 3.87067,-8.6906 M 864.00002,1232 c -6.768,-3.416 -8.52134,-7.3373 -6.66667,-14.6667 -3.12,-0.5106 -6.19733,-1.076 -9.36667,-0.56 -23.49866,3.824 -6.19866,38.2413 11.01334,23.2947 2.53733,-2.204 3.728,-5.0653 5.02,-8.068 m 13.33333,4 c 4.54621,6.7542 7.54372,15.0349 13.46675,21.1775 0,0 9.02584,13.729 15.35624,21.0005 0.75053,0.8621 1.60958,1.8313 2.60434,2.8442 7.39555,7.5311 20.338,18.2764 20.338,18.2764 l -1.09866,22.0347 c -24.25867,-5.6587 -45,-20.9387 -55.30934,-44 -2.656,-5.94 -6.19333,-13.3373 -5.82266,-20 0.42133,-7.548 6.97733,-14.8226 10.46533,-21.3333 z"
       id="path12800" />
    <path
       style="fill:#f59b23;fill-opacity:1;stroke-width:5.5022;stroke-linecap:round;paint-order:fill markers stroke"
       d="m 885.7414,1297.7811 c -5.51033,-6.4834 -8.34893,-10.2391 -12.19531,-18.3351 -3.23521,-6.8096 -5.63402,-12.7016 -6.44858,-17.4434 -0.79168,-4.6086 -0.0614,-8.1235 1.11296,-10.8392 1.47497,-3.411 9.12288,-15.1634 9.12288,-15.1634 0.10128,-0.5193 6.05538,11.4026 26.2342,38.7417 1.98494,2.6893 3.37206,4.1976 4.90716,5.9354 1.35448,1.5333 15.44984,14.3209 20.1353,18.2153 0,0 0.33151,0.2642 0.48867,0.4062 0.84857,0.7668 1.87759,15.4642 -1.09866,22.0347 -7.17174,4.3002 -36.7483,-17.0687 -42.25862,-23.5522 z"
       id="path17379" />
    <path
       style="fill:#fdfdfe;fill-opacity:0;stroke-width:5.5022;stroke-linecap:round;paint-order:fill markers stroke"
       d="m 826.59893,1320.3002 c -4.89186,-2.5026 -6.81299,-5.1798 -7.67673,-10.6979 -0.99521,-6.3581 -0.83692,-30.9335 0.3205,-49.7608 -4.98473,-34.8543 -3.05497,-49.5531 -3.85961,-53.8643 -0.80464,-4.3112 0.36677,-11.3068 0.36677,-11.3068 0.20173,-6.2187 0.45116,-11.3911 0.55429,-11.4942 0.30953,-0.3096 125.27168,11.5957 125.66159,11.9718 0.2572,0.2482 -2.01849,26.5205 -2.35758,27.2177 -0.0224,0.046 -1.12433,-0.1598 -2.44877,-0.4573 -4.24449,-0.9537 -8.47289,-3.4562 -15.78426,-9.3417 -7.78806,-6.2691 -11.33987,-8.3061 -16.01875,-9.1867 -9.64402,-1.8151 -21.55902,5.8626 -26.88609,17.3246 -0.77536,1.6683 -1.56149,3.0272 -1.74695,3.0198 -0.18546,-0.01 -1.38537,-1.8964 -2.66647,-4.1977 -9.93875,-17.8535 -30.20754,-21.4069 -43.76595,-7.6728 -8.60578,8.7173 -10.32785,19.6843 -4.85081,30.8923 2.46942,5.0534 5.17389,7.8999 12.79321,13.4652 2.37085,1.7317 4.31933,3.7308 5.24085,5.377 l 1.46689,2.6204 0.13531,24.1662 c 0.15412,27.5237 0.0474,28.3463 -4.10869,31.6793 -1.93576,1.5524 -2.77199,1.8114 -6.40548,1.9837 -3.79171,0.1797 -4.5298,0.019 -7.96327,-1.7378 z"
       id="path17418" />
    <path
       style="fill:#fdfdfe;fill-opacity:1;stroke-width:5.5022;stroke-linecap:round;paint-order:fill markers stroke"
       d="m 843.88065,1253.7466 c -8.11972,-1.652 -13.46887,-7.1535 -16.08566,-15.2557 -1.87608,-5.6377 -1.53008,-13.2778 0.93598,-18.4943 1.25743,-2.6599 2.87266,-4.8601 4.6964,-6.7157 2.6533,-2.6997 6.45677,-4.4981 10.76233,-5.4997 6.20255,-1.443 12.47797,-0.3265 17.10246,2.5998 9.3685,5.9282 13.71949,19.4707 7.81473,31.5298 -3.67423,8.6205 -15.59899,13.991 -25.22624,11.8358 z m 11.14425,-11.0798 c 3.356,-1.6398 5.57467,-3.7038 7.47243,-7.3238 l 1.50269,-3.343 v 0 c -7.73743,-3.8034 -8.25065,-8.6605 -6.66667,-14.6667 v 0 l -3.37296,-0.5073 c -1.85945,-0.1845 -3.73714,-0.3138 -5.33112,-0.1055 -3.30283,0.4316 -6.28565,1.4669 -8.29447,3.3138 -1.14654,1.0541 -2.15452,2.2644 -2.78857,3.6978 -0.93983,2.1246 -1.05252,4.0871 -0.93453,5.7382 0.1232,1.7239 0.51582,3.2022 0.96443,4.4099 1.33932,3.6327 3.96302,6.969 7.16857,8.5664 3.65338,1.8206 6.97507,1.7269 10.2802,0.2202 z"
       id="path21667" />
    <path
       style="fill:#fdfdfe;fill-opacity:1;stroke-width:5.5022;stroke-linecap:round;paint-order:fill markers stroke"
       d="m 895.52222,1250.5589 c -1.83625,-0.4947 -4.96488,-2.1605 -7.51641,-4.8113 -2.58619,-2.6868 -4.59103,-6.382 -5.79037,-10.3667 -2.26375,-7.5211 0.0788,-16.5922 5.2942,-21.8076 5.0661,-5.0661 13.8257,-7.5754 20.71225,-5.8161 6.17003,1.5763 10.78082,5.1799 13.76883,11.0372 2.10152,4.1196 2.88161,9.7542 2.54602,13.6659 -0.34001,3.9632 -1.70509,7.6967 -3.76612,10.6435 -2.25176,3.2195 -5.41777,5.5398 -8.55442,6.7909 -6.00759,2.3964 -9.48357,2.6067 -16.69398,0.6642 z m 12.82221,-7.2133 c 3.43254,-1.7512 6.74148,-5.314 7.95244,-9.1556 0.63804,-2.0242 1.03648,-3.5233 1.03648,-3.5233 -7.66379,-2.5908 -9.3425,-7.5621 -8,-14.6667 l -2.37519,-0.3741 c -5.55552,-0.8749 -10.85784,0.3153 -14.57693,3.4987 -1.38724,1.1875 -2.16666,2.4395 -2.78405,3.7415 -0.68432,1.443 -1.13007,2.9688 -1.12796,4.9988 0.004,3.6204 0.91071,6.6259 2.70763,9.2973 1.41354,2.1013 3.13295,4.1574 5.41986,5.4938 1.4744,0.8616 2.44346,1.3717 3.54476,1.6346 0.80453,0.1921 1.70516,0.3951 2.89063,0.3605 2.88595,-0.084 4.06534,-0.6385 5.31233,-1.3055 z"
       id="path21706" />
    <a
       id="a2427">
      <path
         style="fill:#f59b23;fill-opacity:1;stroke-width:5.5022;stroke-linecap:round;paint-order:fill markers stroke"
         d="m 824.63595,1319.9127 c -0.92082,-0.5549 -3.55277,-2.6792 -4.54039,-4.5918 -1.82714,-3.5384 -1.76792,-7.7248 -2.06317,-11.7673 -0.64556,-8.8389 -0.041,-20.7106 1.10362,-46.2052 0.32055,-7.1395 0.32133,-21.1948 0.78765,-28.8511 0,0 0.25741,-6.3926 -0.61275,-10.8061 -0.34273,-1.7383 -0.69529,-2.3056 -1.88729,-5.6764 0,0 -1.72406,-3.1624 -2.17583,-6.1437 -0.14112,-0.9312 -0.21788,-2.6959 -0.21788,-2.6959 v 0 l -0.13464,-2.4226 c -0.1401,-2.5209 1.17408,-16.8697 1.0935,-18.081 -0.0105,-0.1583 25.3536,2.1312 55.75592,5.021 23.62348,2.4793 47.5166,4.057 71.10079,6.9015 0,0 -0.82309,6.4951 -1.51821,14.4995 -1.2364,14.4596 -1.2731,13.596 -1.2731,13.596 -7.7597,-0.6881 -11.25484,-3.5226 -18.78086,-9.5333 -8.06936,-6.4446 -11.22126,-8.6486 -15.76802,-9.5053 -9.38271,-1.7678 -20.22024,5.5485 -25.57505,14.8373 -0.68164,1.1825 -2.59689,5.5117 -2.59689,5.5117 0,0 -1.26667,3e-4 -1.33333,0 -0.17146,-8e-4 -0.99827,-2.1297 -2.27937,-4.4229 -4.938,-8.8395 -12.1048,-14.0136 -19.965,-15.448 -7.97573,-1.4555 -16.32244,0.9316 -23.18362,7.7928 -4.00006,4 -6.54211,8.5655 -7.54654,13.4951 -1.09518,5.3751 -0.052,11.2302 2.21384,16.4595 2.85084,5.2357 5.47822,8.9777 11.40286,12.6383 5.50168,3.3993 7.58115,6.1261 8.35686,9.7486 0.69663,3.2533 0.35785,11.9033 0.35112,25.4868 -0.005,10.9773 0.30142,17.5324 0.009,21.7438 -0.3966,5.7193 -1.65026,7.077 -3.98891,8.9525 -1.96148,1.5731 -3.25011,2.1492 -6.93188,2.2725 -1.04335,0.035 -3.19737,-0.1811 -5.07074,-0.714 -2.26994,-0.6458 -4.14067,-1.7358 -4.73207,-2.0923 z"
         id="path24200" />
    </a>
  </g>
</svg>
