<?xml version="1.0" encoding="UTF-8" standalone="no"?>
<!-- Created with Inkscape (http://www.inkscape.org/) -->

<svg
   version="1.1"
   id="svg32548"
   width="160.90251"
   height="217.64133"
   viewBox="0 0 160.90251 217.64133"
   xmlns="http://www.w3.org/2000/svg"
   xmlns:svg="http://www.w3.org/2000/svg">
  <defs
     id="defs32552" />
  <g
     id="g32554"
     transform="translate(-991.59298,-1035.8206)">
    <g
       id="g32615"
       transform="translate(204.65465,-101.21514)">
      <path
         style="fill:#d0d0d0;stroke-width:1.33333"
         d="m 788.2168,1350.5182 c -1.56537,-2.5065 -1.29149,-3.3954 2.49959,-8.1129 3.13169,-3.8969 3.86437,-5.6912 2.77061,-6.7851 -7.08688,-7.0868 10.27912,-18.9345 30.22164,-20.6183 l 8.37531,-0.7071 -8.53477,-5.7255 c -4.69412,-3.1491 -13.15251,-10.2104 -18.79642,-15.6919 -9.64601,-9.3684 -10.23636,-10.2704 -9.84052,-15.0359 0.32504,-3.9131 1.08423,-5.2336 3.32802,-5.7889 2.61985,-0.6483 2.32389,-1.1143 -2.99711,-4.7193 -6.71413,-4.5489 -7.15987,-6.4212 -2.8198,-11.845 l 3.07676,-3.8451 30.91663,22.4629 c 20.41484,14.8327 30.91661,23.2721 30.91661,24.8451 0,1.3102 -0.93541,2.3821 -2.07869,2.3821 -1.14328,0 -1.70787,0.6 -1.25464,1.3333 0.45322,0.7334 2.57629,1.3334 4.71792,1.3334 2.95938,0 5.5804,-1.7341 10.92132,-7.2254 8.29166,-8.5253 14.06729,-10.3419 22.4329,-7.0558 l 5.21987,2.0504 4.25735,-5.3753 c 5.76878,-7.2837 6.70709,-16.9346 2.49284,-25.6401 -2.80763,-5.7998 -3.07047,-5.9851 -5.78836,-4.0814 -4.16648,2.9183 -13.20175,2.539 -17.35592,-0.7287 l -3.46172,-2.723 -6.99119,10.0563 -9.37993,7.105 -12.7646,2.9513 c -14.2207,3.288 -15.36347,-0.1446 -20.86479,-3.9296 -4.84737,-3.335 -6.04357,-5.1133 -7.90689,-11.7541 -1.20751,-4.3035 -2.19547,-9.4012 -2.19547,-11.3281 0,-1.927 -1.08672,-4.2877 -2.41495,-5.2459 -4.49214,-3.2409 -4.55137,-4.9802 -0.35024,-10.2845 3.6251,-4.5771 3.99524,-5.8391 3.26824,-11.1431 -1.50245,-10.9617 4.51207,-21.8451 14.55782,-26.3427 3.69386,-1.6538 7.71729,-5.6944 14.08346,-14.1436 5.8979,-7.8277 9.6716,-11.7005 11.1573,-11.4504 1.23477,0.2079 3.24104,-1.1421 4.45838,-3 2.0343,-3.1047 3.00112,-3.378 11.95126,-3.378 9.6181,0 9.77205,-0.055 12.51332,-4.4907 1.52648,-2.4699 2.77541,-6.226 2.77541,-8.3469 0,-3.3095 5.23535,-11.1624 7.44168,-11.1624 0.47997,0 26.26577,21.7072 32.38339,26.5632 0.2714,0.2154 1.4412,0.1892 0.96781,2.0753 -1.1672,4.6505 -5.45915,8.6949 -9.22713,8.6949 -1.7055,0 -4.43167,1.4165 -6.05814,3.1478 -2.92366,3.1121 -2.93305,3.2541 -0.82684,12.5144 1.93552,8.5098 2.47266,9.4351 5.87199,10.115 9.09752,1.8195 17.34905,14.5542 15.57116,24.0311 -0.47361,2.5246 -2.34329,6.7742 -4.15487,9.4437 l -3.29374,4.8536 3.36184,6.6343 c 11.26698,22.2343 8.90456,43.7258 -6.83115,62.1447 l -6.0712,7.1064 4.80308,7.9067 c 3.81128,6.274 5.69019,8.0977 9.09925,8.8317 9.65184,2.0781 12.1145,4.4412 14.34595,13.7656 2.085,8.7125 7.28391,8.1716 -78.53833,8.1716 -78.13299,0 -78.20487,0 -79.9613,-2.8151 z m 65.27696,-23.5693 c 0.86676,-2.3512 0.59504,-3.2303 -1.18448,-3.8322 -1.27009,-0.4297 -5.36113,-2.1286 -9.09118,-3.7753 l -6.78192,-2.9942 0.61966,3.2415 c 0.43922,2.2977 -0.48985,4.3996 -3.1906,7.2186 l -3.81026,3.9771 11.15701,-0.3922 c 10.23459,-0.3598 11.25,-0.6445 12.28177,-3.4433 z m -2.91969,-92.901 c 9.84661,-5.0919 13.96029,-15.4394 10.12765,-25.475 -8.17648,-21.4099 -40.85197,-13.6964 -38.94368,9.1931 0.29495,3.5379 1.68938,7.9771 3.09871,9.8647 5.64987,7.5674 17.68548,10.5706 25.71732,6.4172 z m -11.40791,-9.3171 c -3.77476,-3.7748 -4.53334,-5.51 -4.53334,-10.37 0,-10.7586 -1.44499,2.6447 7.93952,5.0988 2.69735,0.7054 2.70055,0.7581 0.19825,3.2604 -2.89805,2.898 -12.0063,-3.5857 -9.66132,-1.2407 2.26954,2.2695 8.99756,1.9981 9.91783,-0.4 1.53013,-3.9875 -1.10114,-8.4061 -1.10114,-2.4101 0,5.1974 -0.69179,6.8251 -4.53333,10.6667 -3.86951,3.8695 9.77191,-6.6959 4.4229,-6.6959 -5.34902,0 1.22013,5.9603 -2.64937,2.0908 z m 61.17655,7.8976 c 11.62588,-7.9 12.57228,-22.5444 2.07012,-32.0325 -5.2424,-4.7362 -5.66927,-4.869 -13.95045,-4.3417 -7.35523,0.4683 -9.10383,1.1052 -12.5807,4.5821 -7.59486,7.5948 -8.88132,18.0362 -3.27618,26.5908 5.78866,8.8346 18.79977,11.2745 27.73721,5.2013 z m -14.40835,-12.5926 c -2.48398,-7.5777 -3.14664,1.8481 -1.56787,-6.0458 1.60666,-8.0333 -11.72433,-7.1862 -2.94994,-5.9091 2.83164,0.4121 6.19786,-0.4334 4.17279,2.6572 -1.94946,2.9753 1.3938,2.3835 3.39682,5.4405 2.35398,3.5926 1.77458,3.8507 5.84593,1.6718 2.35246,-1.259 -3.30727,-4.7315 -3.30727,0.194 0,9.315 -1.58432,14.2127 -4.46507,5.4245 z"
         id="path32621" />
      <path
         style="fill:#046de5;stroke-width:1.33333"
         d="m 789.60002,1351.7333 c -2.48746,-2.4875 -1.91194,-5.2619 1.92156,-9.2632 3.1991,-3.3391 3.37201,-4.0367 1.88834,-7.6185 -1.19806,-2.8925 -1.24742,-4.6639 -0.18524,-6.6486 2.23271,-4.1718 16.9351,-10.6433 28.57436,-12.5773 l 10.4657,-1.7391 -7.79903,-5.1491 c -11.20561,-7.3983 -29.79903,-25.8248 -29.79903,-29.5316 0,-4.8733 1.43887,-7.2033 4.47599,-7.2482 2.69303,-0.04 2.65241,-0.1952 -0.70599,-2.7026 -10.1249,-7.5592 -9.79401,-7.0078 -7.02177,-11.7008 1.37136,-2.3215 3.24419,-4.221 4.16181,-4.221 1.82132,0 59.76799,41.861 61.23704,44.238 0.49671,0.8037 -0.48252,2.5064 -2.17605,3.7839 l -3.07916,2.3226 5.8874,0.5832 c 4.83648,0.479 6.23176,0.091 7.81656,-2.1723 7.77181,-11.1003 16.66079,-15.2505 25.86924,-12.0779 5.16076,1.778 5.65659,1.7174 8.68519,-1.0626 8.23122,-7.5554 9.69356,-18.1468 4.03649,-29.2355 -2.57507,-5.0476 -2.614,-5.066 -6.48913,-3.0621 -5.30187,2.7417 -10.514,2.5245 -15.72984,-0.6556 -2.40106,-1.4639 -4.57834,-2.6617 -4.8384,-2.6617 -0.26006,0 -3.3863,4.4523 -6.94719,9.8939 l -8.78377,7.1548 -12.49967,2.8535 c -14.10056,3.219 -14.93987,0.02 -20.40385,-3.9384 -6.16746,-4.4677 -7.68492,-7.431 -9.88179,-19.2971 -0.89532,-4.836 -2.43005,-8.6891 -3.88044,-9.7423 -3.35491,-2.4361 -2.91492,-5.5283 1.52517,-10.7187 3.31671,-3.8771 3.65494,-5.0114 2.58442,-8.6666 -2.94695,-10.0624 4.65532,-23.9061 15.06974,-27.442 3.3019,-1.121 6.58607,-4.5304 12.97111,-13.4657 6.35376,-8.8916 9.30859,-11.9647 11.50404,-11.9647 1.62484,0 3.83495,-1.3264 4.91135,-2.9475 1.0764,-1.6212 3.39957,-3.0104 5.16262,-3.0872 1.76306,-0.077 6.22619,-0.2505 9.91807,-0.3858 5.87207,-0.2154 6.99893,-0.731 9,-4.1186 1.25812,-2.1298 2.28748,-5.6489 2.28748,-7.8202 0,-4.3079 4.45196,-10.974 7.32896,-10.974 2.78537,0 34.00437,24.1442 34.00437,26.2984 0,3.1208 -7.51406,9.7016 -11.07742,9.7016 -4.57594,0 -8.02652,5.5438 -6.90007,11.0859 2.66845,13.1288 3.04704,13.7844 9.35003,16.1915 8.0876,3.0887 12.62746,9.7153 12.62746,18.4316 0,6.6257 -2.24352,12.5067 -5.94212,15.5763 -1.93472,1.6056 -1.93377,2.0388 0.0107,5.0069 3.54336,5.4079 8.26825,19.2599 9.22361,27.0411 1.64824,13.4245 -3.40453,27.531 -14.02262,39.1489 l -6.33346,6.9298 5.18495,8.6273 c 4.77033,7.9374 5.63917,8.7045 10.86513,9.5927 8.0649,1.3707 13.01351,7.0959 13.01351,15.0557 l -3.99489,3.0321 -73.73844,2.9468 c -58.63468,2.3432 -78.12548,-0.3921 -79.33334,-1.6 z m 153.0836,-5.1757 c 0,-1.4667 -1.19804,-5.8621 -2.5792,-7.2433 -2.27949,-2.2794 -10.22435,-4.0531 -42.50734,-5.0195 -42.81929,-1.2818 -82.04974,-3.246 -92.30468,2.39 -6.69039,3.6769 -10.62572,7.8852 -10.62572,10.0126 0,0.832 26.55014,2.4297 73.39652,2.4297 72.44444,0 74.62042,0.065 74.62042,-2.5695 z m -89.33091,-17.9419 c 1.73803,-4.5713 1.65716,-5.9425 -0.35269,-5.9807 -0.91667,-0.017 -5.03422,-1.4169 -9.15011,-3.11 -6.90184,-2.8392 -7.43409,-2.8897 -6.84848,-0.6503 0.38616,1.4767 -0.99176,4.2808 -3.51656,7.1564 -2.28333,2.6006 -4.15152,4.9366 -4.15152,5.1911 0,0.2545 5.10872,0.5498 11.35269,0.6561 11.06626,0.1885 11.38586,0.1062 12.66667,-3.2626 z m 67.98064,2.1383 c 0,-0.6852 -3.61644,-6.6526 -8.03653,-13.2607 -17.6288,-26.3553 -31.22882,-30.4642 -43.18984,-13.0488 -5.30976,7.7311 -11.82823,23.288 -10.83854,25.8671 0.79094,2.0612 62.06491,2.4979 62.06491,0.4424 z m -43.48251,-6.7274 c -1.54872,-0.6258 -4.15584,-2.8378 -5.79362,-4.9155 -6.46894,-8.2069 -0.18147,-20.4445 10.50401,-20.4445 13.83492,0 18.48819,18.7014 6.11427,24.5732 -4.901,2.3256 -6.6935,2.4559 -10.82466,0.7868 z m -59.75479,4.5769 c 11.78734,-3.9342 15.53706,-8.6035 9.38214,-8.6035 -8.00244,0 -28.81151,7.3176 -28.81151,10.1317 0,1.5895 10.47174,1.4616 19.42937,-1.5282 z m 40.89302,-14.4447 2.14963,-4.5078 -6.77648,-0.8989 c -14.09116,-1.8693 -28.04796,-9.5052 -43.32858,-23.7057 -4.56482,-4.2422 -8.91482,-7.7131 -9.66666,-7.7131 -6.71079,0 15.79925,21.76 32.42302,31.3427 5.83514,3.3636 20.42488,9.8804 22.2964,9.959 0.41418,0.017 1.72038,-1.9969 2.90267,-4.4762 z m 62.49451,-11.8255 c 13.52428,-17.0712 15.04805,-34.9367 4.7141,-55.2705 -3.16546,-6.2286 -3.25109,-6.2832 -9.27282,-5.9129 -3.34283,0.2056 -7.2426,-0.2496 -8.66616,-1.0115 -2.35539,-1.2605 -2.65111,-0.8279 -3.2863,4.8074 -0.56496,5.0123 -0.10115,7.1008 2.43339,10.9568 4.09565,6.2311 4.83896,16.7328 3.86394,21.7186 -1.03297,5.2821 -4.70895,13.0336 -7.93854,15.7139 -1.68445,1.398 -1.05416,2.6649 4.34945,8.7429 3.47566,3.9093 6.75543,7.1411 7.28838,7.1816 0.53294,0.04 3.46449,-3.0763 6.51456,-6.9263 z m -69.48356,-34.8929 c 0,-0.8772 -28.5861,-21.4653 -29.10152,-20.9499 -0.25286,0.2528 0.44945,4.2575 1.33736,8.1041 2.22869,9.6552 7.65781,13.4054 19.407,13.4054 4.59644,0 8.35716,-0.2518 8.35716,-0.5596 z m 17.62048,-8.4932 3.61353,-9.9901 -6.82546,-7.4607 c -7.21382,-7.8851 -9.68903,-7.1568 -14.40875,-5.1848 -8.90372,3.7202 -18.28969,3.2399 -25.00627,-3.1673 -3.06652,-2.9253 -4.5516,-2.6177 -6.33584,-1.1369 -1.15797,0.9611 -1.92967,2.536 -1.71488,3.4999 0.34851,1.564 40.5004,33.0222 42.56207,33.2739 0.46009,0.056 6.10257,-4.2688 8.1156,-9.834 z m 6.22174,-19.2261 c 0.87574,-2.3673 1.20314,-4.1416 -2.31291,-7.4577 -2.40615,-2.2693 -4.51343,-5.7801 -5.45428,-7.6525 l -1.74777,-3.4781 -3.19484,5.6246 c -1.75714,3.0936 -3.03078,5.7872 -2.83029,5.9859 2.08475,2.066 12.61013,9.8023 13.40749,9.8548 0.57364,0.038 1.53331,-1.2569 2.1326,-2.877 z m -23.31493,-6.1552 c 6.80875,-3.9375 9.47271,-8.8774 9.47271,-17.5659 0,-5.803 -0.70502,-8.7487 -2.74906,-11.4865 -7.09178,-9.4987 -16.20929,-11.944 -25.83956,-6.9301 -8.21332,4.2762 -11.12194,8.7676 -11.80646,18.2309 -0.5445,7.5275 -0.36351,8.0763 4.40456,13.354 7.49212,8.2928 17.04325,9.8768 26.51781,4.3976 z m -8.41618,-10.5574 c -7.21288,-4.7548 -11.24901,-5.3572 -7.35997,-12.8778 2.82407,-5.4611 -10.45216,7.8573 -4.24296,7.9042 4.29556,0.032 6.83226,-6.8668 4.96578,-5.7796 -1.36718,0.7963 0.13278,1.5028 0.13278,3.7519 0,6.8406 6.70399,10.4679 11.14286,6.029 2.88342,-2.8834 -5.55649,-7.8323 -5.55649,-3.2582 0,12.4044 10.97776,10.8619 0.918,4.2305 z m 52.9551,12.4439 c 15.84148,-8.276 17.57493,-27.415 3.35991,-37.0963 -4.20794,-2.8659 -6.212,-3.3681 -11.53439,-2.8906 -11.76099,1.0553 -18.37412,6.9122 -20.23392,17.9202 -2.47651,14.6583 15.64505,28.7345 28.4084,22.0667 z m -19.19955,-9.3191 c -3.83702,-3.837 -4.53333,-5.4722 -4.53333,-10.6456 0,-8.6439 21.69769,-2.9262 13.61026,-6.4349 l -1.35789,-0.5891 1.74902,-0.8496 c 2.69711,-1.3101 -0.88013,1.8422 0.35914,4.5628 1.42904,3.1364 6.28829,1.4205 11.02095,0.7857 4.91473,-0.6592 -0.57954,1.9483 -0.57954,4.9917 0,4.3379 -2.89796,4.6499 -6.58328,7.2312 -1.63403,1.1445 1.07314,-0.077 -2.13704,-0.077 -4.85998,0 -7.77382,4.7999 -11.54858,1.0251 z m -4.85984,-27.8922 c 2.19903,-2.0674 6.48976,-4.4945 9.53496,-5.3937 l 8.10423,-1.6073 -16.02236,-11.5541 c -6.74673,-4.8652 -12.32252,-6.3527 -14.00937,-6.3527 -2.26183,0 -4.84916,2.4503 -9.8555,9.3334 -3.73366,5.1333 -6.07124,9.3333 -5.1946,9.3333 4.7653,0 13.37487,5.9899 16.65534,11.5876 l 3.51517,5.9982 1.63695,-3.7929 c 0.9003,-2.0861 3.43614,-5.4844 5.63518,-7.5518 z m 39.61355,2.5277 c -0.0699,-0.8989 -40.12906,-29.6877 -45.0793,-32.5314 -6.29442,-3.6159 1.47204,4.9711 17.68977,16.7631 10.14823,7.3789 20.36408,14.1684 21.32996,15.3322 1.8282,2.2028 6.19413,2.1686 6.05957,0.4361 z m -4.71409,-12.4355 c -0.18851,-4.6937 -2.10242,-7.0056 -11.80727,-14.2628 -8.55545,-6.3977 -10.70957,-7.4038 -15.85095,-7.4038 h -5.94996 l 15.85095,11.8915 c 8.71803,6.5403 16.30095,11.9403 16.85095,12 0.55,0.06 0.95782,-0.9415 0.90628,-2.2249 z m 2.49372,-13.9333 c 0.88,-0.88 1.6,-2.0232 1.6,-2.5405 0,-0.5172 -5.31134,-5.8315 -10.5113,-9.6864 -7.53763,-5.5879 -9.69611,-6.6272 -10.64625,-5.1262 -2.19586,3.4688 -1.83867,7.4091 6.4549,13.5722 9.11312,6.772 10.82506,6.0585 13.10265,3.7809 z m 12.37156,-4.4804 c 1.15999,-0.4451 1.22844,-2.9676 1.22844,-3.8998 0,-2.5072 -26.00075,-22.5718 -28.24194,-21.7118 -4.5282,1.7377 -3.4426,8.1335 7.98247,16.7238 12.40227,9.325 15.79109,10.1311 19.03103,8.8878 z"
         id="path32619" />
      <path
         style="fill:#0c0c0d;stroke-width:1.33333"
         d="m 789.69739,1352.1372 c -3.40387,-0.8881 -3.91452,-4.9916 -0.0811,-8.9929 3.1991,-3.3391 4.25734,-4.6665 2.77367,-8.2483 -1.1408,-2.7542 -1.0205,-5.9718 -0.0767,-7.7353 3.33532,-6.2321 24.03046,-16.1265 33.88084,-14.5427 4.22502,0.6792 7.66156,3.3753 -0.73772,-2.2594 -5.01804,-3.3663 -14.59985,-10.3329 -20.75898,-16.2459 -9.80402,-9.4123 -11.02536,-11.7538 -10.6757,-15.3045 0.25764,-2.6164 0.72851,-5.6918 2.65553,-6.6467 2.90884,-1.4415 3.82415,-0.4266 -2.00606,-4.6135 -3.29294,-2.3648 -6.0305,-5.0216 -6.0305,-5.4129 0,-1.9498 5.29059,-11.1626 6.72449,-11.1626 1.66712,0 55.69937,40.2069 60.59972,44.9185 2.66272,2.5601 5.91625,3.8656 1.90025,5.1212 l -3.49038,1.0913 v 0 c 2.32336,0.016 5.02336,0.3085 6,0.6493 1.00239,0.3498 3.92415,-0.3369 6.3855,-3.6859 2.39816,-3.263 9.2485,-8.1897 11.56103,-9.3855 4.83179,-2.4986 10.52391,-2.6106 14.69819,-0.3766 2.404,1.2866 3.62025,1.434 6.29914,-1.3516 6.69603,-6.9628 10.13345,-15.7773 4.43254,-26.952 -2.57507,-5.0475 -2.01208,-5.2925 -5.88721,-3.2886 -5.30187,2.7417 -10.51859,2.3124 -15.73443,-0.8677 -2.40106,-1.4639 -3.59111,-2.1548 -3.85117,-2.1548 -0.26006,0 -3.3999,3.9641 -6.89023,9.2979 0,0 -5.06073,5.9121 -8.57847,7.9481 -4.09086,2.3678 -13.71351,2.6715 -13.71351,2.6715 -14.7262,0.6344 -15.98304,-0.3636 -21.59873,-4.4316 -6.23836,-4.5191 -8.18242,-7.8032 -10.38315,-19.6901 -0.89532,-4.836 -2.49555,-8.7698 -3.94594,-9.823 -3.39548,-2.4656 -2.62471,-4.969 0.80517,-10.8821 3.02376,-5.2129 4.86876,-4.7091 3.73192,-8.5941 -2.99728,-10.2426 4.11934,-25.534 14.6286,-29.1021 3.3019,-1.121 6.89327,-3.3302 13.27831,-12.2655 6.35376,-8.8916 9.14384,-12.3567 11.33929,-12.3567 1.62484,0 3.34307,-1.1525 4.41947,-2.7736 1.0764,-1.6212 3.83738,-3.5445 5.60043,-3.6213 1.76306,-0.077 6.98451,0.095 10.67639,-0.04 5.87207,-0.2154 5.69068,-0.1319 7.69175,-3.5195 1.25812,-2.1298 3.45289,-5.4515 3.45289,-7.6228 0,-4.9396 5.0998,-13.608 8.20435,-12.7962 3.94591,1.0319 35.13204,22.2053 34.77795,27.8944 -0.35409,5.6891 -7.97749,10.6369 -11.67953,10.6369 -4.73644,0 -7.48002,4.5226 -6.31121,10.2584 2.71032,13.3004 3.22675,12.9678 9.54135,15.3794 8.0876,3.0887 12.57039,10.4812 12.57039,19.1975 0,6.5406 -2.21586,13.0764 -5.78372,16.0375 -1.72976,1.4356 -1.59322,1.5959 1.65368,8.2193 5.85316,11.9399 6.91149,17.9534 6.87633,28.7868 -0.0275,8.4668 -0.39474,11.8489 -3.87683,19.29 -2.28314,4.8789 -6.97425,11.9185 -10.25686,15.4279 0,0 -4.34052,3.7317 -4.37809,6.5396 -0.0399,2.9819 3.48938,7.5897 3.48938,7.5897 4.82443,7.8958 5.6406,8.3239 10.79827,9.2206 7.9596,1.3838 12.61081,7.5662 13.41825,15.9693 0,0 0.14712,2.6782 -1.22056,4.4927 -2.86256,3.7976 -52.24802,2.2283 -78.56929,2.5302 -58.80957,0.6745 -75.75988,-1.7461 -77.41279,-2.1774 z m 151.63596,-6.0282 c 0,-3.4085 -1.59863,-6.1569 -4.4902,-7.7198 -3.96631,-2.1439 -102.82896,-3.0287 -118.17647,-1.0576 -11.26645,1.4468 -22.75078,5.8054 -23.7179,9.0017 -0.3992,1.3192 14.80449,1.6667 72.94013,1.6667 62.51261,0 73.44444,-0.2815 73.44444,-1.891 z m -89.02556,-18.8481 c 0.69788,-0.9791 0.61405,-2.8824 0.60469,-3.3847 -0.009,-0.5022 -2.11742,-1.1882 -7.13929,-3.0769 -8.29669,-3.1204 -8.71386,-3.2291 -8.13911,-1.0313 0.3832,1.4654 -0.022,3.4207 -2.53714,6.2853 -2.28333,2.6006 -3.58212,3.4779 -3.58212,3.819 0,0.3412 3.53713,0.473 9.78861,0.473 10.97418,0 9.59864,-1.1122 11.00436,-3.0844 z m 68.18507,3.0436 c 0,-0.7921 -3.06672,-6.4698 -7.56582,-13.0387 -17.9383,-26.1906 -30.81793,-30.0404 -42.74014,-12.6815 -4.54455,6.617 -10.51058,21.0716 -10.51058,24.7067 0,1.3911 5.47055,2.4235 30.41843,2.4235 21.55098,0 30.39811,-0.4194 30.39811,-1.41 z m -43.11746,-6.153 c -4.00186,-1.6886 -8.04205,-7.9429 -8.04205,-11.7309 0,-1.7708 0.17215,-4.5736 1.27974,-6.7155 5.85041,-11.3134 23.47783,-8.5682 25.1982,4.2581 0.63208,4.7125 -0.28362,7.6249 -3.56866,11.2332 -4.0714,4.472 -10.26048,4.899 -14.86723,2.9551 z m 10.32794,-6.2271 c 3.51908,-2.4649 3.97806,-8.7192 0.8681,-11.8292 -4.85098,-4.851 -13.90476,-0.9209 -13.90476,6.0358 0,3.8538 4.0821,7.869 8,7.869 1.14032,0 3.40683,-0.934 5.03666,-2.0756 z m -75.03666,10.8696 c 13.66022,-3.7724 21.99984,-8.794 14.60448,-8.794 -7.82417,0 -28.60448,7.3604 -28.60448,10.1317 0,1.1461 7.65423,0.4147 14,-1.3377 z m 46.31835,-14.6267 2.14559,-4.4993 -5.83428,-0.7997 c -14.58924,-1.9997 -29.25714,-9.8542 -43.98003,-23.5508 -4.72031,-4.3913 -9.19749,-7.9842 -9.94933,-7.9842 -6.71079,0 15.79925,21.76 32.42302,31.3427 5.83514,3.3636 20.42488,9.8804 22.2964,9.959 0.41418,0.017 1.71856,-1.993 2.89863,-4.4677 z m 62.49855,-11.834 c 13.55558,-17.1108 15.04934,-34.881 4.65616,-55.3909 -3.10066,-6.1189 -3.55578,-5.8831 -8.06545,-5.3566 -2.6072,0.3044 -6.15831,0.079 -8.28893,-0.6636 -3.86028,-1.3457 -4.13577,-1.9843 -4.82216,4.1053 -0.55757,4.9467 -0.0682,7.0177 2.49376,10.9201 6.80841,10.3706 6.93449,25.0287 -1.06425,34.7021 0,0 -2.74788,1.9477 -2.69642,4.5569 0.0515,2.6091 4.16829,7.0956 4.16829,7.0956 3.37449,3.8486 6.02093,5.8796 7.34569,5.8693 1.09196,-0.016 3.22324,-1.9882 6.27331,-5.8382 z m -69.48356,-34.8397 c 0,-0.9197 -28.31288,-20.9585 -28.85139,-20.42 -0.28993,0.2899 0.19932,3.6744 1.08723,7.521 2.22869,9.6552 7.65781,13.4054 19.407,13.4054 4.59644,0 8.35716,-0.2279 8.35716,-0.5064 z m 15.21832,-9.6831 5.94114,-8.8562 -8.2464,-6.4489 c -4.53552,-3.5469 -8.8464,-6.2007 -9.57973,-5.8972 -11.50459,4.7613 -21.00343,4.0227 -28.07097,-2.1827 -3.86502,-3.3936 -4.9608,-3.7824 -6.6676,-2.3658 -1.12335,0.9323 -1.86674,2.4915 -1.65195,3.4649 0.36599,1.6587 39.25341,30.851 41.36244,31.0502 0.53455,0.051 3.64543,-3.8934 6.91307,-8.7643 z m 27.00658,-6.4289 c -1.64217,0.912 -2.14464,0.8266 -3.9693,1.1374 -1.43182,-0.01 -3.67607,-0.4098 -5.03202,-1.3341 -1.35595,-0.9242 -4.70873,-4.4632 -2.33563,-9.5223 0.75715,-1.6142 -1.10783,-2.9959 -1.73951,-2.9959 -0.63164,0 -1.14844,2.0766 -1.14844,4.6147 0,4.9271 3.04672,9.075 4.7429,9.6914 1.69619,0.6163 3.58424,1.3934 5.17906,1.4527 1.59481,0.059 3.1044,-0.055 4.91603,-0.8163 1.81164,-0.7617 2.79379,-1.0486 3.58526,-2.3075 0.79147,-1.2589 1.20979,-1.7755 1.38203,-3.2166 0.17224,-1.4411 0.17305,-3.3928 -0.0758,-6.2395 l -0.45251,-5.1757 c 0,0 -3.32181,1.2661 -3.24486,2.0659 0.10253,1.0656 1.28919,2.0793 1.57272,4.3987 0.28353,2.3194 0.37146,3.457 -0.28231,4.7708 -0.65377,1.3138 -1.45542,2.5643 -3.09759,3.4763 z m -18.39173,-11.6326 c 0.86109,-2.3278 0.17933,-3.8222 -3.35728,-7.3588 -2.4408,-2.4408 -4.82273,-5.9715 -5.2932,-7.846 -0.83703,-3.3349 -0.924,-3.2873 -4.05023,2.2165 -1.75714,3.0935 -3.03078,5.7872 -2.83029,5.9858 2.08475,2.066 12.61013,9.8024 13.40749,9.8548 0.57364,0.038 1.52922,-1.2458 2.12351,-2.8523 z m -19.38655,-10.2694 c 0.80059,-0.8031 4.30777,-3.3546 4.9987,-11.9614 0.46529,-5.796 0.0516,-7.8671 -2.50979,-11.6001 -5.186,-7.556 -8.98892,-9.5438 -17.00368,-9.4671 -12.36801,0.1183 -19.80618,7.7139 -19.80618,20.6542 0,5.8594 0.71042,7.1494 4.91124,11.7992 6.52974,7.2276 16.67928,6.8246 21.21579,5.1673 4.53651,-1.6573 7.39334,-3.7889 8.19392,-4.5921 z m -22.35668,-0.071 c -13.33381,-8.7898 -7.21641,-28.179 8.84388,-28.031 3.63455,0.033 3.99383,0.2768 2.06622,1.3996 -3.45002,2.0094 -3.14308,10.0326 0.45752,11.9596 3.04321,1.6287 9.20914,0.6745 9.20914,-1.4252 0,-0.7193 0.6,-1.3079 1.33334,-1.3079 0.73333,0 1.33333,1.8298 1.33333,4.0662 0,12.4044 -13.18367,19.9701 -23.24343,13.3387 z m 65.55666,-30.3226 c -4.31147,-2.9825 -5.59491,-3.1855 -11.19423,-2.6336 -8.96647,0.8839 -12.59858,2.2531 -16.17472,9.3084 -3.79268,7.4826 -4.16823,12.071 -0.32018,19.3478 5.1502,9.7392 14.53191,14.2171 27.20116,7.5529 12.66925,-6.6642 14.69586,-23.7468 0.48797,-33.5755 z m -21.7799,27.051 c -3.83702,-3.837 -4.53333,-5.4722 -4.53333,-10.6456 0,-8.5991 5.00936,-14.1449 13.65732,-15.1196 0,0 2.87202,-0.4703 4.97457,-0.2239 0.1825,0.021 0.73334,0.1789 0.71468,0.6137 -0.0468,1.0903 -1.03762,3.1085 -1.03762,3.1085 -2.30195,6.0986 -0.14095,8.832 6.86622,8.6852 5.04846,-0.1058 5.4911,0.1631 5.48651,3.3333 -0.007,4.7767 -4.64293,11.9205 -8.74909,13.4817 -6.95047,2.6425 -12.5441,1.6019 -17.37926,-3.2333 z m 47.0418,5.4043 c 4.27267,-3.9156 4.86931,-5.2261 4.86931,-10.6951 0,-4.9969 -0.73395,-6.9988 -3.70165,-10.0964 -4.04231,-4.2192 -9.72594,-6.2963 -11.7341,-4.2881 -0.80745,0.8074 0.23131,1.6025 2.84328,2.1761 9.11198,2.0014 12.82384,14.8113 6.20863,21.4265 -3.36369,3.3637 -9.08548,4.2705 -12.6636,2.0069 -2.67611,-1.6929 -4.53607,-0.2433 -2.63181,2.0512 0.85873,1.0347 3.89668,1.8813 6.75098,1.8813 4.02695,0 6.28059,-0.9998 10.05896,-4.4624 z m -51.90164,-33.2965 c 2.19903,-2.0674 6.53995,-4.5093 9.64648,-5.4266 l 5.64824,-1.6677 -1.7843,-1.2851 -10.582,-7.6216 c -6.80146,-4.8988 -13.72116,-8.9068 -15.37712,-8.9068 -2.1923,0 -4.8564,2.5374 -9.79934,9.3334 -3.73366,5.1333 -6.07124,9.3333 -5.1946,9.3333 4.7653,0 13.37487,5.9899 16.65534,11.5876 l 3.51517,5.9982 1.63695,-3.7929 c 0.9003,-2.0861 3.43614,-5.4844 5.63518,-7.5518 z m 37.60699,2.0922 c -0.0291,-0.55 -9.10527,-7.6 -20.16935,-15.6666 -21.85552,-15.9346 -24.63182,-17.7939 -23.26324,-15.5795 0.48419,0.7834 9.17564,7.4384 19.31436,14.7888 10.13871,7.3503 19.19832,14.2852 20.13248,15.4108 1.78331,2.1488 4.07582,2.7507 3.98575,1.0465 z m -2.70753,-12 c -0.18851,-4.6937 -2.10242,-7.0056 -11.80727,-14.2628 -8.59369,-6.4263 -10.69539,-7.4038 -15.91749,-7.4038 h -6.01651 l 15.91749,11.8938 c 8.75463,6.5416 16.3675,11.9416 16.9175,12 0.55,0.058 0.95782,-0.9438 0.90628,-2.2272 z m 2.49372,-13.9333 c 0.88,-0.88 1.6,-2.0232 1.6,-2.5405 0,-1.1442 -18.60639,-15.0661 -19.19183,-14.3599 -3.70188,4.465 -3.14188,5.6621 5.64557,12.0685 9.7674,7.1208 9.68907,7.0891 11.94626,4.8319 z m 11.49094,-5.876 c 4.2696,-1.6384 1.80211,-4.7587 -11.48326,-14.5216 -13.49184,-9.9145 -15.66328,-10.5399 -15.7206,-4.5275 -0.0181,1.9023 21.8328,19.8584 24.16589,19.8584 0.51091,0 1.878,-0.3642 3.03797,-0.8093 z"
         id="path32617" />
      <path
         style="fill:#fcfcfc;fill-opacity:1;stroke:#0c0c0d;stroke-width:0.660195;stroke-linecap:round;stroke-linejoin:round;stroke-opacity:1;paint-order:fill markers stroke"
         d="m 1043.5057,1133.5407 c -4.007,-0.5491 -8.17,-2.5031 -10.7573,-5.0493 -4.1449,-4.0791 -5.4406,-6.3853 -5.6814,-10.1127 -0.3373,-5.221 0.3399,-9.3949 2.1397,-13.1873 1.9994,-4.2128 6.425,-7.7515 11.3675,-9.0896 0.9684,-0.2622 3.1116,-0.4778 5.5594,-0.5593 4.5979,-0.1531 6.8647,0.2161 9.5989,1.5634 3.1551,1.5547 8.3156,7.6075 9.737,11.4206 0.4863,1.3047 0.5641,2.0352 0.5399,5.0704 -0.08,10.0042 -3.0582,14.7405 -11.6026,18.4499 -3.3288,1.4452 -7.2924,1.9884 -10.9011,1.4939 z m 6.9966,-3.2613 c 5.4181,-1.4112 9.6048,-5.6857 11.0819,-11.3141 0.5418,-2.0645 0.5553,-6.0587 0.025,-7.3284 -0.3448,-0.8252 -0.5091,-0.9532 -1.1316,-0.8817 -0.5621,0.065 -0.8438,0.3323 -1.2351,1.1739 -0.339,0.7291 -0.8176,1.2427 -1.4447,1.5503 -1.1819,0.5799 -4.7471,0.8065 -6.2603,0.3978 -2.4234,-0.6544 -4.0348,-3.1354 -4.0989,-6.311 -0.061,-3.0141 0.8619,-4.9806 2.986,-6.3628 0.5422,-0.3528 0.5971,-0.4889 0.3151,-0.7807 -0.4986,-0.5158 -5.49,-0.4217 -7.6699,0.1446 -4.7565,1.2358 -8.5439,4.3205 -10.3961,8.4675 -0.6697,1.4994 -1.4242,4.8208 -1.4242,6.2695 0,1.754 0.8244,4.9447 1.7597,6.8107 1.787,3.5651 6.0948,7.096 9.947,8.1531 1.7649,0.4843 5.7078,0.4902 7.5463,0.011 z"
         id="path10367"
         transform="translate(-204.65465,101.21514)" />
      <path
         style="fill:#fcfcfc;fill-opacity:1;stroke:#0c0c0d;stroke-width:0.660195;stroke-linecap:round;stroke-linejoin:round;stroke-opacity:1;paint-order:fill markers stroke"
         d="m 1090.6058,1134.3487 c -3.3661,-0.4213 -6.5533,-1.9394 -9.1824,-4.3735 -2.1267,-1.9689 -3.6554,-4.149 -5.2476,-7.4837 -2.9461,-6.1706 -2.8226,-10.1474 0.5275,-16.9843 1.3241,-2.7023 1.588,-3.7475 3.2536,-5.4909 2.1259,-2.2251 4.7248,-3.6354 7.4868,-4.3492 2.6634,-0.6882 4.7857,-0.9727 7.4347,-0.8671 2.3164,0.092 4.9355,0.6337 6.7294,1.6008 6.0327,3.2523 10.4058,8.6075 11.895,14.5663 1.6049,6.4219 -0.9145,13.6471 -6.2538,17.9348 -4.8382,3.8854 -11.5554,6.0838 -16.6432,5.4468 z m 6.719,-5.2576 c 3.9409,-1.0079 5.9595,-2.4878 8.3575,-6.1269 2.0192,-3.0641 2.8558,-5.3121 2.9977,-8.0546 0.101,-1.9521 0.049,-2.3159 -0.4143,-2.8878 -0.5101,-0.63 -0.6794,-0.6606 -4.5601,-0.826 -5.2347,-0.2232 -6.5014,-0.625 -7.5879,-2.4069 -0.7953,-1.3043 -0.6712,-3.1366 0.416,-6.1399 0.5113,-1.4126 0.8955,-2.7994 0.8536,-3.0817 -0.1163,-0.7853 -1.3438,-0.9706 -4.4101,-0.6659 -3.56,0.3539 -5.4867,0.8594 -7.7019,2.0207 -5.4683,2.8668 -8.184,8.1732 -7.2594,15.7962 0.4033,3.3251 1.1468,4.8257 3.8233,7.6417 3.5749,3.7611 6.7699,5.241 11.0303,5.2531 1.5535,0 3.1101,-0.178 4.4553,-0.522 z"
         id="path10406"
         transform="translate(-204.65465,101.21514)" />
    </g>
  </g>
</svg>
