<?xml version="1.0" encoding="UTF-8" standalone="no"?>
<!-- Created with Inkscape (http://www.inkscape.org/) -->

<svg
   version="1.1"
   id="svg55160"
   width="123.14702"
   height="193.43074"
   viewBox="0 0 123.14702 193.43074"
   xmlns="http://www.w3.org/2000/svg"
   xmlns:svg="http://www.w3.org/2000/svg">
  <defs
     id="defs55164" />
  <g
     id="g55166"
     transform="translate(-1047.0003,-1015.6124)">
    <g
       id="g55585"
       transform="translate(217.18163,-136.05913)">
      <path
         style="fill:#fb1fb1;stroke-width:1.33333"
         d="m 883.40653,1340.601 -31.96679,-3.1937 -4.45094,-4.304 c -11.3155,-10.942 -18.31562,-27.1839 -16.34964,-37.935 2.37522,-12.9891 13.95956,-25.0387 33.2347,-34.5696 l 9.83388,-4.8625 -0.69974,-17.4685 c -0.47466,-11.849 -1.65746,-21.1143 -3.67683,-28.8018 -3.30247,-12.572 -11.52571,-32.21 -16.63817,-39.7336 -1.82583,-2.687 -3.31968,-5.8531 -3.31968,-7.0359 0,-6.5069 13.49937,-10.5249 35.33333,-10.5166 25.18237,0.01 44.21212,4.1486 48.82465,10.6195 2.34203,3.2855 2.2904,3.5074 -3.60306,15.4839 -8.58316,17.4424 -13.86427,39.247 -14.81854,61.1827 l -0.75405,17.3334 9.51911,6.4822 c 18.47824,12.583 27.46345,25.9375 27.48565,40.8511 0.0156,10.4787 -3.80168,19.1107 -14.00376,31.6667 l -6.77107,8.3333 -7.60613,-0.1689 c -4.18337,-0.093 -21.99119,-1.606 -39.57292,-3.3627 z m 49.49135,-36.8844 c 4.05312,-3.7144 4.92414,-5.5133 5.48226,-11.3217 0.63788,-6.6385 0.45679,-7.1124 -4.68144,-12.2506 -4.52764,-4.5277 -6.19468,-5.345 -10.9014,-5.345 -12.08252,0 -18.11574,7.0394 -17.57752,20.5092 0.102,2.5534 1.75108,5.3492 4.91514,8.3333 4.0833,3.8511 5.70054,4.4908 11.35292,4.4908 5.60282,0 7.31396,-0.6623 11.41004,-4.416 z m -14.24539,-6.238 c -10.55908,-6.072 -11.12153,-3.8825 0.1297,-6.3537 6.73381,-1.479 13.07585,2.0442 6.68712,3.7149 -3.47938,0.9099 -7.62554,-8.7142 -5.4323,-6.0715 1.18627,1.4293 3.52095,2.0899 6.9775,1.7603 4.49881,-0.429 -0.79484,-0.9097 -0.79484,1.7154 0,7.2359 -1.0483,8.9832 -7.56718,5.2346 z m -45.36139,4.2176 c 6.07066,-3.2557 9.75326,-10.0943 8.94695,-16.6144 -0.83435,-6.7468 -3.65129,-10.7362 -9.56117,-13.5406 -6.62835,-3.1454 -13.1875,-1.7913 -18.87539,3.8966 -3.8262,3.8262 -4.42817,5.3281 -4.42817,11.0483 0,7.6332 3.29376,12.8806 9.88692,15.7513 5.60718,2.4414 8.69145,2.3224 14.03086,-0.5412 z m -2.53474,-11.4531 c 6.257,-1.0941 -9.43414,-4.2338 -7.60018,-9.7907 2.16343,-6.5553 -3.31041,-0.7387 1.95662,2.604 1.29718,0.8233 1.23837,-4.4135 -0.82267,-2.5483 -3.41754,3.0928 -3.40823,5.3184 0.0367,8.7634 1.7656,1.7656 -0.60709,-3.4223 1.07045,-3.9548 3.8136,-1.2104 2.19823,11.4655 -1.29898,6.1242 -3.11437,-4.7566 -8.15572,1.3924 -1.72042,0.2672 z m 37.28362,-66.1105 c 1.46667,-1.4667 2.66667,-4.1176 2.66667,-5.8909 0,-1.7734 0.36419,-4.1734 0.80932,-5.3334 0.53108,-1.384 0.0727,-2.109 -1.33333,-2.109 -1.17847,0 -2.14266,-0.6 -2.14266,-1.3334 0,-0.7333 0.8789,-1.3333 1.9531,-1.3333 2.30172,0 4.0225,-3.0019 5.1591,-9 0.78134,-4.1233 0.62348,-4.3333 -3.25664,-4.3333 -5.46756,0 -1.17206,-1.491 4.60018,-2.3742 3.8557,-0.59 1.4944,-3.1744 4.24865,-9.9603 l 3.1122,-7.6677 -4.90829,0.6123 c -14.6802,1.8312 -19.15612,1.9215 -33.50268,0.6758 -8.6293,-0.7493 -17.56272,-1.8995 -19.85206,-2.5561 l -4.16241,-1.1938 3.15329,6.232 c 4.19043,8.2817 10.88795,27.4763 12.08775,34.6426 0.90564,5.4094 1.17364,5.6975 4.59977,4.945 4.42591,-0.9721 9.82247,0.945 15.05576,5.3485 4.74402,3.9919 8.16582,4.1757 11.71228,0.6292 z m 16.16024,-56.3615 c 4.48774,-1.8361 4.49378,-1.8505 1.45603,-3.4817 -11.72132,-6.2938 -62.71785,-7.5885 -68.56569,-1.7407 -1.79348,1.7935 9.28745,5.2971 21.64448,6.8436 13.2558,1.659 39.75742,0.714 45.46518,-1.6212 z"
         id="path55589" />
      <path
         style="fill:#0e0a0d;stroke-width:1.33333"
         d="m 884.03998,1340.6133 -32.66666,-3.1794 -8.29563,-6.93 c -15.16562,-12.669 -15.666,-30.3163 -9.73033,-43.3935 3.76136,-8.2869 12.41736,-17.7028 26.14175,-24.9391 14.28764,-7.5333 14.44067,-9.2583 12.26776,-30.4196 -2.46269,-23.9836 -8.43032,-42.5583 -19.16266,-60.0006 -4.69856,-7.6361 -4.32798,-11.0017 -1.11553,-13.7798 4.20669,-3.638 11.47536,-5.3699 27.04223,-6.1266 25.08899,-1.2195 51.81211,4.1636 56.67166,11.1015 1.75793,2.5098 1.2153,4.4468 -3.41906,13.6743 -9.35735,18.6315 -14.03084,37.9123 -15.93946,64.8452 0,0 -1.33258,10.5861 0.76582,14.444 1.81043,3.3285 7.15802,7.2776 7.15802,7.2776 32.75516,22.2543 38.80558,50.3613 13.85353,77.3334 -6.8198,7.3719 -6.47366,4.6764 -53.57144,0.093 z m 49.1719,-9.352 c 8.95206,-10.044 11.27822,-15.2583 11.80506,-26.462 0.43796,-9.3138 0.43427,-9.325 -1.7645,-5.3334 -5.4027,9.808 -11.87504,14 -21.61574,14 -7.63326,0 -13.8204,-3.5429 -18.68298,-10.6984 -2.61754,-3.8517 -3.0607,-5.9083 -2.62275,-12.1712 0.70149,-10.032 5.18023,-16.0007 14.65983,-19.5369 l 6.95982,-2.5962 -6.95532,-4.2797 c -3.82542,-2.3538 -6.95532,-5.1475 -6.95532,-6.2082 0,-1.0608 -1.34014,-2.4244 -2.9781,-3.0303 0,0 -3.00297,-0.043 -2.9781,-1.1017 0.0245,-1.0412 2.9781,-0.9452 2.9781,-0.9452 2.60046,-0.8253 2.9781,-1.8637 2.9781,-8.1887 0,-3.9839 -0.6,-7.2435 -1.33333,-7.2435 -0.73333,0 -3.36565,-0.8657 -3.36565,-1.599 0,-0.7333 2.93232,-1.0676 4.03232,-1.0676 1.1,0 2,-1.0659 2,-2.3686 0,-1.9339 -0.91978,-2.2809 -5.0123,-1.8906 -4.0286,0.3842 -6.04312,-0.3412 -10.26476,-3.6961 -4.0631,-3.229 -6.3247,-4.084 -9.9877,-3.7761 l -4.73524,0.398 0.48196,18.2847 c 0,0 1.37707,11.7719 -1.97404,16.8654 -1.09779,1.6686 -1.81035,2.7139 -3.10723,3.6452 -1.62239,1.165 -5.56323,2.226 -5.56323,2.226 l 5.08127,2.3135 c 12.52403,5.7021 16.952,17.8713 10.98667,30.194 -3.68882,7.62 -10.4076,11.7093 -19.23874,11.7093 -12.14469,0 -21.92584,-9.7581 -22.04436,-21.9924 l -0.0444,-4.579 -2.6049,3.1262 c -3.5463,4.256 -5.71031,12.9693 -4.63914,18.6791 1.24062,6.613 6.27694,15.8671 12.25184,22.5123 l 5.08092,5.6509 33.33334,3.1963 c 18.33333,1.7579 34.63534,3.2649 36.22668,3.3489 1.94366,0.1027 5.0986,-2.3213 9.61188,-7.385 z m -2.99094,-26.388 c 4.96175,-2.4991 7.54552,-7.0247 7.75678,-12.0832 0.22897,-5.4826 -1.92581,-11.4321 -8.17545,-15.6903 -1.60119,-1.091 -4.80478,-1.8711 -8.23185,-1.8971 -19.17915,-0.1454 -21.66215,26.7276 -3.15743,32.1098 4.31193,1.2542 6.41736,0.276 11.80795,-2.4392 z m -13.66346,-3.3808 c -3.97424,-1.6058 -8.5175,-7.7964 -8.5175,-11.6059 0,-8.2415 7.96682,-14.8171 15.62368,-12.8953 l 3.3076,0.8301 -3.79897,3.0659 c -5.28528,4.2655 -3.12104,7.912 4.6958,7.912 4.43408,0 5.50833,0.4722 5.50695,2.421 -0.003,4.1796 -2.71811,7.7358 -7.39955,9.6918 -5.10123,2.1315 -5.51593,2.157 -9.41801,0.5804 z m -45.054,0.5218 c 5.58974,-2.3355 10.53479,-8.179 10.53479,-14.4796 0,-9.1392 -7.36559,-17.3186 -16.72444,-17.3186 -4.72373,0 -11.63494,4.6205 -14.36673,10.1892 -3.02361,6.1637 -1.61201,12.6426 3.86194,17.7439 5.94379,5.539 9.06645,7.0523 16.69444,3.8651 z m -8.79683,-4.1072 c -5.13621,-2.0046 -8,-6.2604 -8,-11.8884 0,-8.8912 8.25729,-14.6295 16.42032,-11.4111 2.28804,0.9021 2.26983,1.0905 -0.33333,3.4463 -1.51451,1.3706 -2.75366,3.506 -2.75366,4.7454 0,3.3301 4.79155,7.1193 7.95616,6.2918 3.53002,-0.9232 3.43322,0.7382 -0.28949,4.9686 -3.02249,3.4346 -9.29851,5.2921 -13,3.8474 z m 44.25998,-73.8878 c 1.11613,-1.2833 2.78044,-4.7257 3.2533,-7.8424 0.68985,-4.5469 1.45327,-5.3776 -0.16419,-5.3776 -1.10866,0 -3.56438,0.075 -3.77561,-1.9319 -0.21148,-2.0088 2.15693,-1.3296 3.57417,-1.3296 2.59658,0 2.73536,0.1623 4.32892,-7.7554 0.83314,-4.1396 1.29805,-4.8991 -2.6243,-4.8991 -2.25828,0 -3.51894,-0.684 -3.51894,-1.4174 0,-0.7333 -0.0631,-2.2138 2.40581,-2.2138 4.73774,0 4.83733,1.6151 11.66273,-14.5417 0.37137,-0.8791 -6.13832,0.7021 -19.08748,1.0179 -17.54388,0.4279 -33.27386,-1.7146 -39.26188,-4.0124 -1.4516,-0.557 0.43936,1.6986 4.16715,10.1462 2.90198,6.5762 6.47047,16.7024 7.70818,22.9826 l 2.75078,10.7666 5.00754,-0.1457 c 4.47593,-0.1301 8.97002,1.3356 12.85413,4.5698 5.61738,4.6773 7.70685,5.4481 10.71969,1.9839 z m 10.78529,-55.6018 c 3.97878,-0.8459 7.89761,-1.6837 8.16193,-2.4963 1.42086,-4.3683 -33.63802,-7.9262 -52.50336,-5.8532 -18.6899,2.0537 -19.29585,1.266 -9.76746,4.8596 11.95185,4.5077 39.54039,6.5874 54.10889,3.4899 z"
         id="path55587" />
      <path
         style="fill:#fcfcfc;fill-opacity:1;stroke:#0e0a0d;stroke-width:0.35903;stroke-linecap:round;stroke-linejoin:round;stroke-miterlimit:4;stroke-dasharray:none;stroke-opacity:1;paint-order:fill markers stroke"
         d="m 1079.9134,1167.259 c -3.6559,-0.9243 -9.6494,-6.2449 -11.7634,-10.4426 -1.37,-2.7205 -1.8041,-6.2746 -1.1148,-9.1276 0.392,-1.6223 1.5422,-4.0861 2.5973,-5.563 1.0037,-1.4051 3.5591,-3.8814 5.0486,-4.8923 1.4539,-0.9868 3.8017,-2.154 5.1937,-2.582 1.5243,-0.4687 4.5013,-0.4333 6.4253,0.076 5.9066,1.5647 10.6254,6.3675 12.2706,12.489 0.6123,2.2783 0.6121,5.8315 -4e-4,7.782 -0.8805,2.8042 -2.2755,5.0207 -4.5128,7.1708 -2.3282,2.2374 -4.3314,3.4035 -7.8499,4.5695 -1.337,0.443 -2.0962,0.5742 -3.6396,0.6288 -1.0727,0.038 -2.2672,-0.011 -2.6546,-0.109 z m 5.2973,-5.0872 c 2.621,-0.5015 5.3132,-1.786 6.9931,-3.3367 0.894,-0.8252 2.755,-3.1821 3.1976,-4.0498 0.2106,-0.4128 0.3503,-0.9949 0.3182,-1.3259 l -0.057,-0.5899 -2.3218,0.059 -2.3217,0.059 -1.3319,-0.6678 c -2.261,-1.1336 -4.031,-3.2411 -4.2798,-5.0959 -0.2008,-1.4967 0.8186,-3.3232 3.0983,-5.5514 2.202,-2.1522 2.0713,-2.5396 -1.2013,-3.5605 -4.2005,-1.3103 -8.8405,-0.1934 -11.8979,2.8639 -3.9796,3.9797 -4.7645,10.8754 -1.8053,15.8615 1.382,2.3287 4.3733,4.6132 6.9468,5.3054 1.2943,0.3481 2.9443,0.3587 4.6628,0.03 z"
         id="path63636"
         transform="translate(-217.18163,136.05913)" />
      <path
         style="fill:#fcfcfc;fill-opacity:1;stroke:#0e0a0d;stroke-width:0.35903;stroke-linecap:round;stroke-linejoin:round;stroke-miterlimit:4;stroke-dasharray:none;stroke-opacity:1;paint-order:fill markers stroke"
         d="m 1135.7323,1171.2594 c -3.3763,-1.0233 -5.6903,-2.4135 -7.952,-4.7771 -2.1478,-2.2446 -3.5176,-4.7613 -4.2903,-7.8822 -0.2405,-0.9714 -0.522,-2.4042 -0.4992,-3.9275 0.022,-1.4878 0.343,-3.0661 0.6028,-4.032 1.7992,-6.689 6.8881,-10.8636 13.8386,-11.3521 3.1287,-0.22 7.4528,0.5627 9.6753,1.7512 1.3635,0.7291 4.6773,4.0151 5.5923,5.5455 1.8283,3.0577 2.5824,6.1024 2.4308,9.8133 -0.1134,2.7742 -0.4707,4.227 -1.5985,6.5007 -1.4607,2.9449 -3.2399,4.5817 -6.9787,6.4202 -3.7848,1.8611 -4.9838,2.2422 -7.3356,2.3314 -1.6835,0.064 -2.1603,0.01 -3.4855,-0.3914 z m 4.9714,-5.3393 c 6.5633,-2.291 9.7898,-5.6892 9.8768,-10.4028 0.043,-2.3454 -0.5278,-2.648 -5.4758,-2.9014 -4.5336,-0.2321 -6.4748,-0.8827 -7.2801,-2.44 -0.8718,-1.6858 0.2195,-3.3939 4.1532,-6.5004 1.2289,-0.9705 2.239,-1.8169 2.2446,-1.8809 0.021,-0.2399 -4.0444,-1.134 -5.5828,-1.2278 -3.3772,-0.2058 -6.7519,1.1421 -9.3679,3.7416 -2.4114,2.3963 -3.6206,4.8274 -4.0359,8.1141 -0.1704,1.3478 -0.1532,1.7957 0.1105,2.8789 0.8903,3.6577 4.3442,8.1402 7.554,9.8038 1.1646,0.6036 3.121,1.3096 4.0886,1.4753 0.802,0.1375 2.0799,-0.09 3.7148,-0.6604 z"
         id="path63675"
         transform="translate(-217.18163,136.05913)" />
    </g>
    <path
       style="fill:#000000;stroke-width:1.33333"
       id="path55325"
       d="" />
  </g>
</svg>
